<svg width="76" height="76" viewBox="0 0 76 76" fill="none" xmlns="http://www.w3.org/2000/svg">
<g clip-path="url(#clip0_471_4708)">
<path d="M38 76C58.9868 76 76 58.9868 76 38C76 17.0132 58.9868 0 38 0C17.0132 0 0 17.0132 0 38C0 58.9868 17.0132 76 38 76Z" fill="#D5D5D5"/>
<mask id="mask0_471_4708" style="mask-type:alpha" maskUnits="userSpaceOnUse" x="0" y="0" width="76" height="76">
<path d="M38 76C58.9868 76 76 58.9868 76 38C76 17.0132 58.9868 0 38 0C17.0132 0 0 17.0132 0 38C0 58.9868 17.0132 76 38 76Z" fill="#A3A3B5"/>
</mask>
<g mask="url(#mask0_471_4708)">
<path d="M8.3125 77.1875C9.66081 64.2727 14.584 53.5307 26.9044 47.3863C29.1988 46.2447 28.5742 45.5817 27.0033 44.2743C16.427 35.472 19.0062 19.1812 31.6791 14.2952C39.6885 11.2077 48.434 14.062 53.0355 21.2682C57.4887 28.2536 56.3877 37.3749 50.3637 43.1572C49.3431 44.1392 48.236 45.0293 46.9062 46.1895C60.4388 52.2602 66.3207 63.2599 67.6875 77.1875C47.8958 77.1875 28.1042 77.1875 8.3125 77.1875Z" fill="white"/>
</g>
</g>
<defs>
<clipPath id="clip0_471_4708">
<rect width="76" height="76" fill="white"/>
</clipPath>
</defs>
</svg>
