<svg width="24" height="24" viewBox="0 0 24 24" fill="currentColor" xmlns="http://www.w3.org/2000/svg">
<path d="M12.0026 6.375C13.3393 6.375 14.4251 5.39453 14.4251 4.1875C14.4251 2.98047 13.3393 2 12.0026 2C10.6659 2 9.58008 2.98047 9.58008 4.1875C9.58008 5.39453 10.6659 6.375 12.0026 6.375Z" fill="currentColor"/>
<path d="M19.6157 6.40626L19.5941 6.41016L19.5768 6.41407C19.5335 6.42579 19.4903 6.43751 19.447 6.44923C18.6424 6.66407 14.7361 7.65626 11.9805 7.65626C9.42394 7.65626 5.86806 6.79688 4.73035 6.50391C4.61788 6.46485 4.50108 6.4297 4.38428 6.40235C3.56236 6.20704 3 6.96095 3 7.64845C3 8.33204 3.67916 8.65626 4.36265 8.89063V8.90235L8.48089 10.0625C8.9005 10.207 9.01298 10.3555 9.06921 10.4844C9.24657 10.8984 9.10382 11.7188 9.05624 12.0039L8.80534 13.7617L7.41673 20.6485C7.4124 20.668 7.40807 20.6875 7.40375 20.707L7.3951 20.7578C7.2956 21.3867 7.80606 22 8.77938 22C9.62725 22 10.0036 21.4727 10.1637 20.7539C10.1637 20.7539 11.3749 14.5977 11.9805 14.5977C12.5862 14.5977 13.832 20.7539 13.832 20.7539C13.9964 21.4727 14.3684 22 15.2163 22C16.1896 22 16.7044 21.3867 16.6006 20.7539C16.5919 20.6992 16.5789 20.6485 16.566 20.5938L15.1601 13.7695L14.9092 12.0117C14.7275 10.9883 14.8745 10.6484 14.9221 10.5703C14.9221 10.5703 14.9265 10.5664 14.9265 10.5625C14.974 10.4844 15.186 10.3086 15.6835 10.1406L19.5465 8.92188C19.5681 8.91798 19.5941 8.91017 19.6157 8.90235C20.3079 8.66798 21 8.34376 21 7.65626C21 6.96876 20.4376 6.21095 19.6157 6.40626Z" fill="currentColor"/>
</svg>
