<svg width="24" height="24" viewBox="0 0 24 24" fill="currentColor" xmlns="http://www.w3.org/2000/svg">
<path d="M5.00586 5.00491C3.90126 5.00491 3.00586 5.89991 3.00586 7.00491C3.00586 8.10991 3.90126 9.00491 5.00586 9.00491H19.0059C20.1109 9.00491 21.0059 8.10991 21.0059 7.00491C21.0059 5.89991 20.1109 5.00491 19.0059 5.00491H5.00586ZM4.50586 11.0049C3.67746 11.0049 3.00586 11.6769 3.00586 12.5049C3.00586 13.3329 3.67746 14.0049 4.50586 14.0049H19.5059C20.3339 14.0049 21.0059 13.3329 21.0059 12.5049C21.0059 11.6769 20.3339 11.0049 19.5059 11.0049H4.50586ZM4.00586 17.0049C3.45356 17.0049 3.00586 17.4529 3.00586 18.0049C3.00586 18.5569 3.45356 19.0049 4.00586 19.0049H20.0059C20.5579 19.0049 21.0059 18.5569 21.0059 18.0049C21.0059 17.4529 20.5579 17.0049 20.0059 17.0049H4.00586Z" fill="currentColor"/>
</svg>
