<svg width="24" height="24" viewBox="0 0 24 24" fill="currentColor" xmlns="http://www.w3.org/2000/svg">
<path d="M8.00586 2.01416C7.45356 2.01416 7.00586 2.46216 7.00586 3.01416C4.79676 3.01416 3.00576 4.80516 3.00586 7.01416V8.07617L21.0059 8.01416V7.01416C21.0059 4.80516 19.215 3.01416 17.0059 3.01416C17.0059 2.46216 16.5582 2.01416 16.0059 2.01416C15.4536 2.01416 15.0059 2.46216 15.0059 3.01416H9.00586C9.00586 2.46216 8.55816 2.01416 8.00586 2.01416ZM3.00586 10.0142V17.0142C3.00586 19.2232 4.79676 21.0142 7.00586 21.0142H17.0059C19.215 21.0142 21.006 19.2232 21.0059 17.0142V10.0142H3.00586ZM8.00586 12.0142C8.55816 12.0142 9.00586 12.4622 9.00586 13.0142C9.00586 13.5662 8.55816 14.0142 8.00586 14.0142C7.45356 14.0142 7.00586 13.5662 7.00586 13.0142C7.00586 12.4622 7.45356 12.0142 8.00586 12.0142ZM12.0059 12.0142C12.5582 12.0142 13.0059 12.4622 13.0059 13.0142C13.0059 13.5662 12.5582 14.0142 12.0059 14.0142C11.4536 14.0142 11.0059 13.5662 11.0059 13.0142C11.0059 12.4622 11.4536 12.0142 12.0059 12.0142ZM16.0059 12.0142C16.5582 12.0142 17.0059 12.4622 17.0059 13.0142C17.0059 13.5662 16.5582 14.0142 16.0059 14.0142C15.4536 14.0142 15.0059 13.5662 15.0059 13.0142C15.0059 12.4622 15.4536 12.0142 16.0059 12.0142ZM8.00586 15.0142C8.55816 15.0142 9.00586 15.4622 9.00586 16.0142C9.00586 16.5662 8.55816 17.0142 8.00586 17.0142C7.45356 17.0142 7.00586 16.5662 7.00586 16.0142C7.00586 15.4622 7.45356 15.0142 8.00586 15.0142ZM12.0059 15.0142C12.5582 15.0142 13.0059 15.4622 13.0059 16.0142C13.0059 16.5662 12.5582 17.0142 12.0059 17.0142C11.4536 17.0142 11.0059 16.5662 11.0059 16.0142C11.0059 15.4622 11.4536 15.0142 12.0059 15.0142ZM16.0059 15.0142C16.5582 15.0142 17.0059 15.4622 17.0059 16.0142C17.0059 16.5662 16.5582 17.0142 16.0059 17.0142C15.4536 17.0142 15.0059 16.5662 15.0059 16.0142C15.0059 15.4622 15.4536 15.0142 16.0059 15.0142Z" fill="currentColor"/>
</svg>
