<svg width="24" height="24" viewBox="0 0 24 24" fill="currentColor" xmlns="http://www.w3.org/2000/svg">
<path d="M5.01416 3.9978C3.35726 3.9978 2.01416 5.3408 2.01416 6.9978V7.9978H22.0142V6.9978C22.0142 5.3408 20.6711 3.9978 19.0142 3.9978H5.01416ZM2.01416 9.9978V16.9978C2.01416 18.6548 3.35726 19.9978 5.01416 19.9978H19.0142C20.6711 19.9978 22.0142 18.6548 22.0142 16.9978V9.9978H2.01416ZM7.01416 11.9978H9.01416C9.56646 11.9978 10.0142 12.4458 10.0142 12.9978V14.9978C10.0142 15.5498 9.56646 15.9978 9.01416 15.9978H7.01416C6.46186 15.9978 6.01416 15.5498 6.01416 14.9978C6.01416 14.7478 6.01416 13.2478 6.01416 12.9978C6.01416 12.4458 6.46186 11.9978 7.01416 11.9978Z" fill="currentColor"/>
</svg>
