<svg width="24" height="24" viewBox="0 0 24 24" fill="currentColor" xmlns="http://www.w3.org/2000/svg">
<path d="M3.01416 1.9989C2.46216 1.9983 2.01516 2.4466 2.01416 2.9989C2.01316 3.5512 2.46216 3.9983 3.01416 3.9989C3.76216 3.9997 4.22816 4.3446 4.60816 4.9677C4.78816 5.2642 5.00815 5.9916 5.20215 6.9989C5.49415 8.5228 6.54517 13.8114 6.54517 13.8114C6.90117 15.5905 8.60717 16.9989 10.4202 16.9989H16.5762C18.3902 16.9989 20.0961 15.5905 20.4521 13.8114C20.4521 13.8114 22.0142 6.381 22.0142 5.9989C22.0142 5.4466 21.5662 4.9989 21.0142 4.9989C20.7032 4.9989 7.02217 5.0075 6.79517 4.9989C6.74217 4.8158 6.58616 4.3669 6.35816 3.9677C5.66516 2.755 4.54416 2.0006 3.01416 1.9989ZM9.51416 18.9989C8.68616 18.9989 8.01416 19.6705 8.01416 20.4989C8.01416 21.3273 8.68616 21.9989 9.51416 21.9989C10.3422 21.9989 11.0142 21.3273 11.0142 20.4989C11.0142 19.6705 10.3422 18.9989 9.51416 18.9989ZM17.5142 18.9989C16.6862 18.9989 16.0142 19.6705 16.0142 20.4989C16.0142 21.3273 16.6862 21.9989 17.5142 21.9989C18.3422 21.9989 19.0142 21.3273 19.0142 20.4989C19.0142 19.6705 18.3422 18.9989 17.5142 18.9989Z" fill="currentColor"/>
</svg>
