<svg width="24" height="24" viewBox="0 0 24 24" fill="currentColor" xmlns="http://www.w3.org/2000/svg">
<path d="M12.0142 1.9989C6.49136 1.9989 2.01416 6.4759 2.01416 11.9989C2.01416 17.5219 6.49136 21.9989 12.0142 21.9989C17.537 21.9989 22.0142 17.5219 22.0142 11.9989C22.0142 6.4759 17.537 1.9989 12.0142 1.9989ZM12.0142 5.9989C12.5665 5.9989 13.0142 6.4469 13.0142 6.9989V11.5609L15.733 14.2799C16.1235 14.6709 16.1235 15.3269 15.733 15.7179C15.3424 16.1079 14.686 16.1079 14.2954 15.7179L11.2954 12.7179C11.1079 12.5299 11.0142 12.2639 11.0142 11.9989V6.9989C11.0142 6.4469 11.4619 5.9989 12.0142 5.9989Z" fill="blacurrentColorck"/>
</svg>
