<svg width="20" height="21" viewBox="0 0 20 21" fill="none" xmlns="http://www.w3.org/2000/svg">
<g id="ic/discount-fill">
<g id="g1053">
<g id="g1055">
<g id="Clip path group">
<mask id="mask0_1023_5917" style="mask-type:luminance" maskUnits="userSpaceOnUse" x="0" y="0" width="20" height="21">
<g id="clipPath1061">
<path id="path1059" d="M0 0.500002H20V20.5H0V0.500002Z" fill="white"/>
</g>
</mask>
<g mask="url(#mask0_1023_5917)">
<g id="g1057">
<g id="g1063">
<path id="path1065" d="M18.2422 5.22656C18.8894 5.22656 19.4141 5.75121 19.4141 6.39844V8.74219H18.8281C17.8573 8.74219 17.0703 9.52918 17.0703 10.5C17.0703 11.4708 17.8573 12.2578 18.8281 12.2578H19.4141V14.6016C19.4141 15.2488 18.8894 15.7734 18.2422 15.7734H1.75781C1.11062 15.7734 0.585938 15.2488 0.585938 14.6016V12.2578H1.17187C2.1427 12.2578 2.92969 11.4708 2.92969 10.5C2.92969 9.52918 2.1427 8.74219 1.17187 8.74219H0.585938V6.39844C0.585938 5.75121 1.11062 5.22656 1.75781 5.22656H18.2422Z" fill="#FFA323" stroke="#FFA323" stroke-width="1.5" stroke-miterlimit="10" stroke-linecap="round" stroke-linejoin="round"/>
</g>
<g id="g1067">
<path id="path1069" d="M11.1719 12.2578C11.1719 12.905 11.6966 13.4297 12.3438 13.4297C12.9909 13.4297 13.5156 12.905 13.5156 12.2578C13.5156 11.6106 12.9909 11.0859 12.3438 11.0859C11.6966 11.0859 11.1719 11.6106 11.1719 12.2578Z" fill="black"/>
</g>
<g id="g1071">
<path id="path1073" d="M6.48438 8.74219C6.48438 9.38941 7.00906 9.91406 7.65625 9.91406C8.30344 9.91406 8.82812 9.38941 8.82812 8.74219C8.82812 8.09496 8.30344 7.57031 7.65625 7.57031C7.00906 7.57031 6.48438 8.09496 6.48438 8.74219Z" fill="black"/>
</g>
<g id="g1075">
<g id="path1077">
<path d="M12.3437 7.57031L7.65625 13.4297L12.3437 7.57031Z" fill="black"/>
<path d="M12.3437 7.57031L7.65625 13.4297" stroke="black" stroke-width="1.5" stroke-miterlimit="10" stroke-linecap="round" stroke-linejoin="round"/>
</g>
</g>
</g>
</g>
</g>
</g>
</g>
</g>
</svg>
