<svg width="24" height="24" viewBox="0 0 24 24" fill="currentColor" xmlns="http://www.w3.org/2000/svg">
<path d="M12.0142 1.99896C6.49116 1.99896 2.01416 6.47596 2.01416 11.999C2.01416 16.814 5.45917 20.888 10.0152 21.804L10.0142 14.999H8.01416V11.999H10.0142V8.99896C10.0252 7.36496 11.3152 6.01796 13.0142 5.99896H16.0142V8.99896C16.0142 8.99896 14.3102 8.99896 14.0142 8.99896C13.4952 8.99796 13.0142 9.42896 13.0142 9.99896V11.999H16.0142L15.0142 14.999H13.0142L13.0212 21.9609C18.0532 21.4389 22.0142 17.169 22.0142 11.999C22.0142 6.47596 17.5372 1.99896 12.0142 1.99896Z" fill="currentColor"/>
</svg>
