<svg width="24" height="24" viewBox="0 0 24 24" fill="currentColor" xmlns="http://www.w3.org/2000/svg">
<path d="M4.99854 2.99072C3.89394 2.99072 2.99854 3.88572 2.99854 4.99072V8.99072C2.99854 10.0957 3.89394 10.9907 4.99854 10.9907H8.99854C10.1031 10.9907 10.9985 10.0957 10.9985 8.99072V4.99072C10.9985 3.88572 10.1031 2.99072 8.99854 2.99072H4.99854ZM14.9985 2.99072C13.8939 2.99072 12.9985 3.88572 12.9985 4.99072V8.99072C12.9985 10.0957 13.8939 10.9907 14.9985 10.9907H18.9985C20.1031 10.9907 20.9985 10.0957 20.9985 8.99072V4.99072C20.9985 3.88572 20.1031 2.99072 18.9985 2.99072H14.9985ZM4.99854 12.9907C3.89394 12.9907 2.99854 13.8857 2.99854 14.9907V18.9907C2.99854 20.0957 3.89394 20.9907 4.99854 20.9907H8.99854C10.1031 20.9907 10.9985 20.0957 10.9985 18.9907V14.9907C10.9985 13.8857 10.1031 12.9907 8.99854 12.9907H4.99854ZM14.9985 12.9907C13.8939 12.9907 12.9985 13.8857 12.9985 14.9907V18.9907C12.9985 20.0957 13.8939 20.9907 14.9985 20.9907H18.9985C20.1031 20.9907 20.9985 20.0957 20.9985 18.9907V14.9907C20.9985 13.8857 20.1031 12.9907 18.9985 12.9907H14.9985Z" fill="currentColor"/>
</svg>
