<svg width="24" height="24" viewBox="0 0 24 24" fill="currentColor" xmlns="http://www.w3.org/2000/svg">
<path d="M2.99902 6.10345C2.44702 6.10345 1.99902 6.55145 1.99902 7.10345C1.99902 7.65545 2.44702 8.10345 2.99902 8.10345H20.999C21.551 8.10345 21.999 7.65545 21.999 7.10345C21.999 6.55145 21.551 6.10345 20.999 6.10345H2.99902ZM2.99902 11.1035C2.44702 11.1035 1.99902 11.5515 1.99902 12.1035C1.99902 12.6555 2.44702 13.1035 2.99902 13.1035H20.999C21.551 13.1035 21.999 12.6555 21.999 12.1035C21.999 11.5515 21.551 11.1035 20.999 11.1035H2.99902ZM2.99902 16.1035C2.44702 16.1035 1.99902 16.5515 1.99902 17.1035C1.99902 17.6555 2.44702 18.1035 2.99902 18.1035H20.999C21.551 18.1035 21.999 17.6555 21.999 17.1035C21.999 16.5515 21.551 16.1035 20.999 16.1035H2.99902Z" fill="currentColor"/>
</svg>
