<svg width="24" height="24" viewBox="0 0 24 24" fill="currentColor" xmlns="http://www.w3.org/2000/svg">
<path d="M11.998 2.01413C7.58004 2.01413 3.99805 5.59613 3.99805 10.0141C3.99805 13.4811 6.24605 17.4261 9.27904 20.7021C9.37704 20.8071 9.45705 20.8891 9.56005 20.9831C10.419 21.7521 11.309 22.0241 11.998 22.0141C12.007 22.0141 12.022 22.0141 12.029 22.0141C12.747 22.0141 13.759 21.6911 14.717 20.7331C17.627 17.8231 19.998 13.5321 19.998 10.0141C19.998 5.59613 16.416 2.01413 11.998 2.01413ZM11.998 7.01413C13.655 7.01413 14.998 8.35713 14.998 10.0141C14.998 11.6711 13.655 13.0141 11.998 13.0141C10.341 13.0141 8.99804 11.6711 8.99804 10.0141C8.99804 8.35713 10.341 7.01413 11.998 7.01413Z" fill="currentColor"/>
</svg>
