<svg width="24" height="24" viewBox="0 0 24 24" fill="currentColor" xmlns="http://www.w3.org/2000/svg">
<path d="M12.0142 1.95316C6.49136 1.95316 2.01416 6.43016 2.01416 11.9532C2.01416 17.4762 6.49136 21.9532 12.0142 21.9532C17.537 21.9532 22.0142 17.4762 22.0142 11.9532C22.0142 6.43016 17.537 1.95316 12.0142 1.95316ZM12.0142 6.95316C12.5665 6.95316 13.0142 7.40116 13.0142 7.95316V10.9532H16.0142C16.5665 10.9532 17.0142 11.4012 17.0142 11.9532C17.0142 12.5052 16.5665 12.9532 16.0142 12.9532H13.0142V15.9532C13.0142 16.5052 12.5665 16.9532 12.0142 16.9532C11.4619 16.9532 11.0142 16.5052 11.0142 15.9532V12.9532H8.01416C7.46186 12.9532 7.01416 12.5052 7.01416 11.9532C7.01416 11.4012 7.46186 10.9532 8.01416 10.9532H11.0142V7.95316C11.0142 7.40116 11.4619 6.95316 12.0142 6.95316Z" fill="currentColor"/>
</svg>
