<svg width="24" height="24" viewBox="0 0 24 24" fill="currentColor" xmlns="http://www.w3.org/2000/svg">
<path d="M11.998 1.95319C9.23665 1.95319 6.99805 4.19179 6.99805 6.95319C6.99805 9.71459 9.23665 11.9532 11.998 11.9532C14.7594 11.9532 16.998 9.71459 16.998 6.95319C16.998 4.19179 14.7594 1.95319 11.998 1.95319ZM8.46685 13.2657C5.85255 13.9802 3.99805 16.2534 3.99805 18.9532V20.9532C3.99805 21.5055 4.44575 21.9532 4.99805 21.9532H18.9981C19.5504 21.9532 19.9981 21.5055 19.9981 20.9532V18.9532C19.9981 16.2534 18.1435 13.9802 15.5292 13.2657C15.3051 13.2044 15.0849 13.2327 14.873 13.3282C13.9575 13.7408 12.9829 13.9532 11.998 13.9532C11.0131 13.9532 10.0385 13.7408 9.12305 13.3282C8.91115 13.2327 8.69095 13.2044 8.46685 13.2657Z" fill="currentColor"/>
</svg>
