<svg width="24" height="24" viewBox="0 0 24 24" fill="currentColor" xmlns="http://www.w3.org/2000/svg">
<path d="M12.0237 2.44138C11.4528 2.44118 10.8698 2.79638 10.5245 3.50338L8.40062 7.87608L3.55941 8.56318C2.00251 8.77978 1.49811 10.3072 2.62241 11.4052L6.12051 14.8102L5.30851 19.5892C5.04111 21.1362 6.32422 22.0712 7.71352 21.3382C8.25032 21.0542 11.0104 19.6242 12.0237 19.0892L16.3339 21.3382C17.7248 22.0712 19.0119 21.1372 18.7389 19.5892L17.8956 14.8102L21.3938 11.4052C22.5234 10.3112 22.045 8.78418 20.488 8.56318L15.6156 7.87608L13.5229 3.50338C13.1781 2.79608 12.5946 2.44168 12.0237 2.44138Z" fill="currentColor"/>
</svg>
