<svg width="24" height="24" viewBox="0 0 24 24" fill="currentColor" xmlns="http://www.w3.org/2000/svg">
<path d="M6.92871 2.92978C5.24071 2.92978 2.99072 5.17977 2.99072 6.86777C2.99072 9.04177 5.24072 13.0548 7.49072 15.3048C7.73272 15.5468 8.37372 16.1878 8.61572 16.4298C10.8657 18.6798 14.8787 20.9298 17.0527 20.9298C18.7407 20.9298 20.9907 18.6798 20.9907 16.9918C20.9907 15.3048 18.7407 13.0548 17.0527 13.0548C16.4907 13.0548 14.4557 14.2188 14.2407 14.1798C12.4467 13.8558 10.1157 11.4668 9.74072 9.67978C9.68872 9.43078 10.8657 7.42977 10.8657 6.86777C10.8657 5.17977 8.61571 2.92978 6.92871 2.92978Z" fill="currentColor"/>
</svg>
