<svg width="24" height="24" viewBox="0 0 24 24" fill="currentColor" xmlns="http://www.w3.org/2000/svg">
<path d="M8.02832 1.9989C5.81932 1.9989 4.02832 3.7899 4.02832 5.9989V17.9989C4.02832 20.2079 5.81932 21.9989 8.02832 21.9989H16.0283C18.2373 21.9989 20.0283 20.2079 20.0283 17.9989V5.9989C20.0283 3.7899 18.2373 1.9989 16.0283 1.9989H8.02832ZM9.02832 5.9989H15.0283C15.5803 5.9989 16.0283 6.4469 16.0283 6.9989C16.0283 7.5509 15.5803 7.9989 15.0283 7.9989H9.02832C8.47632 7.9989 8.02832 7.5509 8.02832 6.9989C8.02832 6.4469 8.47632 5.9989 9.02832 5.9989ZM9.02832 9.9989H15.0283C15.5803 9.9989 16.0283 10.4469 16.0283 10.9989C16.0283 11.5509 15.5803 11.9989 15.0283 11.9989H9.02832C8.47632 11.9989 8.02832 11.5509 8.02832 10.9989C8.02832 10.4469 8.47632 9.9989 9.02832 9.9989ZM9.02832 13.9989H12.0283C12.5803 13.9989 13.0283 14.4469 13.0283 14.9989C13.0283 15.5509 12.5803 15.9989 12.0283 15.9989H9.02832C8.47632 15.9989 8.02832 15.5509 8.02832 14.9989C8.02832 14.4469 8.47632 13.9989 9.02832 13.9989Z" fill="currentColor"/>
</svg>
