<svg width="24" height="24" viewBox="0 0 24 24" fill="currentColor" xmlns="http://www.w3.org/2000/svg">
<path d="M15.0132 2.92988C12.1132 2.92588 10.0132 5.35387 10.0132 7.92987C10.0132 7.92987 7.36318 7.49085 4.85817 5.27185C4.46217 4.92085 4.06017 4.92987 4.01317 4.92987C3.48817 4.92987 3.01217 5.36187 3.01317 5.92987C3.01417 6.33587 3.01317 8.07087 3.01317 8.52887C3.01317 9.67287 3.38016 10.6509 3.96816 11.4559C3.96816 11.4639 3.96816 11.4529 3.96816 12.3119C3.96816 13.8429 4.55517 15.0089 5.65017 15.6208C5.35817 16.0508 4.64018 16.4349 4.01018 16.6729C3.59218 16.8319 3.21217 16.9269 3.02217 16.9289C2.45917 16.9369 2.01718 17.4069 2.01418 17.9319C2.01118 18.4559 2.37817 18.7139 2.61617 18.8729C3.00417 19.1329 3.51718 19.2889 4.01018 19.4319C5.16118 19.7649 6.40416 19.9299 7.69216 19.9299C14.0472 19.9299 19.2882 15.1709 19.9482 8.97589C19.9482 8.97589 20.1662 8.29886 20.6932 7.69086C21.2212 7.08286 22.0132 6.62085 22.0132 6.62085L20.0982 6.57788L21.3492 4.82587C21.3492 4.82587 19.2942 5.25687 19.0132 4.92987C18.0842 3.66088 16.4522 2.93188 15.0132 2.92988ZM17.0132 5.92987C17.5652 5.92987 18.0132 6.37686 18.0132 6.92786C18.0132 7.47986 17.5652 7.92688 17.0132 7.92688C16.4612 7.92688 16.0132 7.47986 16.0132 6.92786C16.0132 6.37686 16.4612 5.92987 17.0132 5.92987Z" fill="currentColor"/>
</svg>
