<svg width="23" height="24" viewBox="0 0 23 24" fill="none" xmlns="http://www.w3.org/2000/svg">
<path d="M11.3141 21.0703C11.8342 21.0703 12.2563 20.6223 12.2563 20.0703V13.0703H18.8513C19.3714 13.0703 19.7935 12.6223 19.7935 12.0703C19.7935 11.5183 19.3714 11.0703 18.8513 11.0703H12.2563V4.07025C12.2563 3.51825 11.8342 3.07025 11.3141 3.07025C10.7941 3.07025 10.372 3.51825 10.372 4.07025V11.0703H3.77693C3.25686 11.0703 2.83478 11.5183 2.83478 12.0703C2.83478 12.6223 3.25686 13.0703 3.77693 13.0703H10.372V20.0703C10.372 20.6223 10.7941 21.0703 11.3141 21.0703Z" fill="black"/>
</svg>
