<svg width="24" height="24" viewBox="0 0 24 24" fill="currentColor" xmlns="http://www.w3.org/2000/svg">
<path d="M1.9766 1.99893C1.4243 1.99443 0.981096 2.44663 0.976596 2.99893C0.972096 3.55123 1.4244 3.99443 1.9766 3.99893C2.7142 4.00493 3.30429 4.49883 3.75779 5.43643C4.18179 6.31293 4.3056 7.03423 4.3204 7.12393L5.50779 14.7801C5.87149 16.6034 7.5997 17.9989 9.4141 17.9989H16.5386C18.3536 17.9989 20.0896 16.5905 20.4456 14.8114L21.6646 6.68643C21.9476 5.27263 20.9036 3.99893 19.4146 3.99893H5.25779C4.50599 2.76003 3.3598 2.01013 1.9766 1.99893ZM6.13279 5.99893H19.4146C19.6416 5.99893 19.7396 6.11923 19.6956 6.34273L18.4766 14.4677C18.3156 15.2647 17.4006 15.9989 16.5386 15.9989H9.4141C8.5531 15.9989 7.6454 15.2807 7.4766 14.4364L6.3204 6.81143C6.2855 6.59873 6.20479 6.26163 6.13279 5.99893ZM8.4766 18.9989C7.6482 18.9989 6.9766 19.6705 6.9766 20.4989C6.9766 21.3273 7.6482 21.9989 8.4766 21.9989C9.305 21.9989 9.9766 21.3273 9.9766 20.4989C9.9766 19.6705 9.305 18.9989 8.4766 18.9989ZM17.4766 18.9989C16.6486 18.9989 15.9766 19.6705 15.9766 20.4989C15.9766 21.3273 16.6486 21.9989 17.4766 21.9989C18.3046 21.9989 18.9766 21.3273 18.9766 20.4989C18.9766 19.6705 18.3046 18.9989 17.4766 18.9989Z" fill="currentColor"/>
</svg>
