<svg width="24" height="24" viewBox="0 0 24 24" fill="currentColor" xmlns="http://www.w3.org/2000/svg">
<path d="M12.0142 1.9989C6.49136 1.9989 2.01416 6.4759 2.01416 11.9989C2.01416 17.5219 6.49126 21.9989 12.0142 21.9989C17.537 21.9989 22.0142 17.5219 22.0142 11.9989C22.0142 6.4759 17.537 1.9989 12.0142 1.9989ZM12.0142 3.9989C16.4325 3.9989 20.0142 7.5809 20.0142 11.9989C20.0142 16.4169 16.4325 19.9989 12.0142 19.9989C7.59586 19.9989 4.01416 16.4169 4.01416 11.9989C4.01416 7.5809 7.59586 3.9989 12.0142 3.9989ZM12.0142 5.9989C11.4619 5.9989 11.0142 6.4469 11.0142 6.9989V11.9989C11.0142 12.2639 11.1079 12.5299 11.2954 12.7179L14.2954 15.7179C14.686 16.1079 15.3424 16.1079 15.733 15.7179C16.1235 15.3269 16.1235 14.6709 15.733 14.2799L13.0142 11.5609V6.9989C13.0142 6.4469 12.5665 5.9989 12.0142 5.9989Z" fill="currentColor"/>
</svg>
