<svg width="24" height="24" viewBox="0 0 24 24" fill="currentColor" xmlns="http://www.w3.org/2000/svg">
<path d="M11.999 1.95317C6.47602 1.95317 1.99902 6.43017 1.99902 11.9532C1.99902 17.4762 6.47602 21.9532 11.999 21.9532C17.522 21.9532 21.999 17.4762 21.999 11.9532C21.999 6.43017 17.522 1.95317 11.999 1.95317ZM11.999 3.95317C16.417 3.95317 19.999 7.53517 19.999 11.9532C19.999 16.3712 16.417 19.9532 11.999 19.9532C7.58102 19.9532 3.99902 16.3712 3.99902 11.9532C3.99902 7.53517 7.58102 3.95317 11.999 3.95317ZM8.99902 7.95317C8.74302 7.95317 8.47603 8.03918 8.28003 8.23418C7.89003 8.62518 7.89003 9.28117 8.28003 9.67216L10.561 11.9532L8.28003 14.2342C7.89003 14.6252 7.89003 15.2812 8.28003 15.6722C8.67103 16.0622 9.32702 16.0622 9.71802 15.6722L11.999 13.3912L14.28 15.6722C14.671 16.0622 15.327 16.0622 15.718 15.6722C16.108 15.2812 16.108 14.6252 15.718 14.2342L13.437 11.9532L15.718 9.67216C16.108 9.28117 16.108 8.62518 15.718 8.23418C15.522 8.03918 15.255 7.95317 14.999 7.95317C14.743 7.95317 14.476 8.03918 14.28 8.23418L11.999 10.5152L9.71802 8.23418C9.52202 8.03918 9.25502 7.95317 8.99902 7.95317Z" fill="currentColor"/>
</svg>
