<svg width="24" height="24" viewBox="0 0 24 24" fill="currentColor" xmlns="http://www.w3.org/2000/svg">
<path d="M4.9941 3.90634C4.7382 3.90634 4.4706 3.99235 4.2753 4.18735C3.8848 4.57835 3.8848 5.23434 4.2753 5.62534L10.5566 11.9063L4.2753 18.1873C3.8848 18.5783 3.8848 19.2343 4.2753 19.6253C4.6659 20.0153 5.3223 20.0153 5.7129 19.6253L11.9941 13.3443L18.2753 19.6253C18.6659 20.0153 19.3223 20.0153 19.7129 19.6253C20.1034 19.2343 20.1034 18.5783 19.7129 18.1873L13.4316 11.9063L19.7129 5.62534C20.1034 5.23434 20.1034 4.57835 19.7129 4.18735C19.5176 3.99235 19.2499 3.90634 18.9941 3.90634C18.7382 3.90634 18.4707 3.99235 18.2753 4.18735L11.9941 10.4683L5.7129 4.18735C5.5176 3.99235 5.25 3.90634 4.9941 3.90634Z" fill="currentColor"/>
</svg>
