<svg width="24" height="24" viewBox="0 0 24 24" fill="currentColor" xmlns="http://www.w3.org/2000/svg">
<path d="M7.99854 2.99074C5.23754 2.99074 2.99854 5.22974 2.99854 7.99074V15.9907C2.99854 18.7517 5.23754 20.9907 7.99854 20.9907H15.9985C18.7595 20.9907 20.9985 18.7517 20.9985 15.9907V7.99074C20.9985 5.22974 18.7595 2.99074 15.9985 2.99074H7.99854ZM7.99854 4.99074H15.9985C17.6555 4.99074 18.9985 6.33374 18.9985 7.99074V15.9907C18.9985 17.6477 17.6555 18.9907 15.9985 18.9907H7.99854C6.34154 18.9907 4.99854 17.6477 4.99854 15.9907V7.99074C4.99854 6.33374 6.34154 4.99074 7.99854 4.99074ZM15.9985 6.99074C15.4465 6.99074 14.9985 7.43874 14.9985 7.99074C14.9985 8.54274 15.4465 8.99074 15.9985 8.99074C16.5505 8.99074 16.9985 8.54274 16.9985 7.99074C16.9985 7.43874 16.5505 6.99074 15.9985 6.99074ZM11.9985 7.99074C9.78954 7.99074 7.99854 9.78174 7.99854 11.9907C7.99854 14.1997 9.78954 15.9907 11.9985 15.9907C14.2075 15.9907 15.9985 14.1997 15.9985 11.9907C15.9985 9.78174 14.2075 7.99074 11.9985 7.99074ZM11.9985 9.99074C13.1035 9.99074 13.9985 10.8857 13.9985 11.9907C13.9985 13.0957 13.1035 13.9907 11.9985 13.9907C10.8935 13.9907 9.99854 13.0957 9.99854 11.9907C9.99854 10.8857 10.8935 9.99074 11.9985 9.99074Z" fill="currentColor"/>
</svg>
