<svg width="24" height="24" viewBox="0 0 24 24" fill="currentColor" xmlns="http://www.w3.org/2000/svg">
<path d="M11.8688 2.92987C11.1119 2.93587 10.3387 3.13887 9.74383 3.55487L2.43132 8.61885C1.85442 9.01585 1.85542 9.84586 2.43132 10.2449L4.86882 11.9329L2.43132 13.6208C1.85562 14.0178 1.85642 14.8478 2.43132 15.2458L9.74383 20.3098C10.9407 21.1238 12.7876 21.1378 13.9938 20.3418L21.5563 15.2779C22.1486 14.8809 22.1493 14.0158 21.5563 13.6208L19.0563 11.9639L21.5563 10.2759C22.1468 9.87885 22.1478 8.98386 21.5563 8.58786L13.9625 3.52386C13.3656 3.11786 12.6257 2.92387 11.8688 2.92987ZM11.8688 4.93087C12.2305 4.92787 12.6119 5.00587 12.8688 5.18087L19.1813 9.43186L16.6813 11.1199L12.8688 13.6829C12.34 14.0329 11.3819 14.0319 10.8688 13.6829C10.4164 13.3689 7.64223 11.4409 7.18133 11.1199L4.74382 9.43186L10.9 5.21186C11.1582 5.03086 11.5071 4.93387 11.8688 4.93087ZM6.58752 13.1208H6.61883C7.51103 13.7408 9.35223 15.0368 9.74383 15.3088C10.9421 16.1238 12.7878 16.1369 13.9938 15.3399L17.2438 13.1519L19.1813 14.4649L12.8688 18.6848C12.3385 19.0348 11.382 19.0338 10.8688 18.6848L4.74382 14.4338L6.58752 13.1208Z" fill="currentColor"/>
</svg>
