<svg width="24" height="24" viewBox="0 0 24 24" fill="currentColor" xmlns="http://www.w3.org/2000/svg">
<path d="M7.49902 2.99074C4.46142 2.99074 1.99902 5.45274 1.99902 8.49075C1.99902 11.6748 3.81252 14.6788 6.81152 17.4288C7.83512 18.3668 8.93723 19.1898 10.0302 19.9288C10.4133 20.1868 10.7716 20.4208 11.0928 20.6158C11.2886 20.7348 11.4177 20.8208 11.499 20.8658C11.801 21.0338 12.197 21.0338 12.499 20.8658C12.5803 20.8208 12.7094 20.7348 12.9052 20.6158C13.2264 20.4208 13.5847 20.1868 13.9678 19.9288C15.0608 19.1898 16.1629 18.3668 17.1865 17.4288C20.1855 14.6788 21.999 11.6748 21.999 8.49075C21.999 5.45274 19.5366 2.99074 16.499 2.99074C14.7738 2.99074 13.0894 3.93075 12.0302 5.30275C10.9974 3.90675 9.31893 2.99074 7.49902 2.99074ZM7.49902 4.99074C8.71292 4.99074 9.84653 5.60676 10.499 6.55276C10.5624 6.64476 11.0623 7.37975 11.1552 7.52175C11.5421 8.11475 12.4053 8.13276 12.8115 7.55276C12.9103 7.41176 13.4306 6.67974 13.499 6.58474C14.1801 5.63274 15.3722 4.99074 16.499 4.99074C18.432 4.99074 19.999 6.55775 19.999 8.49075C19.999 10.9938 18.4375 13.5207 15.8115 15.9288C14.8663 16.7948 13.8591 17.5848 12.8428 18.2718C12.5355 18.4798 12.2614 18.6418 11.999 18.8028C11.7366 18.6418 11.4625 18.4798 11.1552 18.2718C10.1389 17.5848 9.13173 16.7948 8.18652 15.9288C5.56052 13.5207 3.99902 10.9938 3.99902 8.49075C3.99902 6.55775 5.56602 4.99074 7.49902 4.99074Z" fill="currentColor"/>
</svg>
