<svg width="24" height="24" viewBox="0 0 24 24" fill="currentColor" xmlns="http://www.w3.org/2000/svg">
<path d="M11.998 2.01418C7.57975 2.01418 3.99805 5.59617 3.99805 10.0142C3.99805 13.4812 6.24585 17.4261 9.27925 20.7021C9.37725 20.8071 9.45655 20.8891 9.56055 20.9831C10.4185 21.7521 11.3086 22.0242 11.998 22.0142C12.0067 22.0142 12.0222 22.0142 12.0292 22.0142C12.7467 22.0142 13.7585 21.6911 14.7168 20.7331C17.6268 17.8232 19.998 13.5322 19.998 10.0142C19.998 5.59617 16.4163 2.01418 11.998 2.01418ZM11.998 4.01417C15.3117 4.01417 17.998 6.70017 17.998 10.0142C17.998 12.9002 15.8503 16.7242 13.2792 19.2952C12.7375 19.8372 12.253 20.0142 11.998 20.0142C11.9768 20.0142 11.9617 20.0142 11.9668 20.0142C11.7394 20.0172 11.3425 19.9072 10.9042 19.5142C10.8462 19.4622 10.7728 19.3872 10.7168 19.3262C7.99605 16.3892 5.99805 12.8472 5.99805 10.0142C5.99805 6.70017 8.68435 4.01417 11.998 4.01417ZM11.998 7.01417C10.3411 7.01417 8.99805 8.35717 8.99805 10.0142C8.99805 11.6712 10.3411 13.0142 11.998 13.0142C13.6549 13.0142 14.998 11.6712 14.998 10.0142C14.998 8.35717 13.6549 7.01417 11.998 7.01417ZM11.998 9.01417C12.5503 9.01417 12.998 9.46217 12.998 10.0142C12.998 10.5662 12.5503 11.0142 11.998 11.0142C11.4457 11.0142 10.998 10.5662 10.998 10.0142C10.998 9.46217 11.4457 9.01417 11.998 9.01417Z" fill="currentColor"/>
</svg>
