<svg width="24" height="24" viewBox="0 0 24 24" fill="currentColor" xmlns="http://www.w3.org/2000/svg">
<path d="M16.9956 1.95314C16.7306 1.95314 16.4646 2.04715 16.2766 2.23415C15.7206 2.79015 13.7196 4.79117 13.2756 5.23617L4.27058 14.2412L3.26958 15.2412C3.13058 15.3812 3.05858 15.5792 3.01958 15.7732L2.01958 20.7762C1.87958 21.4762 2.47558 22.0722 3.17558 21.9332C3.80158 21.8072 7.55357 21.0572 8.17857 20.9322C8.37257 20.8932 8.57059 20.8212 8.71059 20.6822L9.71059 19.6812L18.7156 10.6762C19.1606 10.2322 21.1616 8.23014 21.7176 7.67514C21.9046 7.48714 21.9986 7.22114 21.9986 6.95614C21.9986 5.31914 21.5816 4.14913 20.7166 3.26613C19.8436 2.37513 18.6776 1.95314 16.9956 1.95314ZM17.3896 3.97213C18.2926 4.02513 18.8776 4.23217 19.2786 4.64217C19.6886 5.06017 19.9476 5.64017 20.0036 6.52517C19.4556 7.07217 18.6536 7.86213 17.9966 8.51913C17.2036 7.72613 16.2256 6.74816 15.4326 5.95516C16.0906 5.29816 16.8426 4.51913 17.3896 3.97213ZM13.9946 7.39315L16.5586 9.95718L8.99158 17.5242L6.42758 14.9602L13.9946 7.39315ZM4.98958 16.3982L7.55357 18.9621L7.45958 19.0562C6.79958 19.1882 5.46659 19.4672 4.23859 19.7132L4.89558 16.4922L4.98958 16.3982Z" fill="currentColor"/>
</svg>
