<svg width="24" height="24" viewBox="0 0 24 24" fill="currentColor" xmlns="http://www.w3.org/2000/svg">
<path d="M10.0142 1.95323C5.59586 1.95323 2.01416 5.53524 2.01416 9.95325C2.01416 14.3713 5.59586 17.9533 10.0142 17.9533C11.8509 17.9533 13.5918 17.3223 14.9421 16.2823L19.2954 20.6723C19.686 21.0623 20.3424 21.0623 20.733 20.6723C21.1235 20.2813 21.1235 19.6253 20.733 19.2343L16.3495 14.8743C17.3903 13.5242 18.0142 11.7903 18.0142 9.95325C18.0142 5.53524 14.4325 1.95323 10.0142 1.95323ZM10.0142 3.95324C13.3279 3.95324 16.0142 6.63924 16.0142 9.95325C16.0142 13.2673 13.3279 15.9533 10.0142 15.9533C6.70046 15.9533 4.01416 13.2673 4.01416 9.95325C4.01416 6.63924 6.70046 3.95324 10.0142 3.95324Z" fill="currentColor"/>
</svg>
