<svg width="24" height="24" viewBox="0 0 24 24" fill="currentColor" xmlns="http://www.w3.org/2000/svg">
<path d="M15.3761 2.5019C14.8564 2.3149 14.2819 2.57589 14.0949 3.09589C13.9078 3.61489 14.2002 4.1899 14.7199 4.3769C16.9839 5.1919 18.7715 7.0109 19.5636 9.2829C19.7454 9.8049 20.3233 10.0589 20.8449 9.87689C21.3664 9.69489 21.6204 9.14789 21.4386 8.62689C20.4479 5.7849 18.2077 3.5209 15.3761 2.5019Z" fill="currentColor"/>
<path d="M6.51416 3.90636C4.46186 3.90636 2.01416 6.35436 2.01416 8.40636C2.01416 10.5884 4.05326 14.3824 6.29536 16.6254C6.50116 16.8304 7.08976 17.4194 7.29536 17.6254C9.53756 19.8674 13.3319 21.9064 15.5142 21.9064C17.5665 21.9064 20.0142 19.4584 20.0142 17.4064C20.0142 15.3544 17.5665 12.9064 15.5142 12.9064C15.104 12.9064 14.6821 13.0694 13.8892 13.4374C13.816 13.4714 13.2064 13.7703 13.0454 13.8443C11.9288 13.5373 10.4169 12.0043 10.0767 10.8443C10.1536 10.6743 10.4537 10.0934 10.483 10.0314C10.8666 9.21936 11.0142 8.82136 11.0142 8.40636C11.0142 6.35436 8.56646 3.90636 6.51416 3.90636ZM6.51416 5.90636C7.46186 5.90636 9.01416 7.45836 9.01416 8.40636C9.01416 8.38136 8.88046 8.74336 8.67036 9.18736C8.64216 9.24736 8.30976 9.89136 8.23296 10.0624C7.99686 10.5904 7.96806 10.7564 8.04536 11.1254C8.46486 13.1264 10.8447 15.5174 12.8267 15.8754C13.1836 15.9394 13.2712 15.9074 13.8267 15.6564C13.9817 15.5864 14.6629 15.2824 14.733 15.2504C15.1733 15.0454 15.5354 14.9064 15.5142 14.9064C16.4619 14.9064 18.0142 16.4584 18.0142 17.4064C18.0142 18.3544 16.4619 19.9064 15.5142 19.9064C13.9526 19.9064 10.6353 18.0904 8.73296 16.1874C8.52716 15.9824 7.93856 15.3934 7.73296 15.1874C5.83056 13.2854 4.01416 9.96836 4.01416 8.40636C4.01416 7.45836 5.56646 5.90636 6.51416 5.90636Z" fill="currentColor"/>
<path d="M13.6185 6.42438C13.3802 6.51738 13.1979 6.70239 13.0873 6.95539C12.8658 7.46139 13.0813 8.04637 13.5873 8.26837C14.5254 8.67837 15.2834 9.41837 15.681 10.3624C15.8954 10.8704 16.4845 11.1074 16.9935 10.8934C17.5025 10.6784 17.7392 10.1204 17.5247 9.61237C16.9281 8.19537 15.8073 7.04038 14.3997 6.42438C14.1468 6.31338 13.8568 6.33138 13.6185 6.42438Z" fill="currentColor"/>
</svg>
