<svg width="24" height="24" viewBox="0 0 24 24" fill="currentColor" xmlns="http://www.w3.org/2000/svg">
<path d="M4.01416 10.0098C2.90916 10.0098 2.01416 10.9048 2.01416 12.0098C2.01416 13.1148 2.90916 14.0098 4.01416 14.0098C5.11916 14.0098 6.01416 13.1148 6.01416 12.0098C6.01416 10.9048 5.11916 10.0098 4.01416 10.0098ZM12.0142 10.0098C10.9092 10.0098 10.0142 10.9048 10.0142 12.0098C10.0142 13.1148 10.9092 14.0098 12.0142 14.0098C13.1192 14.0098 14.0142 13.1148 14.0142 12.0098C14.0142 10.9048 13.1192 10.0098 12.0142 10.0098ZM20.0142 10.0098C18.9092 10.0098 18.0142 10.9048 18.0142 12.0098C18.0142 13.1148 18.9092 14.0098 20.0142 14.0098C21.1192 14.0098 22.0142 13.1148 22.0142 12.0098C22.0142 10.9048 21.1192 10.0098 20.0142 10.0098Z" fill="currentColor"/>
</svg>
