<svg width="24" height="24" viewBox="0 0 24 24" fill="currentColor" xmlns="http://www.w3.org/2000/svg">
<path d="M11.9907 1.95326C11.7287 1.95326 11.4677 2.03927 11.2717 2.23427L6.58471 6.95325L7.99071 8.35925L10.9907 5.39124V15.9532C10.9907 16.5052 11.4387 16.9532 11.9907 16.9532C12.5427 16.9532 12.9907 16.5052 12.9907 15.9532V5.39124L15.9907 8.35925L17.3967 6.95325L12.7097 2.23427C12.5137 2.03927 12.2527 1.95326 11.9907 1.95326ZM3.99072 13.9532C3.43872 13.9532 2.99072 14.4012 2.99072 14.9532V16.9532C2.99072 19.1622 4.78172 20.9532 6.99072 20.9532H16.9907C19.1997 20.9532 20.9907 19.1622 20.9907 16.9532V14.9532C20.9907 14.4012 20.5427 13.9532 19.9907 13.9532C19.4387 13.9532 18.9907 14.4012 18.9907 14.9532V16.9532C18.9907 18.0582 18.0957 18.9532 16.9907 18.9532H6.99072C5.88572 18.9532 4.99072 18.0582 4.99072 16.9532V14.9532C4.99072 14.4012 4.54272 13.9532 3.99072 13.9532Z" fill="currentColor"/>
</svg>
