<svg width="53" height="43" viewBox="0 0 53 43" fill="none" xmlns="http://www.w3.org/2000/svg">
<g clip-path="url(#clip0_599_34973)">
<path d="M27.2737 40.9955C41.9695 40.9955 51.0679 34.081 52.9766 30.1125C53.2645 26.888 50.8086 24.4093 50.8086 24.4093L50.787 24.2343C50.787 24.2343 41.1051 23.2715 27.2738 23.2715C13.4425 23.2715 3.76046 24.2342 3.76046 24.2342L3.73888 24.4092C3.73888 24.4092 1.28292 26.888 1.57083 30.1124C3.47954 34.0809 12.578 40.9955 27.2737 40.9955Z" fill="#93513B"/>
<path d="M52.9757 30.1125C52.5789 35.8289 48.8496 40.5842 37.6436 42.3041C34.7209 42.7558 31.2873 43 27.2727 43C7.86915 43 2.07035 37.3203 1.56982 30.1125C4.80119 34.4136 12.2701 37.3256 27.2727 37.3256C42.2702 37.3256 49.7391 34.4163 52.973 30.1178C52.9757 30.1152 52.9757 30.1125 52.9757 30.1125Z" fill="#E77D0D"/>
<path d="M37.6437 42.3041C34.7209 42.7558 31.2873 43 27.2727 43C7.86915 43 2.07035 37.3203 1.56982 30.1125C4.80119 34.4136 12.2701 37.3256 27.2727 37.3256C42.2702 37.3256 49.7391 34.4163 52.973 30.1178C52.8382 30.4382 47.4984 42.5326 15.019 37.9322C1.69432 35.506 16.4714 44.691 37.6437 42.3041Z" fill="#BC600D"/>
<path d="M44.9863 28.6544L45.6046 28.8836C45.6046 28.8836 37.8113 35.4597 35.0235 39.9891C32.8191 39.1576 31.7602 36.5318 28.3672 35.941C24.9742 35.3503 22.5537 35.5034 20.0251 33.7748C18.0801 34.103 17.1076 33.906 16.0702 33.4903C15.0328 33.0746 13.4552 33.556 12.3315 32.812C11.2076 32.068 9.67324 33.0527 8.50624 32.0242C7.33925 30.9958 5.54545 31.8492 5.63192 29.9017C5.71839 27.9542 28.0923 25.23 28.0923 25.23L44.9863 28.6544Z" fill="#FFD245"/>
<path d="M43.0716 28.8967L43.6598 29.0842C43.6598 29.0842 37.6402 33.5687 34.9879 37.2758C32.8908 36.5953 31.8834 34.4463 28.6554 33.9627C25.4275 33.4792 21.7302 34.5019 19.3247 33.0871C17.4743 33.3558 16.5491 33.1946 15.5623 32.8543C14.5754 32.514 13.0745 32.908 12.0054 32.2992C10.9362 31.6903 9.47651 32.4962 8.36625 31.6545C7.25599 30.8128 5.54955 31.5112 5.63177 29.9174C5.71399 28.3236 26.9994 26.094 26.9994 26.094L43.0716 28.8967Z" fill="#EFBB2B"/>
<path d="M50.6131 25.6906C50.6131 28.0197 48.7562 29.5767 45.7894 30.5326C43.1209 31.3912 39.555 31.7615 35.6364 31.7615C30.7168 31.7615 26.3521 30.8004 23.6213 29.3142C21.7592 28.3033 20.6597 27.0482 20.6597 25.6906C20.6597 24.2491 21.8967 22.9257 23.9688 21.8832C26.7126 20.5021 30.9217 19.6172 35.6364 19.6172C41.5026 19.6172 46.5804 20.9853 49.0389 22.9782C49.6509 23.4718 50.0996 24.0048 50.3563 24.5668L50.3615 24.572C50.3615 24.572 50.3615 24.572 50.3615 24.5747C50.5275 24.937 50.6131 25.3098 50.6131 25.6906Z" fill="#D9F79F"/>
<path d="M50.3617 24.572C50.3617 24.572 50.3617 24.572 50.3617 24.5746C50.2709 24.7374 46.7595 30.9789 32.9368 30.1124C26.596 29.3273 34.2335 33.2398 45.7895 30.5326C43.121 31.3912 39.5551 31.7615 35.6365 31.7615C30.7169 31.7615 26.3523 30.8004 23.6214 29.3142C23.0509 26.8407 23.4606 23.997 23.9689 21.8832C26.7127 20.5021 30.9218 19.6172 35.6365 19.6172C41.5027 19.6172 46.5805 20.9853 49.0391 22.9782L50.3565 24.5668L50.3617 24.572Z" fill="#B3DB65"/>
<path d="M45.9784 24.1639C45.9784 28.5871 41.3049 29.5449 35.54 29.5449C29.775 29.5449 25.1016 27.5175 25.1016 24.1639C25.1016 20.8104 29.775 18.0918 35.54 18.0918C41.305 18.0918 45.9784 20.8104 45.9784 24.1639Z" fill="#97C144"/>
<path d="M46.0756 23.431C46.0756 27.8542 41.4021 28.812 35.6372 28.812C29.8722 28.812 25.1987 26.7846 25.1987 23.431C25.1987 20.0775 29.8721 17.3589 35.6372 17.3589C41.4022 17.3589 46.0756 20.0775 46.0756 23.431Z" fill="#81A528"/>
<path d="M27.2963 28.952L27.2937 28.9546C25.0971 30.4172 22.0706 31.6461 18.6188 32.1345C11.277 33.1691 4.78574 30.4566 4.39156 27.5971C3.99738 24.7376 9.63016 21.5788 16.9746 20.5442C21.6479 19.8852 25.888 20.2422 28.4528 21.3293C29.9181 21.9491 30.8387 22.8051 30.9814 23.8449C31.1915 25.3599 29.7703 27.303 27.2963 28.952Z" fill="#C5F37C"/>
<path d="M27.2937 28.9546C25.0971 30.4172 22.0706 31.6461 18.6188 32.1345C11.277 33.1691 4.78574 30.4566 4.39156 27.5971C3.99738 24.7376 9.63016 21.5788 16.9746 20.5442C21.6479 19.8852 25.888 20.2422 28.4528 21.3293L26.7541 25.9402C26.7541 25.9402 23.5021 29.8737 13.4216 30.1126C8.7199 30.2518 17.9627 34.1669 27.2937 28.9546Z" fill="#B3DB65"/>
<path d="M27.29 24.8213C27.4691 26.1219 22.9795 28.4064 17.119 29.2337C11.2585 30.0609 6.24617 29.1177 6.06706 27.817C5.88796 26.5164 10.4937 24.7914 16.3543 23.9642C22.2148 23.1369 27.1109 23.5207 27.29 24.8213Z" fill="#97C144"/>
<path d="M28.2983 23.7622C28.4774 25.0628 23.9878 27.3473 18.1273 28.1746C12.2668 29.0019 7.25447 28.0586 7.07536 26.7579C6.89626 25.4573 11.502 23.7323 17.3626 22.9051C23.2231 22.0779 28.1192 22.4616 28.2983 23.7622Z" fill="#8BAF31"/>
<path d="M26.755 25.9401C25.0693 27.4079 23.6222 27.3843 23.6222 27.3843C23.6222 27.3843 20.7047 26.8171 14.3509 27.253C8.23394 27.6752 3.65777 27.1433 0.858339 24.5258C0.650387 24.3313 0.535483 24.0534 0.553023 23.7674C0.618321 22.7024 0.941794 21.8285 1.29336 21.1744C1.77572 20.2764 2.31256 19.7932 2.31256 19.7932L6.74204 17.0571L18.5652 21.6076C18.5652 21.6076 20.2405 23.057 22.4915 24.3017C23.7908 25.0237 25.2819 25.6775 26.755 25.9401Z" fill="#EF4E2E"/>
<path d="M18.1104 22.5714C18.1104 22.5714 38.9005 34.3875 51.9971 23.2716C52.1267 21.5211 52.2997 18.4139 49.6198 17.0573C46.94 15.7006 18.1104 22.5714 18.1104 22.5714Z" fill="#EB704F"/>
<path d="M22.4916 24.3017C22.489 24.3017 22.489 24.3043 22.489 24.3043C5.99262 25.6855 1.29346 21.1744 1.29346 21.1744C1.77582 20.2764 2.31266 19.7932 2.31266 19.7932L6.74213 17.0571L18.5653 21.6076C18.5653 21.6076 20.2406 23.057 22.4916 24.3017Z" fill="#932816"/>
<path d="M17.8511 19.289C17.8511 19.289 35.9614 32.1335 52.2997 20.8122C51.3055 8.74211 39.3328 5.32861 39.3328 5.32861L17.8511 19.289Z" fill="#A8351E"/>
<path d="M52.4725 20.3078C52.418 21.752 51.6841 22.6868 51.1499 22.3533C50.6131 22.0198 49.6406 22.6212 49.3164 23.8027C48.9922 24.9843 49.3164 25.5909 48.0689 24.7375C46.8215 23.8841 46.8708 25.1313 45.8283 24.102C44.7883 23.0727 44.8765 22.8837 44.8428 24.2281C44.8117 25.5751 43.9039 24.8845 42.8174 25.9742C41.7308 27.064 41.1654 26.9353 41.181 25.0657C41.1965 23.1961 39.8687 25.7221 39.8687 24.4749C39.8687 23.2276 39.0414 25.428 38.2945 24.8687C37.7966 24.4932 37.5088 23.1882 37.4309 22.7786C37.4413 22.8416 37.4543 22.9309 37.4698 23.0465C37.6644 24.425 37.2909 25.6907 36.3339 25.9533C35.377 26.2185 35.7997 23.9839 34.21 22.7682C32.6228 21.5525 33.4656 25.6067 33.157 24.5669C32.8484 23.5271 32.6721 22.3901 32.6876 23.7529C32.7032 25.1157 32.4283 24.9188 31.0331 24.4908C29.6404 24.0654 30.5974 23.6715 29.1373 24.1626C27.6799 24.6562 28.4241 24.3438 28.2634 23.4247C28.0999 22.5057 27.0471 23.9 26.2535 25.3284C25.4573 26.7568 24.4149 25.3809 23.8054 24.7219C23.1959 24.0602 22.6384 24.8348 21.9563 25.4781C21.2768 26.1188 21.4065 25.1158 20.3536 24.1468C19.8531 23.6899 19.49 23.1096 19.2488 22.6265C19.2436 23.7556 18.4475 24.37 17.6772 23.984C16.5906 23.4378 16.754 24.2623 15.5558 24.2125C14.3551 24.1626 14.6456 24.538 13.9661 23.9C13.2866 23.2645 13.367 24.7534 12.9624 24.3779C12.5553 23.9998 11.811 23.0808 10.9526 24.4094C10.0916 25.7381 10.0112 23.5062 9.3784 22.4585C8.74824 21.4108 8.74824 23.1123 7.62784 22.9154C6.51011 22.7184 6.30003 22.4401 5.22896 24.1968C4.16049 25.9534 3.13869 22.8839 3.59255 21.6524C3.61852 21.5789 3.63921 21.5159 3.65223 21.4555C3.72225 21.1876 3.67553 21.0484 3.54849 21.0117C3.22434 20.9171 2.37889 21.5027 1.59827 22.3534C0.449431 23.6112 0.236751 22.3745 0.15638 21.1587C0.125273 20.6703 0.223801 20.5181 0.423531 20.497C0.610242 20.4734 0.885136 20.5653 1.22745 20.6047C1.42711 20.6283 1.65021 20.6336 1.89132 20.5863C2.63303 20.4393 2.92868 19.8274 2.46447 19.4441C2.24926 19.2655 1.86802 19.1369 1.29227 19.1263C0.693217 19.1159 0.33528 19.0056 0.153776 18.8139C-0.193747 18.4489 0.0940969 17.7846 0.55577 16.939C0.584274 16.8865 0.612846 16.834 0.643953 16.7789C1.40382 15.4003 3.07394 15.3189 3.07394 15.3189C3.07394 15.3189 49.9828 14.3159 51.8138 15.7758C52.2676 16.1408 52.5425 16.5137 52.6955 16.8944C53.1546 18.0365 52.514 19.2233 52.4725 20.3078Z" fill="#5B8F09"/>
<path d="M52.6956 16.8943C52.5971 17.3433 52.4882 17.7871 52.4726 18.2124C52.4181 19.6566 51.6842 20.5914 51.15 20.2579C50.6132 19.9244 49.6407 20.5258 49.3165 21.7074C48.9923 22.8889 49.3165 23.4981 48.069 22.6447C46.8216 21.7914 46.8709 23.0386 45.8284 22.0067C44.7884 20.9774 44.8766 20.7883 44.8429 22.1354C44.8118 23.4798 43.904 22.7918 42.8175 23.8815C41.7309 24.9713 41.1655 24.8426 41.1811 22.973C41.1966 21.1008 39.8688 23.6294 39.8688 22.3822C39.8688 21.1349 39.0415 23.3328 38.2946 22.7761C37.7967 22.4005 37.5089 21.0955 37.431 20.686C37.4414 20.7489 37.4544 20.8382 37.4699 20.9538C37.6645 22.3323 37.291 23.5954 36.334 23.8606C35.3771 24.1232 35.7998 21.8886 34.2101 20.6755C32.6229 19.4598 33.4658 23.5139 33.1571 22.4741C32.8485 21.4344 32.6722 20.2974 32.6877 21.6602C32.7033 23.0203 32.4284 22.8234 31.0332 22.398C29.6405 21.9701 30.5975 21.5762 29.1374 22.0698C27.68 22.5609 28.4242 22.251 28.2635 21.332C28.1 20.413 27.0472 21.8073 26.2536 23.2357C25.4575 24.6615 24.415 23.2882 23.8055 22.6265C23.196 21.9674 22.6385 22.742 21.9564 23.3827C21.2769 24.0261 21.4066 23.0204 20.3537 22.0541C19.8532 21.5945 19.4901 21.0143 19.2489 20.5337C19.2463 20.9092 19.1581 21.2296 19.0103 21.4711C18.9637 21.5499 18.9118 21.6182 18.8547 21.6786V21.6812C18.5487 22.0068 18.1078 22.1066 17.6773 21.8886C16.5907 21.3451 16.7541 22.167 15.5559 22.1197C14.3552 22.0698 14.6457 22.4427 13.9662 21.8073C13.2867 21.1718 13.3671 22.6606 12.9625 22.2825C12.5554 21.9044 11.8111 20.9854 10.9527 22.3167C10.0917 23.6453 10.0113 21.4134 9.3785 20.3657C8.74835 19.3154 8.74835 21.0195 7.62794 20.8226C6.51021 20.6257 6.30013 20.3473 5.22906 22.1014C4.58075 23.1675 3.94792 22.4559 3.65233 21.4555C3.72236 21.1876 3.67563 21.0484 3.54859 21.0117C3.45267 20.4839 3.45267 19.935 3.59265 19.5596C3.93236 18.638 3.29186 18.7824 2.4645 19.4441C2.24929 19.2655 1.86806 19.1369 1.2923 19.1263C0.69325 19.1159 0.335312 19.0056 0.153809 18.8139C0.19533 17.9815 0.890307 18.6878 1.89135 18.4909C2.97798 18.2782 3.10761 17.0651 1.2923 17.031C0.9863 17.0257 0.742514 16.9942 0.555803 16.939C0.584306 16.8865 0.612878 16.834 0.643985 16.7789C1.40385 15.4003 3.07397 15.3189 3.07397 15.3189C3.07397 15.3189 49.9829 14.3159 51.8138 15.7758C52.2677 16.1407 52.5426 16.5136 52.6956 16.8943Z" fill="#486B05"/>
<path d="M52.4726 13.9613C52.4726 14.0847 52.47 14.2055 52.4648 14.3263C52.1121 21.6916 40.9684 22.3192 27.2729 22.3192C13.3568 22.3192 2.07568 21.6706 2.07568 13.9613C2.07568 10.1303 4.8584 6.66425 9.36043 4.14353C11.9771 2.6757 15.1774 1.53089 18.751 0.819243C21.4118 0.288875 24.2827 0 27.2729 0C38.8808 0 48.6526 4.34568 51.5779 10.2616C52.1614 11.438 52.4726 12.6799 52.4726 13.9613Z" fill="#E77D0D"/>
<path d="M32.6271 5.86366C32.352 5.86643 32.1256 5.90819 32.1304 6.39666C32.1346 6.87284 32.5967 7.5224 32.6166 7.54973L32.6436 7.58858L32.6708 7.54931C32.69 7.52156 33.1382 6.8632 33.1338 6.38715C33.1292 5.89841 32.9013 5.86088 32.6271 5.86366Z" fill="#CF6538"/>
<path d="M28.896 7.11609C28.7722 7.05115 28.6505 6.99316 28.5271 6.9944C28.3785 6.99572 28.2534 7.08209 28.1328 7.26691C27.8918 7.63737 28.0185 8.38182 28.0241 8.4129L28.0301 8.44822L28.0664 8.43594C28.1012 8.42463 28.8846 8.15712 29.1251 7.78631C29.3714 7.40684 29.1673 7.25837 28.896 7.11609Z" fill="#CF6538"/>
<path d="M44.2878 12.3948C44.163 12.3295 44.0424 12.2713 43.9185 12.2727C43.7694 12.2744 43.6443 12.3608 43.5241 12.5453C43.2837 12.9156 43.4088 13.6604 43.415 13.6915L43.4213 13.727L43.4587 13.714C43.4911 13.7036 44.2753 13.4354 44.5157 13.0653C44.7623 12.6853 44.5586 12.5364 44.2878 12.3948Z" fill="#CF6538"/>
<path d="M21.0295 11.3286C20.9379 11.3295 20.8373 11.3531 20.7502 11.3748C20.5813 11.4172 20.423 11.4654 20.3472 11.5857C20.2888 11.6779 20.2853 11.8044 20.3379 11.9713C20.4643 12.3838 21.1465 12.8206 21.1748 12.8391L21.207 12.8597L21.223 12.8265C21.2378 12.7978 21.5726 12.1064 21.4457 11.6937C21.3668 11.4394 21.2388 11.3267 21.0295 11.3286Z" fill="#CF6538"/>
<path d="M33.8934 11.5723L33.9104 11.5393C33.9242 11.5101 34.2598 10.8195 34.1321 10.4068C34.0544 10.152 33.9253 10.0395 33.716 10.0413C33.6244 10.0423 33.5237 10.0657 33.4373 10.0877C33.2683 10.1297 33.1093 10.1777 33.0331 10.2982C32.9752 10.3903 32.9721 10.5166 33.0243 10.6839C33.1513 11.0964 33.8325 11.5337 33.8613 11.5518L33.8934 11.5723Z" fill="#CF6538"/>
<path d="M25.2976 12.8972C25.2499 12.8979 25.1997 12.9037 25.1511 12.9108C24.9114 12.9459 24.7181 13.0103 24.7949 13.4376C24.8678 13.8536 25.3657 14.3658 25.3866 14.3876L25.4204 14.4219L25.4406 14.3796C25.4532 14.3532 25.7496 13.7264 25.6757 13.31C25.6239 13.0186 25.5104 12.8954 25.2976 12.8972Z" fill="#CF6538"/>
<path d="M11.2225 9.64297L11.2426 9.60045C11.2551 9.57422 11.5517 8.94722 11.4784 8.5309C11.4264 8.23953 11.3133 8.11597 11.1005 8.11819C11.0519 8.11882 11.0017 8.12458 10.9543 8.13158C10.7134 8.16682 10.5203 8.23086 10.5964 8.6589C10.6696 9.07452 11.1682 9.58692 11.1891 9.60849L11.2225 9.64297Z" fill="#CF6538"/>
<path d="M29.763 4.39371L29.7964 4.42839L29.8163 4.38656C29.8296 4.35964 30.1266 3.73271 30.0522 3.3166C30.0002 3.02509 29.8867 2.90167 29.6745 2.90334C29.6253 2.90424 29.5751 2.91027 29.5281 2.91721C29.2874 2.95232 29.0941 3.01676 29.1709 3.44411C29.2443 3.86008 29.7422 4.3722 29.763 4.39371Z" fill="#CF6538"/>
<path d="M41.7308 7.81839C41.6834 7.81853 41.6325 7.82526 41.5852 7.83164C41.3447 7.8673 41.1517 7.93127 41.2277 8.35924C41.3012 8.7743 41.7992 9.28733 41.8194 9.30869L41.8527 9.34303L41.8736 9.30085C41.8873 9.27394 42.1829 8.64721 42.1098 8.23082C42.0575 7.93938 41.9438 7.81603 41.7308 7.81839Z" fill="#CF6538"/>
<path d="M24.8177 6.00246C24.7655 5.71116 24.6523 5.58739 24.4394 5.58913C24.3915 5.58996 24.3403 5.59621 24.2937 5.6028C24.0533 5.63859 23.8601 5.70221 23.9363 6.13039C24.0096 6.54615 24.5076 7.05862 24.5289 7.07999L24.5617 7.11453L24.5825 7.07222C24.5949 7.04571 24.8913 6.41885 24.8177 6.00246Z" fill="#CF6538"/>
<path d="M18.5131 14.802C18.4015 14.7718 18.3103 14.7574 18.2324 14.7581C18.0004 14.7604 17.9348 14.8985 17.8831 15.052C17.8137 15.2626 17.794 15.4464 18.2551 15.5701C18.3619 15.5992 18.4939 15.6126 18.6475 15.6114C19.0425 15.6073 19.4616 15.5034 19.4659 15.5025L19.5149 15.4903L19.4814 15.4555C19.4603 15.4333 18.9612 14.9214 18.5131 14.802Z" fill="#CF6538"/>
<path d="M39.9823 4.68432C39.8712 4.65407 39.7794 4.63971 39.7014 4.6404C39.4693 4.64276 39.4044 4.78061 39.3529 4.93393C39.2828 5.14469 39.2627 5.32895 39.7243 5.45278C39.831 5.4815 39.9628 5.49565 40.1166 5.49385C40.5119 5.49017 40.9305 5.38632 40.9347 5.38528L40.9841 5.37224L40.9508 5.33776C40.9293 5.31611 40.4303 4.80441 39.9823 4.68432Z" fill="#CF6538"/>
<path d="M21.0244 8.36569L20.9909 8.33086C20.9701 8.30929 20.4703 7.79737 20.0219 7.6777C19.9115 7.64718 19.8192 7.63275 19.7421 7.63358C19.5104 7.63566 19.4446 7.77392 19.3925 7.92724C19.3229 8.13793 19.3031 8.32219 19.765 8.44609C19.8711 8.47467 20.0038 8.48855 20.1573 8.48716C20.5522 8.48328 20.971 8.37928 20.9752 8.37797L21.0244 8.36569Z" fill="#CF6538"/>
<path d="M29.9626 11.8004C29.8511 11.7705 29.7595 11.7563 29.6821 11.7571C29.45 11.7595 29.3848 11.8968 29.3339 12.0501C29.2971 12.1577 29.2696 12.2619 29.3268 12.3571C29.3804 12.4471 29.5007 12.5143 29.7038 12.5695C29.8113 12.5974 29.9426 12.6117 30.0965 12.6102C30.4917 12.6063 30.9101 12.5021 30.915 12.5011L30.9638 12.4887L30.931 12.454C30.9096 12.4321 30.4106 11.9204 29.9626 11.8004Z" fill="#CF6538"/>
<path d="M11.7109 12.3789C11.5994 12.3489 11.5077 12.3345 11.4304 12.3352C11.1983 12.3376 11.1327 12.4755 11.082 12.6284C11.0456 12.7356 11.0182 12.8397 11.0754 12.9357C11.1292 13.0251 11.2493 13.0927 11.453 13.1473C11.5597 13.1758 11.6912 13.1898 11.845 13.1884C12.24 13.1845 12.659 13.0805 12.6632 13.0792L12.7125 13.0671L12.6789 13.0325C12.6577 13.0107 12.1591 12.4987 11.7109 12.3789Z" fill="#CF6538"/>
<path d="M15.6866 10.0326C15.5755 10.0022 15.4844 9.98823 15.4065 9.98879C15.1751 9.99121 15.1091 10.1291 15.0583 10.2823C15.0243 10.3831 14.997 10.4811 15.0425 10.5726C15.0912 10.6709 15.2143 10.7431 15.4289 10.8013C15.5359 10.8299 15.6681 10.8431 15.8209 10.8417C16.2155 10.8379 16.6356 10.7337 16.6394 10.7329L16.6889 10.7207L16.656 10.686C16.6348 10.6637 16.1353 10.1524 15.6866 10.0326Z" fill="#CF6538"/>
<path d="M25.4727 9.93699C25.3615 9.90647 25.2702 9.8919 25.1924 9.89287C24.9604 9.89543 24.8959 10.0331 24.8444 10.1865C24.8082 10.2931 24.7803 10.3976 24.8372 10.4933C24.8907 10.5831 25.0115 10.65 25.2149 10.7048C25.3218 10.7338 25.4529 10.7476 25.6076 10.7455C26.0013 10.742 26.421 10.638 26.4252 10.637L26.4747 10.6246L26.4413 10.5901C26.4201 10.5682 25.9208 10.0567 25.4727 9.93699Z" fill="#CF6538"/>
<path d="M7.57821 10.5113C7.4668 10.4812 7.3752 10.4672 7.29757 10.4681C7.06604 10.4704 7.00027 10.6077 6.94901 10.7609C6.91297 10.8681 6.88529 10.9722 6.94251 11.0678C6.99636 11.1577 7.11654 11.2256 7.32024 11.2798C7.42679 11.3085 7.55889 11.3219 7.7123 11.3207C8.1071 11.3167 8.5265 11.2129 8.53061 11.2115L8.57981 11.1994L8.54617 11.1649C8.5252 11.1431 8.02618 10.6313 7.57821 10.5113Z" fill="#CF6538"/>
<path d="M45.1911 8.15261C45.0801 8.12257 44.9888 8.10814 44.9111 8.10918C44.6788 8.1112 44.6134 8.24932 44.5625 8.40201C44.5259 8.50961 44.4989 8.61374 44.5557 8.70906C44.6094 8.79932 44.7295 8.86654 44.9337 8.92121C45.0403 8.94979 45.1725 8.96339 45.3258 8.96186C45.7201 8.95819 46.1391 8.85433 46.1439 8.85315L46.1928 8.84088L46.1594 8.80633C46.1387 8.78427 45.6393 8.27235 45.1911 8.15261Z" fill="#CF6538"/>
<path d="M19.7247 4.13519C19.8303 4.16412 19.962 4.17806 20.1171 4.17661C20.511 4.17272 20.9299 4.06901 20.9345 4.06741L20.9836 4.05492L20.9501 4.02024C20.9294 3.99873 20.4298 3.48716 19.9821 3.36673C19.8708 3.33711 19.7787 3.32282 19.701 3.32351C19.4694 3.32573 19.4048 3.46358 19.353 3.61683C19.3166 3.72359 19.2892 3.82758 19.3463 3.92353C19.3998 4.01344 19.5197 4.08066 19.7247 4.13519Z" fill="#CF6538"/>
<path d="M34.2526 14.6477C34.141 14.6175 34.0493 14.6033 33.9719 14.604C33.7402 14.6061 33.6752 14.7438 33.6242 14.897C33.5539 15.1076 33.5328 15.292 33.9948 15.4166C34.101 15.4453 34.2325 15.4589 34.3859 15.4574C34.782 15.4531 35.2008 15.3486 35.2054 15.3483L35.2546 15.3359L35.221 15.301C35.1996 15.2793 34.7015 14.7685 34.2526 14.6477Z" fill="#CF6538"/>
<path d="M50.948 13.2038C50.9266 13.1823 50.4285 12.6713 49.9791 12.5505C49.8679 12.5202 49.7767 12.5063 49.6985 12.5074C49.4669 12.5093 49.4021 12.6472 49.3513 12.8001C49.2808 13.0108 49.2602 13.1952 49.7219 13.3198C49.8282 13.3477 49.9604 13.3613 50.1138 13.3599C50.5088 13.3562 50.9278 13.2519 50.9319 13.2512L50.9813 13.2384L50.948 13.2038Z" fill="#CF6538"/>
<path d="M24.7296 4.08648C24.8366 4.11472 24.9684 4.12887 25.1213 4.12762C25.517 4.12353 25.9364 4.01905 25.9401 4.01787L25.9895 4.00594L25.956 3.97111C25.9357 3.94954 25.4367 3.43804 24.9875 3.31775C24.8765 3.28757 24.7846 3.273 24.7067 3.27397C24.4752 3.27619 24.4102 3.41411 24.3589 3.56659C24.2886 3.77735 24.2684 3.96237 24.7296 4.08648Z" fill="#CF6538"/>
<path d="M15.3036 7.07207L15.3494 7.05064C15.3747 7.03884 15.9783 6.75371 16.1917 6.42648C16.2887 6.2769 16.3217 6.16521 16.296 6.07551C16.2675 5.97998 16.1777 5.92698 16.0806 5.87641C16.0055 5.83735 15.9255 5.79905 15.8413 5.79982C15.7188 5.8012 15.6086 5.88411 15.4933 6.06087C15.2805 6.38825 15.3011 7.00055 15.3015 7.02636L15.3036 7.07207Z" fill="#CF6538"/>
<path d="M40.0031 10.9918C39.9281 10.9525 39.8477 10.9145 39.763 10.9153C39.6411 10.9163 39.5304 10.9995 39.4155 11.1759C39.203 11.5033 39.2228 12.1158 39.2242 12.1413L39.2261 12.1871L39.2713 12.1663C39.2968 12.1543 39.9006 11.869 40.1142 11.5416C40.2113 11.3922 40.2431 11.2806 40.2176 11.1912C40.1895 11.0957 40.1001 11.0424 40.0031 10.9918Z" fill="#CF6538"/>
<path d="M35.3696 3.64848C35.2953 3.60935 35.2152 3.57085 35.1305 3.57154C35.0081 3.57272 34.8968 3.65576 34.7821 3.83267C34.5698 4.15991 34.5898 4.77207 34.5908 4.79794L34.5923 4.84408L34.6378 4.82292C34.6628 4.81099 35.2676 4.52544 35.4811 4.19772C35.5782 4.04835 35.6112 3.93666 35.5845 3.84731C35.5562 3.75199 35.4672 3.69891 35.3696 3.64848Z" fill="#CF6538"/>
<path d="M37.5021 7.87908C37.4269 7.83982 37.347 7.80201 37.2628 7.80249C37.1403 7.80374 37.0297 7.88644 36.9143 8.0632C36.7016 8.39072 36.7222 9.00302 36.7231 9.02883L36.7251 9.07475L36.7706 9.05338C36.7957 9.0418 37.3997 8.75625 37.6131 8.42895C37.7104 8.27882 37.743 8.16754 37.7169 8.07819C37.6889 7.98231 37.5987 7.92917 37.5021 7.87908Z" fill="#CF6538"/>
<path d="M32.6298 5.7262C32.3552 5.72877 32.1283 5.77067 32.1329 6.25969C32.138 6.73546 32.6004 7.38439 32.6187 7.41207L32.6468 7.45064L32.6738 7.41144C32.6936 7.38328 33.1416 6.72568 33.1378 6.24949C33.1326 5.76061 32.9041 5.72349 32.6298 5.7262Z" fill="#F7D5AD"/>
<path d="M28.8989 6.97838C28.7746 6.91359 28.6534 6.85524 28.5299 6.85621C28.3808 6.85781 28.2563 6.94439 28.1357 7.12906C27.8953 7.49952 28.0211 8.24453 28.0263 8.27603L28.0331 8.31065L28.0693 8.29816C28.1027 8.28699 28.8873 8.019 29.1272 7.64909C29.3747 7.26871 29.1696 7.12046 28.8989 6.97838Z" fill="#F7D5AD"/>
<path d="M44.2903 12.2574C44.166 12.1926 44.0446 12.134 43.9211 12.135C43.7725 12.1366 43.6474 12.2231 43.5274 12.4079C43.2861 12.7776 43.4121 13.523 43.4178 13.5543L43.4243 13.5896L43.461 13.5768C43.4947 13.5657 44.2785 13.2977 44.5187 12.9273C44.7654 12.5475 44.5617 12.3987 44.2903 12.2574Z" fill="#F7D5AD"/>
<path d="M21.0325 11.1907C20.9409 11.1916 20.8398 11.2153 20.7527 11.2371C20.5843 11.2793 20.426 11.3269 20.3505 11.4472C20.2916 11.5401 20.2884 11.6663 20.3402 11.8332C20.4674 12.246 21.149 12.683 21.1777 12.701L21.21 12.7219L21.2257 12.689C21.2401 12.6596 21.5757 11.9689 21.4486 11.5557C21.3702 11.3011 21.2416 11.1891 21.0325 11.1907Z" fill="#F7D5AD"/>
<path d="M33.8971 11.4344L33.9123 11.4018C33.9268 11.3725 34.2616 10.6814 34.1356 10.2685C34.0563 10.0141 33.9282 9.90133 33.719 9.90335C33.6273 9.90397 33.5269 9.92791 33.4396 9.94941C33.2703 9.99187 33.112 10.0397 33.0367 10.1602C32.9779 10.2528 32.9753 10.3789 33.0267 10.5458C33.1545 10.9586 33.8355 11.3955 33.8644 11.414L33.8971 11.4344Z" fill="#F7D5AD"/>
<path d="M25.3008 12.7591C25.2522 12.7596 25.2022 12.7661 25.1544 12.7724C24.9137 12.8078 24.7204 12.8722 24.7974 13.3C24.8704 13.7156 25.368 14.2277 25.3892 14.2491L25.4229 14.2841L25.4425 14.2418C25.456 14.2152 25.7523 13.5881 25.6787 13.1718C25.6268 12.8809 25.5137 12.7571 25.3008 12.7591Z" fill="#F7D5AD"/>
<path d="M11.225 9.50524L11.2452 9.46292C11.2582 9.43649 11.5539 8.80928 11.4806 8.39324C11.4292 8.10159 11.3154 7.9781 11.1029 7.98025C11.0543 7.98067 11.0037 7.98712 10.9567 7.99364C10.7158 8.02888 10.5233 8.09333 10.5994 8.5213C10.6726 8.93686 11.1696 9.44884 11.1916 9.47028L11.225 9.50524Z" fill="#F7D5AD"/>
<path d="M29.7657 4.25627L29.7994 4.2904L29.8203 4.24822C29.8321 4.22193 30.1293 3.5952 30.0553 3.17909C30.0032 2.88703 29.8904 2.76368 29.6776 2.7659C29.629 2.76638 29.5783 2.77263 29.5313 2.77936C29.2906 2.81467 29.0971 2.8787 29.1737 3.30681C29.2475 3.72188 29.7444 4.23504 29.7657 4.25627Z" fill="#F7D5AD"/>
<path d="M41.7339 7.6802C41.6863 7.68103 41.6362 7.68721 41.5881 7.69415C41.3475 7.7296 41.155 7.79342 41.2305 8.22146C41.3042 8.63688 41.8021 9.14955 41.8232 9.1712L41.8568 9.20554L41.8773 9.16336C41.8893 9.13699 42.1867 8.50992 42.1128 8.09347C42.0607 7.80147 41.9475 7.67812 41.7339 7.6802Z" fill="#F7D5AD"/>
<path d="M24.8208 5.86506C24.7682 5.57306 24.6554 5.44978 24.442 5.45193C24.3939 5.45228 24.3435 5.45845 24.2962 5.46525C24.0559 5.50022 23.8632 5.56453 23.9392 5.99264C24.0126 6.40819 24.5093 6.92087 24.531 6.94182L24.5647 6.97706L24.5848 6.93453C24.5976 6.90803 24.894 6.28082 24.8208 5.86506Z" fill="#F7D5AD"/>
<path d="M18.5165 14.6642C18.4049 14.6339 18.3136 14.6196 18.2354 14.6204C18.0036 14.6225 17.9377 14.7605 17.8863 14.9137C17.8165 15.1244 17.7968 15.3088 18.2579 15.4322C18.3647 15.4613 18.4969 15.4749 18.6507 15.4736C19.0459 15.4695 19.4649 15.3655 19.4685 15.3642L19.5181 15.3521L19.4846 15.3173C19.4633 15.2958 18.9641 14.7839 18.5165 14.6642Z" fill="#F7D5AD"/>
<path d="M39.9858 4.54628C39.8738 4.51652 39.7827 4.50244 39.7048 4.5032C39.4726 4.50528 39.4071 4.64341 39.3556 4.79659C39.2858 5.00693 39.2658 5.19133 39.7274 5.31523C39.8341 5.34395 39.9658 5.35776 40.1196 5.35616C40.5148 5.35207 40.9335 5.24863 40.9376 5.24724L40.9872 5.2351L40.9534 5.20042C40.9325 5.17842 40.4333 4.667 39.9858 4.54628Z" fill="#F7D5AD"/>
<path d="M21.0276 8.22794L20.9942 8.19339C20.9727 8.17154 20.4735 7.65942 20.0254 7.53933C19.9148 7.50908 19.8223 7.49541 19.7444 7.49639C19.5132 7.49812 19.4476 7.63583 19.3957 7.78956C19.3267 8.00018 19.3062 8.18486 19.7676 8.30814C19.8739 8.3372 20.0064 8.35059 20.1603 8.34893C20.5551 8.34525 20.9747 8.24119 20.9784 8.24022L21.0276 8.22794Z" fill="#F7D5AD"/>
<path d="M29.966 11.6623C29.8543 11.6329 29.7629 11.6183 29.6854 11.6189C29.4534 11.6213 29.3885 11.7594 29.3361 11.9126C29.301 12.0196 29.273 12.124 29.3298 12.2195C29.384 12.3093 29.5041 12.3768 29.7076 12.4309C29.8145 12.46 29.9466 12.4736 30.1004 12.4719C30.4947 12.4685 30.9138 12.3644 30.9181 12.3635L30.9674 12.3509L30.9329 12.3165C30.9129 12.2943 30.4139 11.7828 29.966 11.6623Z" fill="#F7D5AD"/>
<path d="M11.7139 12.241C11.6023 12.2109 11.5109 12.1966 11.4331 12.1976C11.2014 12.1997 11.1363 12.3375 11.0848 12.4909C11.0486 12.5978 11.0209 12.702 11.0786 12.7976C11.1324 12.8877 11.2516 12.9553 11.4561 13.0094C11.5626 13.0383 11.6945 13.0524 11.8482 13.0507C12.243 13.0468 12.662 12.9429 12.6661 12.9415L12.7156 12.9291L12.682 12.8943C12.6606 12.873 12.162 12.3611 11.7139 12.241Z" fill="#F7D5AD"/>
<path d="M15.6897 9.89473C15.5787 9.86441 15.4869 9.85054 15.4096 9.85109C15.1775 9.85352 15.1123 9.99102 15.0612 10.1446C15.0271 10.2457 15 10.3436 15.0455 10.435C15.0938 10.5337 15.2161 10.6055 15.4318 10.6635C15.5384 10.6918 15.6702 10.706 15.8236 10.7046C16.2188 10.7006 16.6382 10.5963 16.6425 10.5949L16.6918 10.5828L16.6584 10.5481C16.6373 10.5262 16.1384 10.0147 15.6897 9.89473Z" fill="#F7D5AD"/>
<path d="M25.4764 9.79896C25.3647 9.76878 25.2731 9.7547 25.1954 9.7554C24.964 9.75741 24.8986 9.89553 24.8472 10.0485C24.8111 10.1559 24.7831 10.2602 24.8404 10.3556C24.894 10.4456 25.014 10.5126 25.2185 10.5678C25.3246 10.5963 25.457 10.6094 25.6105 10.6081C26.005 10.6041 26.4243 10.5005 26.4284 10.4991L26.4779 10.4868L26.444 10.4525C26.4236 10.4303 25.9241 9.91884 25.4764 9.79896Z" fill="#F7D5AD"/>
<path d="M7.58085 10.3733C7.46958 10.3433 7.37817 10.3293 7.30061 10.3301C7.06875 10.3323 7.00345 10.47 6.95158 10.6235C6.91588 10.7308 6.88834 10.8349 6.94535 10.9303C6.99913 11.0203 7.11924 11.0876 7.32329 11.1421C7.42956 11.1706 7.56132 11.1846 7.71501 11.1832C8.10988 11.1792 8.52859 11.0753 8.53318 11.074L8.58258 11.0612L8.54935 11.0268C8.52797 11.0052 8.02923 10.4935 7.58085 10.3733Z" fill="#F7D5AD"/>
<path d="M45.194 8.01506C45.0829 7.98488 44.9916 7.97045 44.9136 7.97149C44.6817 7.97357 44.6171 8.11093 44.5649 8.26466C44.5287 8.37178 44.5017 8.47605 44.559 8.57123C44.6121 8.66114 44.7328 8.7285 44.937 8.78303C45.0427 8.8121 45.1754 8.82583 45.3287 8.82417C45.723 8.82049 46.1425 8.71643 46.1464 8.71518L46.1961 8.70269L46.1627 8.66815C46.1418 8.64671 45.6426 8.13466 45.194 8.01506Z" fill="#F7D5AD"/>
<path d="M19.7263 3.99789C19.8329 4.02627 19.9645 4.04007 20.1185 4.03868C20.5137 4.03473 20.9328 3.93088 20.9365 3.9297L20.9862 3.91721L20.9522 3.88259C20.931 3.86136 20.4319 3.3498 19.9847 3.22888C19.8739 3.19918 19.7814 3.18468 19.7035 3.18559C19.472 3.18795 19.4069 3.32551 19.355 3.47925C19.3191 3.58581 19.2918 3.6898 19.3484 3.78609C19.4023 3.87538 19.5223 3.94288 19.7263 3.99789Z" fill="#F7D5AD"/>
<path d="M34.2555 14.51C34.144 14.48 34.0522 14.4656 33.9744 14.4666C33.7427 14.4687 33.6775 14.6062 33.6271 14.7593C33.5568 14.9696 33.5361 15.1538 33.9976 15.2787C34.1036 15.3072 34.2357 15.3208 34.3891 15.3193C34.7844 15.3155 35.203 15.2116 35.2086 15.21L35.2574 15.1979L35.2236 15.1636C35.2025 15.1416 34.7045 14.6309 34.2555 14.51Z" fill="#F7D5AD"/>
<path d="M50.9505 13.0664C50.9295 13.0444 50.432 12.5336 49.9816 12.4134C49.8709 12.3828 49.7796 12.3688 49.7013 12.3694C49.4697 12.3716 49.405 12.5093 49.3541 12.6622C49.2838 12.8727 49.2635 13.0571 49.7243 13.1821C49.8312 13.2102 49.9629 13.2241 50.1158 13.2228C50.5113 13.2188 50.9304 13.1143 50.9348 13.1134L50.9844 13.1008L50.9505 13.0664Z" fill="#F7D5AD"/>
<path d="M24.7319 3.9491C24.8383 3.97713 24.9706 3.99107 25.1238 3.98934C25.5197 3.98545 25.9385 3.88112 25.9428 3.88014L25.992 3.86835L25.9592 3.83332C25.9382 3.81153 25.4392 3.30087 24.9903 3.18016C24.8788 3.15012 24.7869 3.13555 24.709 3.13652C24.4775 3.13888 24.4124 3.27631 24.3613 3.42942C24.2911 3.64004 24.2709 3.82409 24.7319 3.9491Z" fill="#F7D5AD"/>
<path d="M15.3055 6.93424L15.3516 6.91287C15.3769 6.90114 15.9805 6.61595 16.1948 6.28815C16.2918 6.13858 16.3244 6.0273 16.2977 5.93795C16.2698 5.84242 16.1804 5.78914 16.0833 5.7385C16.0082 5.69951 15.9277 5.66149 15.8435 5.66212C15.721 5.66337 15.6106 5.74606 15.4961 5.9229C15.2827 6.25062 15.3032 6.86278 15.3042 6.88859L15.3055 6.93424Z" fill="#F7D5AD"/>
<path d="M40.0054 10.8539C39.9303 10.8149 39.8511 10.7766 39.7664 10.7774C39.6435 10.7786 39.5328 10.8616 39.4177 11.0383C39.206 11.3657 39.2261 11.9782 39.2269 12.0036L39.2288 12.0498L39.2743 12.0284C39.3001 12.0171 39.9038 11.7313 40.117 11.4037C40.2138 11.2543 40.2467 11.1426 40.2208 11.053C40.1924 10.9578 40.1029 10.9044 40.0054 10.8539Z" fill="#F7D5AD"/>
<path d="M35.3728 3.51053C35.2975 3.47161 35.218 3.43317 35.1324 3.43435C35.0104 3.43519 34.9002 3.51795 34.7847 3.69506C34.5729 4.02216 34.5929 4.63439 34.5936 4.6602L34.596 4.70578L34.6411 4.68483C34.6661 4.67303 35.2706 4.38776 35.4837 4.06053C35.581 3.91047 35.6137 3.7994 35.5872 3.70977C35.5588 3.61445 35.47 3.56124 35.3728 3.51053Z" fill="#F7D5AD"/>
<path d="M37.5051 7.74094C37.4301 7.70188 37.3501 7.66387 37.2654 7.66456C37.1434 7.66581 37.0328 7.7485 36.9175 7.92541C36.7049 8.25313 36.7254 8.86522 36.7258 8.89103L36.7287 8.9364L36.7734 8.91566C36.7993 8.90331 37.4029 8.61818 37.6156 8.2908C37.7127 8.1413 37.7457 8.02975 37.7197 7.94053C37.6911 7.84486 37.6013 7.79138 37.5051 7.74094Z" fill="#F7D5AD"/>
<path d="M29.3229 9.56312C29.0478 9.56589 28.8214 9.60766 28.8262 10.0961C28.8304 10.5723 29.2925 11.2219 29.3124 11.2492L29.3394 11.288L29.3666 11.2488C29.3858 11.221 29.834 10.5627 29.8296 10.0866C29.825 9.5978 29.5971 9.56034 29.3229 9.56312Z" fill="#CF6538"/>
<path d="M25.5918 10.8156C25.468 10.7506 25.3463 10.6926 25.2229 10.6939C25.0743 10.6952 24.9492 10.7816 24.8286 10.9664C24.5876 11.3368 24.7143 12.0813 24.7199 12.1124L24.7259 12.1477L24.7622 12.1354C24.797 12.1241 25.5803 11.8566 25.8209 11.4858C26.0672 11.1062 25.863 10.9578 25.5918 10.8156Z" fill="#CF6538"/>
<path d="M40.9836 16.0942C40.8588 16.029 40.7382 15.9707 40.6143 15.9722C40.4652 15.9739 40.3401 16.0602 40.2199 16.2448C39.9795 16.6151 40.1046 17.36 40.1108 17.391L40.1171 17.4265L40.1545 17.4135C40.1869 17.4031 40.9711 17.1349 41.2115 16.7648C41.4581 16.3848 41.2544 16.2358 40.9836 16.0942Z" fill="#CF6538"/>
<path d="M17.7253 15.0281C17.6337 15.0291 17.533 15.0525 17.446 15.0742C17.2771 15.1166 17.1188 15.1648 17.043 15.2851C16.9846 15.3774 16.9811 15.5039 17.0337 15.6708C17.1601 16.0832 17.8423 16.5201 17.8706 16.5386L17.9028 16.5591L17.9188 16.526C17.9336 16.4972 18.2684 15.8059 18.1415 15.3931C18.0626 15.1389 17.9346 15.0262 17.7253 15.0281Z" fill="#CF6538"/>
<path d="M30.5892 15.2718L30.6062 15.2387C30.62 15.2096 30.9556 14.519 30.8279 14.1063C30.7502 13.8515 30.6211 13.7389 30.4118 13.7407C30.3202 13.7417 30.2195 13.7652 30.1331 13.7872C29.9641 13.8292 29.8051 13.8771 29.7289 13.9976C29.671 14.0898 29.6679 14.216 29.7201 14.3833C29.8471 14.7958 30.5283 15.2331 30.5571 15.2512L30.5892 15.2718Z" fill="#CF6538"/>
<path d="M21.9934 16.5965C21.9457 16.5971 21.8955 16.6029 21.8469 16.61C21.6072 16.6451 21.4139 16.7095 21.4907 17.1368C21.5636 17.5528 22.0615 18.065 22.0824 18.0868L22.1162 18.1211L22.1364 18.0788C22.149 18.0524 22.4454 17.4256 22.3715 17.0092C22.3197 16.7179 22.2061 16.5947 21.9934 16.5965Z" fill="#CF6538"/>
<path d="M7.91831 13.3424L7.93839 13.2999C7.95086 13.2737 8.24747 12.6467 8.17416 12.2304C8.12215 11.939 8.0091 11.8154 7.79628 11.8177C7.7477 11.8183 7.69755 11.824 7.65006 11.831C7.40922 11.8663 7.21614 11.9303 7.2922 12.3584C7.36544 12.774 7.86398 13.2864 7.88494 13.308L7.91831 13.3424Z" fill="#CF6538"/>
<path d="M26.4588 8.09317L26.4922 8.12786L26.5121 8.08602C26.5254 8.05911 26.8224 7.43217 26.748 7.01606C26.696 6.72455 26.5825 6.60113 26.3703 6.6028C26.3211 6.6037 26.2709 6.60981 26.2239 6.61667C25.9832 6.65178 25.7899 6.71623 25.8667 7.14357C25.9401 7.55954 26.4379 8.07166 26.4588 8.09317Z" fill="#CF6538"/>
<path d="M38.4266 11.5179C38.3792 11.518 38.3283 11.5247 38.281 11.5311C38.0405 11.5668 37.8475 11.6307 37.9235 12.0587C37.997 12.4738 38.495 12.9868 38.5152 13.0082L38.5485 13.0425L38.5694 13.0003C38.5831 12.9734 38.8787 12.3467 38.8056 11.9303C38.7533 11.6389 38.6396 11.5156 38.4266 11.5179Z" fill="#CF6538"/>
<path d="M21.5135 9.70193C21.4613 9.41062 21.3481 9.28686 21.1352 9.28859C21.0873 9.28942 21.0361 9.29567 20.9895 9.30226C20.7491 9.33806 20.5559 9.40167 20.6321 9.82985C20.7054 10.2456 21.2034 10.7581 21.2247 10.7794L21.2575 10.814L21.2783 10.7717C21.2907 10.7452 21.5871 10.1182 21.5135 9.70193Z" fill="#CF6538"/>
<path d="M15.2089 18.5015C15.0973 18.4713 15.0061 18.4569 14.9282 18.4575C14.6962 18.4598 14.6306 18.598 14.5789 18.7515C14.5095 18.962 14.4898 19.1459 14.9509 19.2696C15.0577 19.2987 15.1896 19.312 15.3433 19.3108C15.7383 19.3068 16.1574 19.2029 16.1618 19.2019L16.2107 19.1898L16.1772 19.155C16.1561 19.1328 15.657 18.6208 15.2089 18.5015Z" fill="#CF6538"/>
<path d="M36.6781 8.38378C36.567 8.35353 36.4752 8.33917 36.3972 8.33987C36.1651 8.34223 36.1002 8.48007 36.0487 8.63339C35.9786 8.84415 35.9585 9.02841 36.4201 9.15224C36.5268 9.18096 36.6586 9.19512 36.8124 9.19331C37.2077 9.18963 37.6262 9.08578 37.6305 9.08474L37.6799 9.0717L37.6466 9.03722C37.6252 9.0155 37.1262 8.50387 36.6781 8.38378Z" fill="#CF6538"/>
<path d="M17.7202 12.0651L17.6867 12.0303C17.6659 12.0087 17.1661 11.4968 16.7177 11.3772C16.6073 11.3466 16.515 11.3322 16.4379 11.333C16.2062 11.3352 16.1404 11.4734 16.0883 11.6266C16.0187 11.8373 15.9989 12.0216 16.4608 12.1455C16.5669 12.1741 16.6996 12.1879 16.8531 12.1866C17.248 12.1827 17.6668 12.0787 17.671 12.0774L17.7202 12.0651Z" fill="#CF6538"/>
<path d="M26.6584 15.4999C26.5469 15.47 26.4553 15.4558 26.3779 15.4566C26.1458 15.4589 26.0806 15.5962 26.0297 15.7495C25.9929 15.8573 25.9654 15.9613 26.0226 16.0566C26.0762 16.1466 26.1965 16.2138 26.3996 16.2689C26.5071 16.2969 26.6384 16.3111 26.7923 16.3097C27.1875 16.3057 27.6059 16.2016 27.6108 16.2006L27.6596 16.1881L27.6268 16.1536C27.6054 16.1315 27.1064 15.6198 26.6584 15.4999Z" fill="#CF6538"/>
<path d="M8.40675 16.0784C8.2952 16.0484 8.20352 16.0339 8.12617 16.0347C7.8941 16.0371 7.82846 16.175 7.77775 16.3279C7.74144 16.4351 7.71396 16.5391 7.77118 16.6352C7.82503 16.7246 7.94514 16.7921 8.14885 16.8468C8.25546 16.8752 8.38701 16.8893 8.54084 16.8878C8.93577 16.8839 9.35483 16.7799 9.35901 16.7786L9.40827 16.7665L9.3747 16.7319C9.35353 16.7102 8.85485 16.1982 8.40675 16.0784Z" fill="#CF6538"/>
<path d="M12.3824 13.7321C12.2713 13.7017 12.1802 13.6877 12.1023 13.6882C11.8709 13.6907 11.8049 13.8285 11.7541 13.9818C11.7201 14.0826 11.6928 14.1805 11.7383 14.2721C11.787 14.3704 11.9101 14.4426 12.1247 14.5008C12.2317 14.5293 12.3639 14.5426 12.5167 14.5411C12.9113 14.5373 13.3314 14.4332 13.3352 14.4324L13.3847 14.4201L13.3518 14.3855C13.3306 14.3632 12.8312 13.852 12.3824 13.7321Z" fill="#CF6538"/>
<path d="M22.1685 13.6365C22.0573 13.6059 21.966 13.5914 21.8882 13.5923C21.6562 13.5949 21.5917 13.7326 21.5402 13.886C21.504 13.9926 21.4761 14.0971 21.533 14.1928C21.5865 14.2825 21.7073 14.3495 21.9107 14.4042C22.0176 14.4333 22.1487 14.4471 22.3034 14.4451C22.6971 14.4415 23.1168 14.3376 23.121 14.3365L23.1705 14.3241L23.1371 14.2896C23.1159 14.2676 22.6166 13.7561 22.1685 13.6365Z" fill="#CF6538"/>
<path d="M4.27401 14.2108C4.1626 14.1807 4.071 14.1667 3.99337 14.1675C3.76184 14.1698 3.69607 14.3072 3.64482 14.4603C3.60877 14.5675 3.58109 14.6717 3.63831 14.7672C3.69216 14.8571 3.81234 14.925 4.01604 14.9792C4.12259 15.0078 4.25462 15.0213 4.4081 15.0201C4.8029 15.0161 5.2223 14.9123 5.22641 14.9109L5.27561 14.8988L5.24197 14.8643C5.221 14.8427 4.72198 14.3308 4.27401 14.2108Z" fill="#CF6538"/>
<path d="M41.8869 11.8521C41.7759 11.822 41.6846 11.8076 41.6068 11.8086C41.3745 11.8107 41.3092 11.9488 41.2583 12.1015C41.2217 12.2091 41.1947 12.3132 41.2514 12.4085C41.3051 12.4988 41.4252 12.566 41.6294 12.6207C41.736 12.6493 41.8682 12.6629 42.0216 12.6614C42.4158 12.6577 42.8349 12.5539 42.8397 12.5527L42.8886 12.5404L42.8552 12.5059C42.8345 12.4837 42.335 11.9718 41.8869 11.8521Z" fill="#CF6538"/>
<path d="M16.4201 7.83465C16.5257 7.86358 16.6574 7.87753 16.8125 7.87607C17.2063 7.87219 17.6252 7.76847 17.6298 7.76688L17.6789 7.75439L17.6454 7.7197C17.6247 7.69819 17.1251 7.18663 16.6774 7.06619C16.5661 7.03657 16.474 7.02228 16.3964 7.02297C16.1648 7.02519 16.1001 7.16304 16.0483 7.31629C16.0119 7.42306 15.9846 7.52705 16.0416 7.62299C16.0952 7.71283 16.2151 7.78013 16.4201 7.83465Z" fill="#CF6538"/>
<path d="M30.9484 18.3471C30.8368 18.317 30.7451 18.3027 30.6677 18.3035C30.436 18.3056 30.371 18.4433 30.32 18.5965C30.2497 18.807 30.2286 18.9914 30.6906 19.1161C30.7968 19.1448 30.9283 19.1583 31.0817 19.1569C31.4778 19.1526 31.8966 19.0481 31.9012 19.0477L31.9503 19.0354L31.9168 19.0004C31.8954 18.9788 31.3973 18.4679 30.9484 18.3471Z" fill="#CF6538"/>
<path d="M47.6438 16.9035C47.6224 16.8819 47.1243 16.371 46.6749 16.2502C46.5637 16.2199 46.4725 16.206 46.3943 16.2071C46.1627 16.209 46.0979 16.3469 46.0471 16.4999C45.9766 16.7105 45.956 16.8949 46.4177 17.0195C46.524 17.0474 46.6562 17.061 46.8096 17.0596C47.2046 17.0559 47.6236 16.9516 47.6277 16.9509L47.6771 16.9381L47.6438 16.9035Z" fill="#CF6538"/>
<path d="M21.4254 7.78595C21.5324 7.81418 21.6642 7.82834 21.8171 7.82709C22.2128 7.82299 22.6322 7.71852 22.6359 7.71734L22.6853 7.7054L22.6518 7.67058C22.6315 7.649 22.1326 7.1375 21.6833 7.01721C21.5723 6.98703 21.4804 6.97246 21.4025 6.97343C21.171 6.97565 21.106 7.11357 21.0547 7.26606C20.9844 7.47688 20.9642 7.66184 21.4254 7.78595Z" fill="#CF6538"/>
<path d="M11.9994 10.7713L12.0452 10.7499C12.0705 10.7381 12.6741 10.4529 12.8875 10.1257C12.9845 9.97612 13.0175 9.86443 12.9918 9.77473C12.9633 9.6792 12.8735 9.6262 12.7764 9.57562C12.7013 9.53657 12.6213 9.49827 12.5371 9.49903C12.4146 9.50042 12.3044 9.58332 12.1891 9.76009C11.9763 10.0875 11.9969 10.6998 11.9973 10.7256L11.9994 10.7713Z" fill="#CF6538"/>
<path d="M36.6989 14.6913C36.6239 14.6519 36.5434 14.6139 36.4588 14.6148C36.3369 14.6158 36.2262 14.699 36.1113 14.8754C35.8988 15.2028 35.9186 15.8152 35.92 15.8408L35.9219 15.8866L35.9671 15.8658C35.9926 15.8538 36.5964 15.5684 36.81 15.2411C36.9071 15.0916 36.9389 14.98 36.9134 14.8907C36.8853 14.7951 36.7959 14.7419 36.6989 14.6913Z" fill="#CF6538"/>
<path d="M32.0654 7.34794C31.9911 7.30881 31.911 7.27031 31.8263 7.27101C31.7039 7.27218 31.5926 7.35523 31.4779 7.53213C31.2656 7.85937 31.2856 8.47153 31.2866 8.49741L31.2881 8.54354L31.3336 8.52238C31.3586 8.51045 31.9634 8.22497 32.1769 7.89718C32.274 7.74782 32.307 7.63612 32.2803 7.54677C32.252 7.45145 32.163 7.39845 32.0654 7.34794Z" fill="#CF6538"/>
<path d="M34.1979 11.5784C34.1227 11.5391 34.0428 11.5012 33.9586 11.5017C33.8361 11.503 33.7255 11.5857 33.6101 11.7624C33.3974 12.0899 33.418 12.7022 33.4189 12.728L33.4209 12.774L33.4664 12.7526C33.4915 12.741 34.0955 12.4555 34.3089 12.1282C34.4062 11.978 34.4388 11.8668 34.4127 11.7774C34.3846 11.6817 34.2944 11.6285 34.1979 11.5784Z" fill="#CF6538"/>
<path d="M29.3256 9.42566C29.051 9.42822 28.8241 9.47013 28.8287 9.95915C28.8338 10.4349 29.2962 11.0838 29.3145 11.1115L29.3426 11.1501L29.3696 11.1109C29.3894 11.0827 29.8374 10.4251 29.8336 9.94895C29.8284 9.46007 29.5999 9.42302 29.3256 9.42566Z" fill="#F7D5AD"/>
<path d="M25.5947 10.6778C25.4704 10.613 25.3492 10.5547 25.2257 10.5557C25.0766 10.5573 24.9521 10.6439 24.8315 10.8285C24.5911 11.199 24.7169 11.944 24.7221 11.9755L24.7289 12.0101L24.7651 11.9976C24.7985 11.9865 25.5831 11.7185 25.823 11.3486C26.0705 10.9682 25.8654 10.82 25.5947 10.6778Z" fill="#F7D5AD"/>
<path d="M40.9861 15.9566C40.8618 15.8918 40.7404 15.8332 40.6169 15.8342C40.4683 15.8358 40.3432 15.9223 40.2233 16.1071C39.9819 16.4769 40.1079 17.2222 40.1136 17.2535L40.1201 17.2888L40.1568 17.276C40.1905 17.2649 40.9743 16.997 41.2145 16.6265C41.4612 16.2467 41.2575 16.0979 40.9861 15.9566Z" fill="#F7D5AD"/>
<path d="M17.7283 14.8902C17.6367 14.8911 17.5356 14.9148 17.4484 14.9366C17.28 14.9787 17.1217 15.0263 17.0463 15.1466C16.9874 15.2396 16.9842 15.3657 17.036 15.5328C17.1632 15.9455 17.8448 16.3825 17.8735 16.4005L17.9058 16.4214L17.9215 16.3885C17.9359 16.3591 18.2715 15.6683 18.1444 15.2551C18.066 15.0006 17.9374 14.8886 17.7283 14.8902Z" fill="#F7D5AD"/>
<path d="M30.5929 15.1338L30.6081 15.1013C30.6226 15.072 30.9574 14.3808 30.8314 13.968C30.7521 13.7135 30.624 13.6008 30.4148 13.6028C30.3231 13.6034 30.2227 13.6274 30.1354 13.6489C29.9661 13.6913 29.8079 13.7392 29.7325 13.8596C29.6737 13.9522 29.6711 14.0784 29.7225 14.2453C29.8503 14.6581 30.5313 15.0949 30.5602 15.1134L30.5929 15.1338Z" fill="#F7D5AD"/>
<path d="M21.9966 16.4585C21.948 16.4591 21.898 16.4655 21.8502 16.4718C21.6095 16.5073 21.4162 16.5717 21.4932 16.9994C21.5662 17.4151 22.0638 17.9272 22.0851 17.9486L22.1187 17.9836L22.1383 17.9413C22.1519 17.9148 22.4482 17.2876 22.3746 16.8713C22.3226 16.5805 22.2095 16.4566 21.9966 16.4585Z" fill="#F7D5AD"/>
<path d="M7.9208 13.2045L7.94101 13.1621C7.95396 13.1357 8.24975 12.5085 8.17644 12.0925C8.12498 11.8008 8.01124 11.6773 7.7987 11.6795C7.75012 11.6799 7.69948 11.6863 7.65248 11.6929C7.41164 11.7281 7.2191 11.7926 7.29516 12.2205C7.3684 12.6361 7.86543 13.1481 7.88736 13.1695L7.9208 13.2045Z" fill="#F7D5AD"/>
<path d="M26.4615 7.95573L26.4952 7.98986L26.5161 7.94768C26.5278 7.92139 26.8251 7.29466 26.7511 6.87856C26.699 6.58649 26.5862 6.46314 26.3734 6.46536C26.3248 6.46585 26.2741 6.47209 26.2271 6.47882C25.9864 6.51413 25.7929 6.57816 25.8695 7.00627C25.9433 7.42134 26.4402 7.93443 26.4615 7.95573Z" fill="#F7D5AD"/>
<path d="M38.4297 11.3797C38.3822 11.3805 38.332 11.3867 38.2839 11.3936C38.0433 11.4291 37.8508 11.4929 37.9263 11.9209C38 12.3363 38.4978 12.8491 38.519 12.8707L38.5526 12.905L38.5731 12.8628C38.5851 12.8365 38.8825 12.2094 38.8086 11.7929C38.7565 11.5009 38.6434 11.3775 38.4297 11.3797Z" fill="#F7D5AD"/>
<path d="M21.5166 9.56445C21.464 9.27252 21.3512 9.14918 21.1378 9.1514C21.0897 9.15174 21.0393 9.15792 20.992 9.16472C20.7517 9.19968 20.559 9.26399 20.635 9.6921C20.7085 10.1077 21.2052 10.6203 21.2268 10.6413L21.2606 10.6765L21.2807 10.634C21.2934 10.6075 21.5899 9.98021 21.5166 9.56445Z" fill="#F7D5AD"/>
<path d="M15.2123 18.3636C15.1007 18.3333 15.0094 18.319 14.9312 18.3199C14.6994 18.322 14.6335 18.46 14.5821 18.6132C14.5123 18.8239 14.4926 19.0082 14.9537 19.1317C15.0606 19.1607 15.1927 19.1743 15.3465 19.173C15.7417 19.1689 16.1607 19.0649 16.1643 19.0637L16.2139 19.0516L16.1804 19.0167C16.1591 18.9953 15.6599 18.4834 15.2123 18.3636Z" fill="#F7D5AD"/>
<path d="M36.6816 8.24575C36.5696 8.21599 36.4785 8.2019 36.4006 8.20267C36.1684 8.20475 36.103 8.34287 36.0514 8.49605C35.9816 8.70632 35.9616 8.89079 36.4232 9.01462C36.5299 9.04335 36.6616 9.05715 36.8154 9.05556C37.2106 9.05146 37.6293 8.94803 37.6334 8.94664L37.683 8.9345L37.6492 8.89981C37.6283 8.87796 37.1291 8.36653 36.6816 8.24575Z" fill="#F7D5AD"/>
<path d="M17.7229 11.9274L17.6895 11.8929C17.668 11.871 17.1688 11.3589 16.7207 11.2388C16.6102 11.2085 16.5176 11.1949 16.4397 11.1958C16.2085 11.1976 16.1429 11.3353 16.0911 11.489C16.022 11.6996 16.0015 11.8843 16.4629 12.0076C16.5692 12.0367 16.7018 12.0501 16.8556 12.0484C17.2504 12.0447 17.67 11.9407 17.6738 11.9397L17.7229 11.9274Z" fill="#F7D5AD"/>
<path d="M26.6618 15.3618C26.5501 15.3325 26.4587 15.3178 26.3812 15.3184C26.1492 15.3208 26.0843 15.4589 26.0319 15.612C25.9968 15.7191 25.9688 15.8235 26.0256 15.919C26.0798 16.0087 26.1999 16.0762 26.4034 16.1304C26.5103 16.1595 26.6424 16.1731 26.7962 16.1713C27.1905 16.1679 27.6096 16.0639 27.6139 16.063L27.6632 16.0503L27.6287 16.016C27.6087 15.9938 27.1097 15.4822 26.6618 15.3618Z" fill="#F7D5AD"/>
<path d="M8.40973 15.9405C8.29812 15.9103 8.20671 15.8961 8.12895 15.897C7.89722 15.8992 7.83213 16.037 7.7806 16.1903C7.74443 16.2973 7.71674 16.4014 7.77437 16.4971C7.82815 16.5872 7.94744 16.6549 8.15183 16.709C8.25831 16.7378 8.39027 16.7519 8.54396 16.7502C8.93876 16.7463 9.35775 16.6425 9.36186 16.6411L9.41133 16.6286L9.37768 16.5939C9.35651 16.5724 8.85784 16.0606 8.40973 15.9405Z" fill="#F7D5AD"/>
<path d="M12.3855 13.5942C12.2745 13.5639 12.1827 13.55 12.1053 13.5506C11.8733 13.553 11.8081 13.6905 11.7569 13.8441C11.723 13.9452 11.6958 14.0431 11.7412 14.1345C11.7896 14.2332 11.9119 14.3049 12.1276 14.3629C12.2342 14.3913 12.366 14.4055 12.5194 14.4041C12.9146 14.4001 13.3339 14.2958 13.3383 14.2944L13.3876 14.2822L13.3541 14.2476C13.3332 14.2256 12.8342 13.7141 12.3855 13.5942Z" fill="#F7D5AD"/>
<path d="M22.1722 13.4984C22.0605 13.4682 21.9689 13.4542 21.8912 13.4549C21.6598 13.4568 21.5944 13.595 21.543 13.748C21.5069 13.8554 21.4789 13.9596 21.5362 14.055C21.5898 14.1451 21.7098 14.2121 21.9143 14.2672C22.0204 14.2957 22.1528 14.3089 22.3063 14.3076C22.7008 14.3035 23.1201 14.1999 23.1242 14.1986L23.1737 14.1863L23.1398 14.1519C23.1194 14.1298 22.6199 13.6184 22.1722 13.4984Z" fill="#F7D5AD"/>
<path d="M4.27665 14.0728C4.16538 14.0428 4.07397 14.0288 3.99641 14.0296C3.76455 14.0318 3.69925 14.1694 3.64738 14.323C3.61168 14.4303 3.58414 14.5343 3.64115 14.6297C3.69493 14.7198 3.81505 14.7871 4.01909 14.8416C4.12536 14.8701 4.25712 14.884 4.41081 14.8827C4.80568 14.8786 5.22439 14.7748 5.22898 14.7735L5.27838 14.7607L5.24515 14.7262C5.22377 14.7047 4.72503 14.193 4.27665 14.0728Z" fill="#F7D5AD"/>
<path d="M41.8898 11.7145C41.7787 11.6843 41.6874 11.6699 41.6094 11.671C41.3775 11.673 41.3129 11.8104 41.2607 11.9641C41.2245 12.0712 41.1975 12.1755 41.2548 12.2707C41.3079 12.3606 41.4286 12.428 41.6328 12.4825C41.7385 12.5116 41.8712 12.5253 42.0245 12.5236C42.4188 12.52 42.8383 12.4158 42.8422 12.4146L42.8919 12.4022L42.8585 12.3676C42.8376 12.3462 42.3384 11.8342 41.8898 11.7145Z" fill="#F7D5AD"/>
<path d="M16.4221 7.69728C16.5287 7.72565 16.6603 7.73946 16.8143 7.73807C17.2095 7.73412 17.6286 7.63033 17.6323 7.62915L17.682 7.61667L17.648 7.58212C17.6268 7.56082 17.1277 7.04925 16.6805 6.9284C16.5697 6.89871 16.4772 6.88421 16.3993 6.88504C16.1678 6.8874 16.1027 7.02497 16.0508 7.17871C16.0149 7.28526 15.9876 7.38926 16.0442 7.48555C16.0981 7.57483 16.218 7.64233 16.4221 7.69728Z" fill="#F7D5AD"/>
<path d="M30.9513 18.2094C30.8398 18.1794 30.748 18.1652 30.6702 18.1661C30.4385 18.1681 30.3733 18.3056 30.3229 18.4587C30.2526 18.669 30.2319 18.8531 30.6934 18.9781C30.7994 19.0066 30.9315 19.0202 31.0849 19.0187C31.4802 19.0149 31.8988 18.911 31.9044 18.9094L31.9532 18.8973L31.9194 18.863C31.8983 18.8411 31.4003 18.3303 30.9513 18.2094Z" fill="#F7D5AD"/>
<path d="M47.6463 16.7659C47.6253 16.7439 47.1278 16.2331 46.6774 16.1129C46.5667 16.0822 46.4754 16.0682 46.3971 16.0689C46.1655 16.0711 46.1008 16.2087 46.0499 16.3616C45.9796 16.5722 45.9593 16.7566 46.4201 16.8816C46.527 16.9096 46.6587 16.9236 46.8116 16.9222C47.2071 16.9183 47.6262 16.8138 47.6305 16.8128L47.6801 16.8002L47.6463 16.7659Z" fill="#F7D5AD"/>
<path d="M21.4277 7.64857C21.5341 7.67659 21.6664 7.69054 21.8196 7.6888C22.2155 7.68492 22.6343 7.58058 22.6386 7.57961L22.6878 7.56781L22.655 7.53278C22.634 7.511 22.135 7.00033 21.6861 6.87962C21.5746 6.84958 21.4827 6.83501 21.4048 6.83598C21.1733 6.83834 21.1082 6.97577 21.0571 7.12881C20.9869 7.33943 20.9667 7.52355 21.4277 7.64857Z" fill="#F7D5AD"/>
<path d="M12.0013 10.6337L12.0474 10.6123C12.0727 10.6006 12.6763 10.3154 12.8906 9.98761C12.9876 9.83804 13.0202 9.72677 12.9935 9.63741C12.9656 9.54195 12.8762 9.48861 12.7791 9.43796C12.704 9.3989 12.6235 9.36096 12.5393 9.36158C12.4168 9.36283 12.3064 9.44552 12.1919 9.62236C11.9785 9.95008 11.999 10.5622 12 10.5881L12.0013 10.6337Z" fill="#F7D5AD"/>
<path d="M36.7012 14.5534C36.6261 14.5143 36.5469 14.4761 36.4622 14.4768C36.3393 14.4781 36.2286 14.5611 36.1135 14.7378C35.9018 15.0651 35.9219 15.6776 35.9227 15.7031L35.9246 15.7492L35.9701 15.7278C35.9959 15.7165 36.5996 15.4308 36.8128 15.1032C36.9096 14.9537 36.9426 14.8421 36.9166 14.7524C36.8882 14.6573 36.7987 14.6038 36.7012 14.5534Z" fill="#F7D5AD"/>
<path d="M32.0686 7.20999C31.9933 7.17107 31.9138 7.13264 31.8282 7.13382C31.7062 7.13465 31.596 7.21741 31.4805 7.39452C31.2687 7.72162 31.2887 8.33385 31.2894 8.35966L31.2918 8.40524L31.3369 8.38429C31.3619 8.3725 31.9664 8.08723 32.1795 7.75999C32.2768 7.60993 32.3095 7.49886 32.283 7.40923C32.2546 7.31391 32.1658 7.26077 32.0686 7.20999Z" fill="#F7D5AD"/>
<path d="M34.201 11.4404C34.1259 11.4013 34.0459 11.3633 33.9613 11.364C33.8393 11.3653 33.7287 11.448 33.6134 11.6249C33.4007 11.9527 33.4212 12.5647 33.4216 12.5905L33.4245 12.6359L33.4691 12.6151C33.495 12.6028 34.0987 12.3176 34.3114 11.9903C34.4085 11.8408 34.4415 11.7292 34.4154 11.64C34.3869 11.5444 34.2971 11.4908 34.201 11.4404Z" fill="#F7D5AD"/>
<path opacity="0.14" d="M52.4649 14.3263C52.1121 21.6917 40.9684 22.3192 27.2729 22.3192C13.3568 22.3192 2.07568 21.6707 2.07568 13.9614C2.07568 10.1304 4.8584 6.66427 9.36043 4.14355C9.21524 4.63979 9.14262 5.14664 9.14262 5.66126C9.14262 12.1181 20.748 17.3513 35.0659 17.3513C41.762 17.3513 47.8642 16.2064 52.4649 14.3263Z" fill="#414042"/>
<path opacity="0.87" d="M6.91635 24.2125C6.91635 24.2125 8.04018 23.9937 9.44486 24.8253C10.8496 25.6568 11.2145 25.7357 15.376 25.4774C19.5374 25.2192 21.3338 25.6587 23.0868 26.5365C18.3056 26.5321 16.8144 26.4226 11.4115 26.8384C6.00869 27.2541 4.94653 26.357 5.6289 25.3942C6.31127 24.4313 6.91635 24.2125 6.91635 24.2125Z" fill="url(#paint0_linear_599_34973)"/>
<path d="M29.198 25.0659C29.198 25.0659 32.6663 25.9744 34.3631 25.9631C36.06 25.9518 36.3709 26.816 38.0803 26.0941C39.7898 25.3723 40.4988 25.291 40.9762 26.5539C41.4536 27.8168 43.6992 25.9411 44.9743 25.8099C42.2728 27.5604 41.7326 27.9105 35.7246 27.626C29.7167 27.3416 25.7245 25.858 29.198 25.0659Z" fill="url(#paint1_linear_599_34973)"/>
</g>
<defs>
<linearGradient id="paint0_linear_599_34973" x1="5.4448" y1="25.5646" x2="23.0868" y2="25.5646" gradientUnits="userSpaceOnUse">
<stop stop-color="white"/>
<stop offset="1" stop-color="white"/>
</linearGradient>
<linearGradient id="paint1_linear_599_34973" x1="27.9067" y1="26.3902" x2="44.9743" y2="26.3902" gradientUnits="userSpaceOnUse">
<stop stop-color="white"/>
<stop offset="1" stop-color="white"/>
</linearGradient>
<clipPath id="clip0_599_34973">
<rect width="53" height="43" fill="white"/>
</clipPath>
</defs>
</svg>
