<svg width="58" height="32" viewBox="0 0 58 32" fill="none" xmlns="http://www.w3.org/2000/svg">
<g clip-path="url(#clip0_599_35119)">
<path d="M48.1191 7.4659C48.1191 7.4659 50.0062 7.02581 50.7672 6.96704C51.5281 6.90845 51.9543 4.85442 52.9283 4.70767C53.9022 4.56092 54.7241 5.70538 54.3282 6.40959C53.9327 7.1138 54.0541 7.55388 54.3892 8.08212C54.7238 8.61036 54.876 9.13843 54.3892 9.72527C53.9024 10.3121 50.8281 11.1337 50.8281 11.1337L48.3322 10.2241C48.3322 10.2241 47.5103 8.37545 48.1191 7.4659Z" fill="#D3C1A9"/>
<path d="M54.3284 6.40962C54.4034 6.2766 54.4344 6.12776 54.4296 5.9751C54.4254 5.97997 54.4214 5.98518 54.4173 5.98988C53.8115 6.6727 52.6775 7.01941 52.9793 8.14266C53.0909 8.55771 53.3329 9.04996 52.9592 9.39737C52.5482 9.77938 51.6767 9.11203 51.2011 9.18489C50.5628 9.28209 49.6842 9.79815 49.2044 9.09638C49.0966 8.93833 48.9737 8.70533 49.0776 8.5165C49.2488 8.20561 48.9938 7.90271 48.8607 7.62555C48.8103 7.52087 48.773 7.42037 48.7501 7.32491C48.382 7.40455 48.1195 7.46593 48.1195 7.46593C47.5108 8.37548 48.3327 10.2242 48.3327 10.2242L50.8286 11.1337C50.8286 11.1337 53.9029 10.3121 54.3897 9.7253C54.8765 9.13846 54.7243 8.61022 54.3897 8.08215C54.0544 7.55391 53.9328 7.11383 54.3284 6.40962Z" fill="#D3C1A9"/>
<path d="M54.3892 8.08221C54.0541 7.55397 53.9327 7.11388 54.3282 6.40968C54.398 6.28588 54.429 6.14886 54.4294 6.00732C54.3141 6.37647 54.1437 6.75674 53.9024 6.93792C53.3543 7.34862 53.0801 7.99423 53.324 8.52247C53.5353 8.98081 54.2272 9.2185 53.8299 10.098C54.0894 9.97018 54.2918 9.84325 54.3894 9.72553C54.876 9.13852 54.7238 8.61028 54.3892 8.08221Z" fill="#CBBCA5"/>
<path d="M51.6579 10.4969C51.6579 10.4969 54.2037 9.38838 54.9428 8.62315C55.682 7.85773 55.7914 6.96052 56.7221 6.74944C57.6528 6.53817 58.2826 7.8313 57.8719 8.33277C57.4613 8.83423 57.3245 9.67893 57.5161 10.5233C57.7078 11.3676 57.7352 12.1861 56.9411 12.7665C56.1471 13.3471 55.8733 12.8985 55.0247 12.7665C54.1761 12.6345 53.9023 12.6081 52.3148 13.5846C52.3148 13.5846 51.3839 11.6053 51.6579 10.4969Z" fill="#E5D5BE"/>
<path d="M57.5199 8.20779C56.648 8.58128 56.2606 9.14152 56.3253 9.79513C56.3897 10.4487 57.2616 10.76 57.1324 11.3825C57.0394 11.8312 57.4832 12.3129 56.9387 12.7681C56.9398 12.7674 56.9405 12.7669 56.9416 12.7662C57.7356 12.1856 57.7081 11.3673 57.5166 10.523C57.3249 9.67863 57.4616 8.8341 57.8725 8.33246C57.9722 8.21075 58.0099 8.04226 57.9975 7.85986C57.893 7.99045 57.7408 8.1132 57.5199 8.20779Z" fill="#E5D5BE"/>
<path d="M38.5679 8.06263C38.5679 8.06263 39.7085 7.87589 41.8395 7.81364C43.9703 7.75139 45.2188 7.68914 45.9934 7.33635C46.7685 6.98355 46.9622 6.54764 47.4356 6.65161C47.9091 6.75542 48.8563 7.58534 48.6197 8.04177C48.3829 8.49837 48.3614 9.01705 48.8349 9.32829C49.3083 9.63953 49.3729 10.1375 49.2439 10.3865C49.1146 10.6355 42.184 11.7144 42.184 11.7144L38.5679 8.06263Z" fill="#C15914"/>
<path opacity="0.5" d="M48.8349 9.32829C48.3614 9.01705 48.3829 8.49837 48.6197 8.04177C48.7117 7.86406 48.6233 7.62985 48.4545 7.40381C48.4123 7.62063 48.3463 7.82946 48.2276 8.02334C47.9845 8.41995 47.9985 8.72493 48.0905 9.16902C48.2698 10.0356 47.1182 9.9353 46.5078 9.99581C45.797 10.0662 45.0864 10.1819 44.3749 10.2372C43.8076 10.2811 43.2306 10.3057 42.766 9.94138C42.4693 9.70891 42.1932 9.42323 41.8462 9.25874C41.4755 9.08295 41.0581 8.98714 40.7019 8.78579C40.2768 8.54584 39.8636 8.28224 39.5133 7.951C38.8923 8.00977 38.5679 8.06263 38.5679 8.06263L42.184 11.7144C42.184 11.7144 49.1146 10.6355 49.2439 10.3865C49.3729 10.1375 49.3083 9.63953 48.8349 9.32829Z" fill="#C15914"/>
<path d="M0.379883 29.3434C0.379883 29.3434 0.43309 28.0501 0.808967 26.99C1.18448 25.9293 1.18448 25.4896 0.782274 24.2483C0.380063 23.0066 0.0848083 22.2565 1.15779 21.4031C2.23113 20.5494 4.70969 19.5169 5.78628 17.5249C6.8625 15.533 9.96205 7.64779 19.3251 4.4107C24.1678 2.85449 30.9913 2.70565 36.7143 6.18217C41.1828 9.28085 43.6132 11.0189 43.6132 11.0189C43.6132 11.0189 31.3355 29.4352 28.8171 30.556C26.3634 31.4275 24.4263 30.805 20.2934 30.9918C16.161 31.1787 0.379883 29.3434 0.379883 29.3434Z" fill="#E57428"/>
<path opacity="0.5" d="M34.7128 5.52621C33.1184 4.63126 31.3362 4.0632 29.5107 3.82429C27.3301 3.53896 24.9739 3.56174 22.79 3.80134C20.5535 4.04686 18.4299 4.79262 16.4932 5.88631C16.1831 6.06158 15.8789 6.24659 15.5795 6.43959C14.8385 6.81778 14.1306 7.27021 13.4631 7.81793C12.3041 8.76956 11.322 9.96184 10.4398 11.1522C9.57607 12.3172 8.68724 13.5004 7.95352 14.7454C7.57801 15.3827 6.83004 17.2934 7.4467 16.6772C8.23579 15.8883 8.80935 15.0325 9.17098 14.6204C11.1194 12.4015 13.0237 10.4687 15.8035 8.96761C18.6527 7.42931 21.2398 6.60426 24.9858 6.88281C27.2358 7.05008 29.7503 7.87635 31.8248 8.57204C33.8247 9.24251 38.8272 11.4122 39.7925 9.54697C40.4126 8.34895 35.6294 6.04072 34.7128 5.52621Z" fill="#E57428"/>
<path opacity="0.5" d="M21.781 4.79868C22.0519 5.20364 22.2582 5.66199 22.5786 6.03443C22.6588 5.43942 22.2847 4.9197 22.2056 4.33147C22.2 4.29009 22.2669 4.17985 22.3201 4.20332C22.6978 4.36955 22.9912 4.67749 23.4082 4.76234C23.7457 4.8312 24.0956 4.87919 24.4415 4.87971C25.1289 4.8804 25.8298 4.74443 26.3664 4.32365C25.8967 4.43058 25.3736 4.43597 24.9043 4.39633C24.5211 4.36399 23.8772 4.31443 23.7268 3.89365C23.7084 3.84218 23.7736 3.75507 23.8276 3.7495C24.2444 3.7076 24.6012 3.88443 25.007 3.92338C25.4692 3.96754 25.9472 3.90234 26.3886 3.76498C26.7137 3.66395 27.0243 3.53563 27.3252 3.38905C25.1354 3.27812 23.0123 3.49216 21.1016 3.92651C21.2938 4.23671 21.577 4.4937 21.781 4.79868Z" fill="#E57428"/>
<path d="M24.2304 24.7313C24.5197 23.4707 24.9493 22.0623 25.6008 20.9545C26.8852 18.7703 28.0833 16.7102 30.1339 15.0585C32.1978 13.3961 34.4944 11.8835 37.1821 11.4293C38.4939 11.2078 39.8073 11.0508 41.1092 10.7714C41.6535 10.6545 42.195 10.5262 42.7357 10.3953C43.3145 10.8049 43.6132 11.0186 43.6132 11.0186C43.6132 11.0186 31.3355 29.4349 28.8171 30.5557C26.3634 31.4272 24.4263 30.8047 20.2934 30.9915C16.161 31.1782 0.379883 29.3431 0.379883 29.3431C0.379883 29.3431 0.43309 28.0498 0.808967 26.9897C0.893558 26.7509 0.957947 26.5444 1.00412 26.3526C1.80133 25.3493 2.82038 24.5062 3.62155 23.5003C4.12946 22.8618 4.60399 22.2005 5.04264 21.516C5.52204 20.7681 5.86528 19.9208 6.43793 19.2328C6.8782 18.7039 7.24073 18.9395 7.38826 19.427C7.43732 19.5887 7.61444 19.6393 7.76811 19.6332C8.14886 19.6176 8.61528 18.9595 8.87608 18.7456C10.3457 17.5382 11.9451 16.3309 13.679 15.4922C14.509 15.0907 15.3484 14.7094 16.2192 14.3955C16.8209 14.1785 18.4139 13.5279 18.8817 14.262C19.0962 14.5988 18.0934 15.4909 17.8961 15.7973C17.5829 16.2826 17.7756 16.9395 17.8235 17.4653C17.8961 18.2603 17.0278 18.5587 17.0067 19.273C16.9886 19.8734 16.9271 20.3387 16.6196 20.8782C16.4234 21.222 16.1913 21.5485 16.0293 21.9103C15.8744 22.2574 15.1652 23.2341 15.5414 23.6032C15.7524 23.8103 16.2371 23.8327 16.5083 23.8705C16.9068 23.9258 17.296 23.9414 17.6863 24.0423C21.3006 24.9772 23.4554 28.1105 24.2304 24.7313Z" fill="#C15B16"/>
<path d="M46.8328 18.7283C46.8328 18.7283 48.5118 21.4674 49.9969 23.6461C51.482 25.8249 52.7091 26.5717 51.159 28.3771C49.6093 30.1825 40.3756 32.1746 34.7577 31.9879C29.1401 31.8011 26.2341 29.9957 25.7177 28.5018C25.2009 27.0078 38.1155 32.8593 46.8328 18.7283Z" fill="#C15914"/>
<path opacity="0.5" d="M51.2667 25.3886C51.2663 25.4528 51.2663 25.5162 51.2625 25.5814C51.1843 26.8652 50.3952 28.0222 49.2131 28.5994C47.6141 29.3808 45.8852 29.5778 44.171 30.0158C42.371 30.4763 40.5764 30.9967 38.7302 31.2587C38.2454 31.3274 35.3015 31.5359 36.0613 30.4335C36.4024 29.9386 37.3423 29.758 37.8819 29.5987C38.7781 29.3344 39.6641 29.0564 40.5205 28.6834C43.0562 27.5793 45.1737 25.813 46.3996 23.3765C46.8298 22.5214 47.0925 21.5939 47.5317 20.7466C47.6131 20.5897 47.7043 20.4345 47.8086 20.2919C47.2302 19.3762 46.8328 18.728 46.8328 18.728C38.1155 32.8589 25.2009 27.0076 25.7177 28.5015C26.2341 29.9955 29.1401 31.8009 34.7577 31.9876C40.3756 32.1744 49.6095 30.1822 51.159 28.3769C52.2098 27.1531 51.9836 26.4155 51.2667 25.3886Z" fill="#C15914"/>
<path d="M20.02 2.69598C20.02 2.69598 24.7686 4.70879 27.5516 0.548584C26.5023 3.40418 22.6622 4.86476 20.02 2.69598Z" fill="#D2A677"/>
<path d="M21.8271 3.23352C21.8271 3.23352 23.5114 2.61434 24.9426 0.72168C24.6102 2.15722 22.8065 3.7562 21.8271 3.23352Z" fill="#7FA95F"/>
<path d="M21.0073 3.03296C21.0073 3.03296 22.5823 2.26094 22.2569 0C23.2382 1.80451 22.0408 3.63214 21.0073 3.03296Z" fill="#4B8B2D"/>
<path d="M23.6963 3.23471C23.6963 3.23471 25.1388 2.17858 25.9849 0.234619C26.164 1.20764 24.7877 3.39033 23.6963 3.23471Z" fill="#68B42E"/>
<path d="M23.2905 3.25547C23.2905 3.25547 27.0246 3.35092 28.1648 2.60742C27.0084 3.72163 23.7999 3.95411 23.2905 3.25547Z" fill="#4B8B2D"/>
<path d="M22.8332 3.58067C22.8332 3.58067 24.5259 4.53144 26.3485 4.27097C24.7274 4.99482 23.048 4.62011 21.6538 3.44922C22.4086 3.59145 22.8332 3.58067 22.8332 3.58067Z" fill="#68B42E"/>
<path d="M20.6499 3.05566C20.6499 3.05566 22.0382 4.57971 22.5444 6.01194C23.162 5.10777 21.4659 3.34882 21.4659 3.34882L20.6499 3.05566Z" fill="#458B28"/>
<path d="M22.355 3.75098C22.355 3.75098 24.0618 4.72017 25.7523 4.41467C25.14 4.84763 23.062 4.42023 22.355 3.75098Z" fill="#ABDB91"/>
<path d="M24.1187 3.03656C24.1187 3.03656 25.2319 2.18925 25.8923 0.652344C25.804 1.40367 24.8446 2.72288 24.1187 3.03656Z" fill="#ABDB91"/>
<path d="M13.2686 23.9177C13.2686 23.9177 17.3271 24.2933 19.9244 25.483C22.522 26.6723 24.0157 28.1435 23.9504 29.0824C23.8857 30.0214 22.1324 31.3677 17.4895 31.5866C12.8465 31.8057 9.79407 31.9618 6.54753 31.9935C3.30063 32.0248 2.74854 31.4301 2.74854 31.4301C2.74854 31.4301 9.14476 29.583 13.2686 23.9177Z" fill="#C15914"/>
<g opacity="0.5">
<path d="M20.4437 25.8074C18.8493 24.8449 16.9936 24.2397 15.1194 24.1633C15.1124 24.163 15.0994 24.1814 15.1088 24.1826C15.9415 24.297 16.7807 24.4683 17.5785 24.7403C18.5367 25.067 19.3944 25.6057 20.3449 25.9339C20.3938 25.9506 20.4937 25.8376 20.4437 25.8074Z" fill="#C15914"/>
<path d="M22.0332 26.8502C21.8503 26.6515 21.602 26.4988 21.3756 26.3493C21.1456 26.1975 20.942 26.0521 20.6745 25.9676C20.6531 25.9612 20.6094 26.0114 20.6316 26.0229C21.0991 26.266 21.5282 26.6301 21.9481 26.9446C21.9874 26.9745 22.0664 26.8859 22.0332 26.8502Z" fill="#C15914"/>
</g>
<path opacity="0.5" d="M23.2153 27.6512C23.3294 28.1539 23.297 28.6585 22.948 29.1363C22.5813 29.6387 21.9212 29.9402 21.3391 30.1422C20.5836 30.4041 19.7941 30.5576 18.9982 30.6539C17.1087 30.8831 15.194 30.9325 13.2938 31.0405C12.5089 31.085 11.733 31.215 10.9477 31.2606C10.4439 31.2898 8.31509 31.4705 8.76961 30.4496C9.12582 29.6501 10.2717 29.5693 10.5465 28.755C10.6227 28.5285 10.5909 28.1642 10.7446 27.9672C10.9511 27.7027 11.2909 27.6159 11.5633 27.4316C11.9821 27.1477 12.1298 26.6492 12.5268 26.3538C12.6965 26.2273 12.8904 26.1439 13.0646 26.0256C13.4556 25.7598 13.4398 25.3978 13.5803 25.0245C13.7255 24.6393 14.0227 24.3123 14.3679 24.0525C13.6993 23.9577 13.2684 23.9177 13.2684 23.9177C9.14476 29.583 2.74854 31.4301 2.74854 31.4301C2.74854 31.4301 3.30063 32.0248 6.54753 31.9935C9.79407 31.9618 12.8465 31.8057 17.4895 31.5866C22.1324 31.3675 23.8857 30.0214 23.9504 29.0824C23.9784 28.6813 23.7208 28.1831 23.2153 27.6512Z" fill="#C15914"/>
<path d="M50.9007 9.63961C50.9007 9.63961 48.0597 10.1998 41.4731 10.8225C36.1136 11.445 31.0768 13.2502 27.3316 18.9772C24.2322 23.9574 22.4241 29.311 29.075 30.2445C35.2742 30.867 43.1521 28.6259 46.0576 23.0235C47.4139 19.5374 48.9142 15.7554 49.9968 15.3666C50.9101 15.0387 52.3348 14.362 52.5204 13.964C52.7064 13.5658 52.5615 12.5112 52.3348 11.8543C52.1075 11.1976 51.984 11.257 52.1903 10.6999C52.3965 10.1426 52.2316 9.86392 51.9838 9.62518C51.736 9.38645 51.552 9.3555 50.9007 9.63961Z" fill="#DB6C21"/>
<path d="M0.0606647 30.7635C0.0606647 30.7635 -0.499183 28.8545 1.78259 26.1571C4.06419 23.3765 5.48491 21.6747 5.95837 20.5958C6.43182 19.5169 6.47475 19.0191 6.86235 19.0191C7.24995 19.0191 7.24977 19.7657 7.20684 20.4715C9.78965 18.438 13.1691 16.1345 15.8598 14.8895C16.8067 14.516 17.1083 14.4953 17.4095 14.3293C17.7107 14.1634 18.3564 14.516 17.9473 15.1802C17.5386 15.8443 17.1297 16.3836 17.2801 16.8611C17.4309 17.3384 17.6243 17.4215 17.2157 17.8986C16.8067 18.3759 16.6775 18.6454 16.7423 19.2267C16.8067 19.8078 16.5944 20.2615 15.8814 20.9488C15.4291 21.3845 15.494 21.6335 15.3861 22.1524C15.2786 22.6712 15.0849 23.1692 14.2241 23.6881C13.3632 24.2066 13.3847 24.4556 13.1478 24.9327C12.911 25.4102 12.7169 25.7835 12.1145 26.1156C11.7915 26.2816 12.0931 26.6967 10.3064 27.5266C9.89768 27.7549 9.98372 27.7963 10.0696 28.0455C10.156 28.2945 10.1989 28.5226 9.33784 29.0413C8.58428 29.5187 8.02497 30.2452 5.54948 31.1374C3.52599 31.8221 2.92357 31.6767 2.01941 31.5524C1.11543 31.4274 0.168522 31.1577 0.0606647 30.7635Z" fill="#DB6C21"/>
<path d="M16.3808 17.4447C16.1901 17.6495 16.1043 17.9241 15.8963 18.1198C15.7019 18.3035 15.4472 18.4247 15.2739 18.6271C15.2182 18.6919 15.1579 18.878 15.3175 18.8284C15.5895 18.7437 15.8301 18.4857 16.0175 18.2861C16.1126 18.1847 16.1898 18.0738 16.254 17.9526C16.3315 17.807 16.3793 17.6241 16.4654 17.4868C16.5164 17.4052 16.4342 17.3871 16.3808 17.4447Z" fill="#C15914"/>
<path d="M15.2585 19.7979C14.9924 20.3419 14.5289 20.7585 14.0096 21.0738C13.9158 21.1308 13.7468 21.4579 13.9786 21.3763C14.6412 21.143 15.2016 20.3958 15.4395 19.7805C15.5012 19.621 15.3007 19.7116 15.2585 19.7979Z" fill="#C15914"/>
<path d="M14.1987 22.1074C14.0299 22.5716 13.485 22.6198 13.1649 22.9298C13.125 22.9689 13.0433 23.1597 13.1748 23.136C13.4715 23.0826 13.7606 22.8117 13.9717 22.6168C14.1147 22.4847 14.268 22.2809 14.2729 22.0813C14.2738 22.0356 14.2054 22.0889 14.1987 22.1074Z" fill="#C15914"/>
<path d="M12.3892 24.2428C12.275 24.3936 12.145 24.5325 12.0066 24.6673C11.7923 24.8761 11.5546 24.963 11.2933 25.1006C11.2215 25.1383 11.0305 25.417 11.2249 25.4009C11.5135 25.377 11.8037 25.1366 11.9953 24.942C12.2023 24.7307 12.3771 24.5094 12.4976 24.2493C12.5416 24.1542 12.4222 24.1994 12.3892 24.2428Z" fill="#C15914"/>
<path d="M10.0829 26.6565C10.0396 26.7316 9.97792 26.7747 9.91173 26.8283C9.85563 26.8739 9.82046 26.9349 9.75842 26.9754C9.62495 27.062 9.46605 27.0776 9.33005 27.1585C9.26765 27.1955 9.11127 27.403 9.2736 27.4071C9.48012 27.4122 9.68501 27.2653 9.83507 27.142C9.96782 27.033 10.1282 26.8217 10.1466 26.6506C10.1518 26.6035 10.0959 26.6337 10.0829 26.6565Z" fill="#C15914"/>
<path d="M8.48508 28.3532C8.43007 28.4575 8.22518 28.5495 8.12616 28.6154C7.98422 28.7095 7.83307 28.7774 7.66678 28.8202C7.57659 28.8437 7.39803 29.0953 7.57299 29.0963C7.82099 29.0974 8.02949 28.9388 8.21382 28.7952C8.3812 28.6648 8.58266 28.53 8.63839 28.3184C8.66906 28.2014 8.50835 28.3092 8.48508 28.3532Z" fill="#C15914"/>
<path d="M34.2215 14.4258C34.207 14.3783 34.1509 14.3757 34.1087 14.3776C34.0119 14.3821 33.915 14.4513 33.8456 14.5105C33.7642 14.5797 33.6937 14.6644 33.6501 14.7605C33.6086 14.8521 33.6095 14.9679 33.7141 15.0144C33.7624 15.0359 33.8328 15.0031 33.8745 14.982C33.9287 14.9546 33.9702 14.9137 34.0132 14.8727C34.0738 14.8144 34.1196 14.7398 34.1421 14.66C34.1665 14.6289 34.1872 14.5972 34.2016 14.568C34.2231 14.524 34.2363 14.4736 34.2215 14.4258Z" fill="black"/>
<path d="M35.4308 15.498C35.242 15.498 34.9629 15.9393 35.2335 15.9393C35.4223 15.9395 35.701 15.498 35.4308 15.498Z" fill="black"/>
<path d="M32.972 16.2365C32.9695 16.2358 32.9671 16.2351 32.9646 16.2345C32.8851 16.2125 32.8039 16.2986 32.7653 16.3525C32.7624 16.3562 32.7597 16.3602 32.7568 16.364C32.729 16.4022 32.7036 16.4645 32.7233 16.5111C32.7494 16.5725 32.8311 16.5478 32.8744 16.5227C32.9329 16.4888 33.1195 16.2769 32.972 16.2365Z" fill="black"/>
<path d="M32.6844 18.2219C32.5439 18.2219 32.3366 18.55 32.5376 18.55C32.6777 18.55 32.8851 18.2219 32.6844 18.2219Z" fill="black"/>
<path d="M37.7738 13.949C37.777 13.9417 37.7793 13.9344 37.7819 13.9269C37.7871 13.9095 37.7907 13.8918 37.7903 13.8741C37.7896 13.8548 37.7714 13.7974 37.7386 13.8043C37.7382 13.805 37.7379 13.8061 37.7375 13.8068C37.7279 13.8042 37.7175 13.8022 37.705 13.8022C37.6149 13.8022 37.5225 13.9088 37.4908 13.9798C37.4637 14.0399 37.4633 14.1394 37.558 14.1304C37.5714 14.129 37.5842 14.1241 37.5968 14.1197C37.5965 14.1203 37.5965 14.121 37.5961 14.1215C37.5979 14.121 37.5993 14.1194 37.601 14.1185C37.6498 14.101 37.6926 14.0655 37.7247 14.0262C37.7292 14.0208 37.7335 14.0154 37.7373 14.0099C37.7409 14.005 37.7454 14.0003 37.7487 13.9954C37.7572 13.9827 37.7646 13.9688 37.7712 13.9546C37.7712 13.9539 37.772 13.9533 37.7723 13.9527C37.7727 13.9514 37.773 13.95 37.7738 13.949Z" fill="black"/>
<path d="M38.7439 14.0393C38.6515 14.0212 38.5639 14.0891 38.5195 14.1631C38.4815 14.2273 38.4205 14.3655 38.5372 14.3902C38.631 14.4102 38.7726 14.2829 38.776 14.1809C38.8059 14.1165 38.8059 14.0517 38.7439 14.0393Z" fill="black"/>
<path d="M29.6962 18.706C29.6518 18.6465 29.6119 18.613 29.5387 18.6335C29.5066 18.6424 29.4799 18.6792 29.4785 18.7103C29.477 18.742 29.4918 18.7686 29.5124 18.7936C29.4754 18.8856 29.3804 18.9644 29.3982 19.0774C29.4141 19.1769 29.5468 19.2203 29.6311 19.1687C29.7353 19.1042 29.7851 18.9925 29.7773 18.875C29.773 18.8115 29.7335 18.7556 29.6962 18.706Z" fill="black"/>
<path d="M40.7924 13.3855C40.8043 13.3455 40.805 13.3032 40.7811 13.27C40.7737 13.2594 40.7648 13.2547 40.7556 13.2521C40.7563 13.2462 40.7545 13.2408 40.7475 13.237C40.6377 13.1782 40.5794 13.3963 40.5848 13.4641C40.5922 13.5555 40.6894 13.547 40.7378 13.4872C40.748 13.4743 40.7585 13.4589 40.7681 13.442C40.7816 13.4243 40.791 13.4043 40.7924 13.3855Z" fill="black"/>
<path d="M28.8338 20.7449C28.8194 20.6964 28.7827 20.663 28.7753 20.6111C28.764 20.5309 28.6563 20.6199 28.6437 20.6573C28.6433 20.6587 28.6433 20.6597 28.6426 20.6608C28.5697 20.7538 28.5228 20.906 28.6455 20.9586C28.7131 20.9878 28.7995 20.8948 28.8206 20.8439C28.8331 20.8128 28.8435 20.7782 28.8338 20.7449Z" fill="black"/>
<path d="M27.7749 24.4265C27.7351 24.4051 27.6903 24.4529 27.6759 24.4849C27.6718 24.4938 27.67 24.5009 27.6678 24.5087C27.6131 24.5711 27.585 24.6869 27.6649 24.7155C27.7255 24.7375 27.7847 24.6396 27.8009 24.599C27.8204 24.5501 27.8328 24.4574 27.7749 24.4265Z" fill="black"/>
<path d="M25.9558 25.5604C25.9488 25.5508 25.941 25.5437 25.9322 25.5383C25.9318 25.534 25.9322 25.5288 25.9284 25.5261C25.7587 25.411 25.6184 25.6409 25.5877 25.7755C25.5633 25.8814 25.607 26.1949 25.7951 26.0716C25.9486 25.9713 26.0772 25.7225 25.9558 25.5604Z" fill="black"/>
<path d="M29.9482 26.1731C29.8873 26.1639 29.8366 26.1921 29.796 26.2366C29.7598 26.2665 29.728 26.3055 29.7084 26.3345C29.6351 26.4421 29.5864 26.6449 29.6988 26.7438C29.8182 26.8481 29.9746 26.593 30.0137 26.5179C30.0691 26.4129 30.1156 26.199 29.9482 26.1731Z" fill="black"/>
<path d="M10.5311 20.0993C10.5223 20.0748 10.5041 20.0531 10.4716 20.0376C10.4402 20.022 10.3902 20.0572 10.3684 20.0739C10.33 20.1035 10.3064 20.1503 10.2889 20.1937C10.2611 20.2626 10.2405 20.3737 10.3354 20.4008C10.433 20.4287 10.5309 20.2833 10.5553 20.212C10.5724 20.1617 10.5592 20.1214 10.5311 20.0993Z" fill="black"/>
<path d="M7.07426 22.3718C7.06362 22.3222 6.99039 22.3127 6.93863 22.3216C6.85873 22.312 6.77756 22.3847 6.73355 22.4466C6.72093 22.4647 6.7065 22.4893 6.69442 22.5165C6.68341 22.5342 6.67439 22.5528 6.67007 22.5718C6.66718 22.5839 6.66898 22.5932 6.66934 22.6031C6.66556 22.6429 6.67421 22.6797 6.71029 22.7025C6.82662 22.7759 6.97272 22.6319 7.02845 22.5479C7.06434 22.494 7.08797 22.4356 7.07426 22.3718Z" fill="black"/>
<path d="M7.52602 23.1935C7.50167 23.1365 7.43548 23.1307 7.38588 23.1596C7.33898 23.1867 7.27838 23.2561 7.27171 23.3171C7.25475 23.362 7.25583 23.4122 7.30309 23.4383C7.31932 23.4472 7.337 23.4494 7.35485 23.4475C7.3664 23.4482 7.3792 23.4472 7.39435 23.4428C7.41654 23.436 7.43764 23.4194 7.45532 23.3994C7.46975 23.3872 7.48273 23.3741 7.49193 23.3627C7.53125 23.3136 7.55145 23.2531 7.52602 23.1935Z" fill="black"/>
<path d="M9.47424 22.9658C9.45512 22.897 9.38893 22.9003 9.32868 22.9192C9.2477 22.9196 9.15121 22.9973 9.10034 23.0368C9.01197 23.106 8.93874 23.2021 8.92774 23.3132C8.91854 23.4116 9.04118 23.424 9.11225 23.4127C9.29514 23.3849 9.52636 23.1578 9.47424 22.9658Z" fill="black"/>
<path d="M5.36075 24.2487C5.34001 24.2523 5.2832 24.306 5.32161 24.3192C5.36923 24.3359 5.40963 24.3712 5.44174 24.4079C5.47528 24.4467 5.47492 24.503 5.52705 24.522C5.57322 24.5383 5.62679 24.4679 5.63454 24.433C5.66412 24.2982 5.4724 24.229 5.36075 24.2487Z" fill="black"/>
<path d="M5.37502 25.6C5.34796 25.5885 5.31838 25.5783 5.29439 25.5616C5.28375 25.5544 5.27437 25.5409 5.26734 25.531C5.24732 25.5028 5.2695 25.5075 5.23343 25.531C5.25381 25.5177 5.29656 25.443 5.24083 25.4607C5.10231 25.5049 5.15425 25.7544 5.29764 25.7398C5.34435 25.7351 5.44662 25.6301 5.37502 25.6Z" fill="black"/>
<path d="M3.72442 27.0368C3.6934 27.0276 3.66274 27.0318 3.63388 27.0429C3.53883 27.0425 3.46091 27.1166 3.40355 27.1825C3.33916 27.2569 3.30742 27.3666 3.31716 27.4623C3.3287 27.5734 3.45207 27.612 3.54478 27.5663C3.64686 27.5157 3.71252 27.4176 3.75652 27.3183C3.78665 27.2498 3.83606 27.0695 3.72442 27.0368Z" fill="black"/>
<path d="M2.26437 28.2366C2.23803 28.2413 2.21567 28.2543 2.19529 28.2698C2.18465 28.2742 2.17455 28.2794 2.16679 28.2858C2.10204 28.335 2.04414 28.4148 2.02593 28.4929C2.00933 28.5645 2.02773 28.6701 2.12495 28.6628C2.20358 28.6567 2.25246 28.5772 2.28096 28.5157C2.30278 28.4679 2.40343 28.2114 2.26437 28.2366Z" fill="black"/>
<path d="M9.0151 16.6822C8.99671 16.6622 8.97109 16.6582 8.94386 16.6618C8.81274 16.6258 8.67512 16.7987 8.64085 16.9058C8.61686 16.9799 8.5292 17.2956 8.70434 17.2681C8.74384 17.2619 8.77829 17.2408 8.80967 17.2127C8.86143 17.1775 8.89877 17.1268 8.92835 17.071C8.93935 17.0503 8.94639 17.0266 8.95162 17.0025C8.96352 16.9792 8.97452 16.9567 8.98408 16.9378C9.0243 16.8594 9.08508 16.7589 9.0151 16.6822Z" fill="black"/>
<path d="M7.48101 16.8481C7.43033 16.8066 7.35566 16.8631 7.32355 16.8994C7.28622 16.942 7.27035 17.0018 7.25375 17.054C7.23482 17.1147 7.21894 17.1813 7.22273 17.2451C7.22526 17.2828 7.24636 17.3331 7.29181 17.3371C7.35133 17.3426 7.39895 17.2858 7.42744 17.2423C7.45919 17.194 7.49923 17.1079 7.50536 17.0317C7.51835 16.9671 7.53278 16.8904 7.48101 16.8481Z" fill="black"/>
<path d="M10.6999 14.0412C10.6981 14.037 10.695 14.0349 10.6918 14.0325C10.6907 14.0144 10.6858 13.9996 10.6718 13.9932C10.5827 13.9518 10.5231 14.1313 10.5118 14.1834C10.4995 14.2424 10.4856 14.3929 10.5901 14.3759C10.7104 14.3566 10.7354 14.1271 10.6999 14.0412Z" fill="black"/>
<path d="M10.5606 12.614C10.442 12.5686 10.3581 12.7461 10.3319 12.8272C10.3116 12.8915 10.2978 12.9571 10.2876 13.0235C10.282 13.061 10.2692 13.1102 10.2868 13.1464C10.2894 13.1801 10.2998 13.2121 10.3375 13.2224C10.4007 13.2398 10.471 13.1584 10.4972 13.1146C10.5814 12.9736 10.5825 12.8053 10.5844 12.6463C10.5846 12.63 10.5754 12.6196 10.5606 12.614Z" fill="black"/>
<path d="M13.211 12.4872C13.1995 12.433 13.1663 12.3841 13.1308 12.342C13.1178 12.3266 13.0998 12.3132 13.079 12.31C13.0646 12.308 13.0509 12.3106 13.0372 12.3158C13.0253 12.3203 13.0139 12.3267 13.004 12.3351C13.0269 12.3213 13.0273 12.3203 13.0047 12.3316C12.9988 12.3358 12.9944 12.3408 12.9888 12.3452C12.9769 12.3441 12.9593 12.354 12.9533 12.3584C12.8458 12.4352 12.8794 12.5839 12.9766 12.6533C13.0963 12.7385 13.2376 12.6119 13.211 12.4872Z" fill="black"/>
<path d="M14.1315 11.7399C14.1311 11.7366 14.1318 11.7333 14.1315 11.7298C14.1279 11.6714 14.0831 11.6031 14.0139 11.6277C13.8901 11.6714 13.8782 11.8381 13.8986 11.9452C13.9257 12.0866 14.0849 12.0148 14.1255 11.92C14.1437 11.8771 14.1488 11.8013 14.1315 11.7399Z" fill="black"/>
<path d="M12.7281 11.3504C12.6926 11.3445 12.6637 11.3647 12.6412 11.3925C12.6049 11.4132 12.5766 11.4483 12.5665 11.4876C12.5629 11.5005 12.5665 11.5133 12.5753 11.5206C12.5549 11.5768 12.5402 11.6432 12.5605 11.6959C12.5705 11.7216 12.6063 11.7112 12.6233 11.7008C12.7268 11.6376 12.7396 11.5112 12.7416 11.4036C12.7416 11.3967 12.7378 11.3928 12.7346 11.3885C12.7456 11.3709 12.7492 11.3541 12.7281 11.3504Z" fill="black"/>
<path d="M12.7017 10.2584C12.6946 10.2414 12.6773 10.236 12.6602 10.2372C12.489 10.2497 12.3316 10.4866 12.3269 10.6469C12.3054 10.6919 12.2881 10.7489 12.3236 10.7797C12.4086 10.8529 12.5572 10.6488 12.5927 10.5998C12.6548 10.5144 12.746 10.3671 12.7017 10.2584Z" fill="black"/>
<path d="M10.4238 11.4098C10.4027 11.4152 10.3829 11.4249 10.3647 11.4376C10.2649 11.4376 10.1592 11.5859 10.1307 11.6548C10.1089 11.7066 10.0945 11.7888 10.1544 11.8226C10.2301 11.865 10.3162 11.8001 10.3676 11.7506C10.4278 11.6923 10.4747 11.6176 10.4999 11.5393C10.521 11.4745 10.5183 11.3867 10.4238 11.4098Z" fill="black"/>
<path d="M18.0335 10.5294C17.9755 10.4273 17.8539 10.5445 17.8126 10.5976C17.8066 10.6051 17.801 10.6153 17.7953 10.6266C17.7442 10.6814 17.7033 10.7473 17.6762 10.8132C17.6652 10.8387 17.6625 10.8657 17.691 10.8793C17.7805 10.921 17.8824 10.8347 17.9397 10.7784C17.9944 10.7252 18.0783 10.6078 18.0335 10.5294Z" fill="black"/>
<path d="M17.2748 9.21711C17.2797 9.20529 17.2784 9.19521 17.2633 9.19208C17.1384 9.16634 17.0614 9.25293 17.0189 9.35657C16.9826 9.4442 16.9826 9.57009 17.1105 9.56696C17.2553 9.56331 17.3902 9.28041 17.2748 9.21711Z" fill="black"/>
<path d="M15.461 9.57942C15.4188 9.57038 15.3761 9.58672 15.3388 9.61246C15.2901 9.62063 15.2468 9.64914 15.2154 9.68861C15.1692 9.74704 15.1315 9.84337 15.1692 9.91466C15.2062 9.98438 15.2996 9.95343 15.3521 9.923C15.4223 9.88231 15.48 9.81485 15.5121 9.74286C15.5379 9.68496 15.5397 9.59681 15.461 9.57942Z" fill="black"/>
<path d="M15.5603 8.38638C15.4649 8.36795 15.3807 8.46219 15.3307 8.52791C15.3026 8.56443 15.2839 8.60964 15.2747 8.65415C15.2662 8.69658 15.2824 8.71466 15.3212 8.73101C15.3941 8.76109 15.4945 8.71379 15.547 8.66737C15.5512 8.66371 15.5558 8.65885 15.5607 8.65363C15.5748 8.65293 15.5888 8.65085 15.6029 8.64685C15.668 8.62807 15.7045 8.56947 15.7046 8.50618C15.7057 8.42898 15.628 8.39959 15.5603 8.38638Z" fill="black"/>
<path d="M22.595 8.81352C22.6002 8.7857 22.5901 8.75579 22.5605 8.73006C22.4965 8.67459 22.3971 8.74414 22.3484 8.78691C22.2844 8.84342 22.205 8.95227 22.253 9.03869C22.29 9.10546 22.3524 9.11363 22.4234 9.09172C22.5385 9.05642 22.6559 8.90828 22.595 8.81352Z" fill="black"/>
<path d="M20.6999 7.84291C20.6844 7.82987 20.6659 7.83196 20.6475 7.84117C20.6356 7.82361 20.6211 7.80848 20.5991 7.80031C20.5656 7.78797 20.521 7.83665 20.5115 7.86221C20.473 7.96828 20.5499 8.09816 20.6641 8.12564C20.7339 8.14233 20.7923 8.05678 20.8008 8.0001C20.8112 7.92846 20.7485 7.88499 20.6999 7.84291Z" fill="black"/>
<path d="M20.7106 7.17781C20.7239 7.16199 20.7317 7.14373 20.7131 7.14042C20.7054 7.13921 20.6972 7.13782 20.6895 7.13643C20.6641 7.13208 20.6384 7.16094 20.6338 7.18233C20.6222 7.23623 20.5802 7.30248 20.6027 7.35864C20.6264 7.41724 20.6826 7.41272 20.7281 7.37568C20.7687 7.3423 20.7921 7.29222 20.7901 7.24075C20.7885 7.19676 20.7537 7.16685 20.7106 7.17781Z" fill="black"/>
<path d="M19.6326 6.35291C19.6083 6.33517 19.5794 6.335 19.5502 6.34665C19.5499 6.34665 19.5495 6.34665 19.5488 6.34665C19.4371 6.37238 19.3814 6.50244 19.4685 6.58555C19.5136 6.62868 19.5931 6.5932 19.6274 6.55582C19.6408 6.54122 19.6518 6.52418 19.6599 6.50661C19.6739 6.49809 19.6887 6.48279 19.6913 6.47497C19.7077 6.41724 19.6788 6.37186 19.6326 6.35291Z" fill="black"/>
<path d="M21.5265 5.56775C21.4338 5.47246 21.276 5.66651 21.2601 5.74458C21.2549 5.77084 21.265 5.79153 21.2946 5.79101C21.329 5.79049 21.3589 5.78788 21.3918 5.77884C21.4055 5.77519 21.4266 5.75815 21.4425 5.73815C21.4625 5.73885 21.4823 5.73606 21.5009 5.72128C21.548 5.6846 21.5745 5.61748 21.5265 5.56775Z" fill="black"/>
<path d="M18.2453 6.34581C18.2612 6.31781 18.2716 6.2879 18.2682 6.2573C18.259 6.17923 18.1755 6.16758 18.1133 6.19297C18.0375 6.22392 17.9513 6.30042 17.9354 6.38093C17.9291 6.41188 17.9399 6.4237 17.9565 6.42527C17.9587 6.43987 17.9643 6.45378 17.9765 6.46526C18.0224 6.50786 18.1003 6.47517 18.145 6.44839C18.165 6.43674 18.1845 6.4204 18.2024 6.40232C18.2235 6.38893 18.2415 6.36893 18.2453 6.34581Z" fill="black"/>
<path d="M17.1114 6.66741C17.1128 6.66446 17.1146 6.66185 17.1159 6.65889C17.1226 6.64011 17.1229 6.62116 17.0982 6.61977C16.9947 6.61368 16.8605 6.80721 17.001 6.84738C17.1006 6.87572 17.2477 6.69784 17.1114 6.66741Z" fill="black"/>
<path d="M29.7862 6.36643C29.746 6.34365 29.7002 6.33704 29.6555 6.35026C29.553 6.38016 29.437 6.52048 29.5135 6.61785C29.5427 6.65489 29.6078 6.65872 29.6499 6.64933C29.7164 6.63402 29.77 6.58708 29.801 6.52952C29.8151 6.50362 29.8187 6.48066 29.8169 6.45997C29.8205 6.45528 29.8228 6.45076 29.8236 6.44815C29.8347 6.40485 29.8284 6.39042 29.7862 6.36643Z" fill="black"/>
<path d="M31.1507 5.56764C31.1323 5.51548 31.0795 5.48696 31.0254 5.4774C30.9556 5.46523 30.8971 5.51652 30.862 5.56799C30.8261 5.62015 30.7972 5.6944 30.8373 5.75178C30.8791 5.81194 30.9552 5.7716 30.994 5.729C31.0035 5.71839 31.0136 5.7057 31.0228 5.69179C31.0232 5.69666 31.0247 5.70118 31.0295 5.70361C31.1321 5.75856 31.1799 5.65093 31.1507 5.56764Z" fill="black"/>
<path d="M34.7942 7.08328C34.7938 7.08276 34.7942 7.08224 34.7938 7.08189C34.7776 7.0259 34.7174 6.97983 34.6578 6.99443C34.5853 7.01217 34.5458 7.09963 34.5402 7.16327C34.5343 7.2243 34.5669 7.29681 34.6212 7.32949C34.7004 7.37696 34.7836 7.31489 34.8193 7.24812C34.8463 7.19752 34.8303 7.12988 34.7942 7.08328Z" fill="black"/>
<path d="M24.9035 6.18961C24.9049 6.17953 24.9053 6.16197 24.8901 6.16005C24.8786 6.15866 24.8672 6.15797 24.8557 6.15727C24.8409 6.1524 24.8265 6.15275 24.8124 6.15779C24.7772 6.16058 24.743 6.16979 24.7123 6.19326C24.6631 6.2303 24.6102 6.33897 24.7 6.36766C24.7744 6.39149 24.855 6.32385 24.886 6.26421C24.8934 6.24943 24.8979 6.22804 24.8963 6.20804C24.8981 6.20178 24.9024 6.19692 24.9035 6.18961Z" fill="black"/>
<path d="M23.6265 5.52174C23.5666 5.41794 23.4366 5.32735 23.3091 5.33169C23.2207 5.33465 23.0948 5.36125 23.0463 5.44384C23.0041 5.51496 23.0189 5.57721 23.1028 5.60451C23.1514 5.6205 23.2074 5.61129 23.2568 5.60416C23.3473 5.59112 23.4334 5.63824 23.5207 5.64728C23.5524 5.65076 23.6285 5.58782 23.6175 5.55287C23.626 5.54243 23.6312 5.52991 23.6265 5.52174Z" fill="black"/>
<path d="M13.9808 8.41171C13.9276 8.40684 13.8839 8.45588 13.8504 8.48839C13.8385 8.4997 13.8289 8.52074 13.8208 8.54351C13.8176 8.54786 13.8149 8.55238 13.8131 8.55621C13.7902 8.60454 13.7606 8.68314 13.826 8.71009C13.8527 8.72104 13.8867 8.69392 13.906 8.66418C13.937 8.64419 13.9651 8.61237 13.9792 8.57742C13.9918 8.56264 14.0028 8.54664 14.0066 8.52786C14.0153 8.4877 14.054 8.41867 13.9808 8.41171Z" fill="black"/>
<path d="M23.8365 14.3921C23.8006 14.3561 23.7777 14.3434 23.7259 14.342C23.7248 14.342 23.7241 14.3427 23.723 14.3429C23.7248 14.3344 23.7266 14.3257 23.7282 14.3173C23.7304 14.3081 23.7286 14.2972 23.7176 14.294C23.7095 14.2916 23.6983 14.2904 23.6925 14.2836C23.6608 14.246 23.6045 14.3344 23.6024 14.3577C23.5971 14.4236 23.6179 14.4978 23.6651 14.547C23.7295 14.6145 23.8184 14.4969 23.8388 14.4481C23.8466 14.4302 23.8518 14.4079 23.8365 14.3921Z" fill="black"/>
<path d="M21.0178 13.0632C21.01 13.0162 20.9808 12.9875 20.9431 12.9773C20.9431 12.9698 20.9417 12.9627 20.9364 12.9571C20.8872 12.9065 20.8223 12.8731 20.7754 12.8201C20.7373 12.7768 20.6626 12.8792 20.6641 12.9117C20.6666 12.9799 20.7036 13.0451 20.7406 13.1012C20.7745 13.1527 20.8275 13.2256 20.8969 13.2315C20.9783 13.2386 21.0282 13.1282 21.0178 13.0632Z" fill="black"/>
<path d="M43.0017 8.25096C42.9869 8.22922 42.9603 8.23444 42.9396 8.2473C42.9304 8.24226 42.9199 8.23861 42.9082 8.23652C42.8606 8.22766 42.8213 8.26191 42.798 8.29738C42.7578 8.35928 42.7022 8.51108 42.7793 8.5695C42.8444 8.61871 42.9342 8.51682 42.9659 8.47404C43.0094 8.41562 43.0464 8.31738 43.0017 8.25096Z" fill="black"/>
<path d="M43.4683 9.15C43.4532 9.14304 43.4366 9.13678 43.4196 9.13C43.3956 9.12026 43.3693 9.13991 43.3495 9.16217C43.311 9.17851 43.2789 9.20651 43.2578 9.24824C43.2183 9.32579 43.3071 9.35256 43.3691 9.355C43.3945 9.35587 43.4212 9.35082 43.447 9.34161C43.4622 9.34439 43.4773 9.3463 43.4914 9.34717C43.5369 9.34978 43.5967 9.27849 43.5911 9.23693C43.5839 9.17886 43.5226 9.15817 43.4683 9.15Z" fill="black"/>
<path d="M44.9254 8.68647C44.9261 8.66856 44.9243 8.65082 44.9166 8.63395C44.9144 8.62891 44.9095 8.62596 44.9059 8.62178C44.9041 8.61935 44.9023 8.61691 44.9 8.61483C44.8725 8.59049 44.8249 8.58805 44.7943 8.60718C44.7396 8.64161 44.703 8.69429 44.6925 8.75654C44.6841 8.80609 44.7091 8.87443 44.7591 8.89564C44.808 8.91616 44.8666 8.84852 44.8884 8.81705C44.9138 8.78036 44.9279 8.73167 44.9254 8.68647Z" fill="black"/>
<path d="M46.6248 8.49821C46.6216 8.49178 46.6178 8.48726 46.6142 8.48187C46.6201 8.46552 46.6244 8.44883 46.6255 8.43197C46.627 8.41301 46.6104 8.40519 46.5941 8.40519C46.572 8.40519 46.553 8.40954 46.5343 8.41545C46.5317 8.41406 46.5301 8.41284 46.5276 8.41162C46.4937 8.39284 46.4558 8.3951 46.417 8.39563C46.3505 8.39632 46.2511 8.45648 46.2884 8.53229C46.3155 8.58776 46.4048 8.60254 46.4607 8.60132C46.505 8.60028 46.5435 8.58011 46.572 8.55072C46.5931 8.56463 46.6362 8.51995 46.6248 8.49821Z" fill="black"/>
<path d="M15.3497 9.6123C15.3285 9.6123 15.312 9.61961 15.2939 9.62969C15.2611 9.6483 15.2189 9.69907 15.2459 9.73541C15.2562 9.74932 15.2723 9.74828 15.2885 9.74828C15.3468 9.74828 15.4328 9.6123 15.3497 9.6123Z" fill="white"/>
<path d="M15.5693 8.36743C15.5109 8.36743 15.4248 8.50358 15.5083 8.50358C15.5664 8.50358 15.6524 8.36743 15.5693 8.36743Z" fill="white"/>
<path d="M22.5256 8.75342C22.4576 8.75342 22.3572 8.91217 22.4544 8.91217C22.5224 8.91217 22.6225 8.75342 22.5256 8.75342Z" fill="white"/>
<path d="M12.5776 10.321C12.5138 10.321 12.4198 10.4701 12.5111 10.4701C12.5748 10.4701 12.6689 10.321 12.5776 10.321Z" fill="white"/>
<path d="M8.77184 16.7585C8.7648 16.7748 8.75218 16.7848 8.73937 16.7974C8.71755 16.8188 8.68328 16.8769 8.71502 16.9037C8.74875 16.9322 8.79925 16.8873 8.82108 16.8663C8.86328 16.8256 8.91306 16.7731 8.90639 16.711C8.89719 16.6262 8.78627 16.7251 8.77184 16.7585Z" fill="white"/>
<path d="M34.124 14.4137C34.0179 14.4387 33.9284 14.5189 33.8545 14.5931C33.8045 14.6437 33.8386 14.7164 33.9034 14.6604C33.9732 14.6004 34.0538 14.5547 34.127 14.4994C34.1559 14.4775 34.1901 14.3979 34.124 14.4137Z" fill="white"/>
<path d="M9.17414 23.061C9.1175 23.061 9.03364 23.1939 9.11462 23.1939C9.17161 23.1939 9.25548 23.061 9.17414 23.061Z" fill="white"/>
<path d="M29.6663 6.37451C29.6068 6.37451 29.5191 6.51379 29.6042 6.51379C29.6638 6.51379 29.7514 6.37451 29.6663 6.37451Z" fill="white"/>
<path d="M25.8541 25.5211C25.8223 25.4872 25.7621 25.5592 25.752 25.581C25.7428 25.601 25.7361 25.6208 25.734 25.6425C25.7226 25.7484 25.8851 25.651 25.8763 25.5756C25.8734 25.5535 25.8696 25.5382 25.8541 25.5211Z" fill="white"/>
<path d="M3.56845 27.0469C3.49378 27.0469 3.38322 27.2218 3.49018 27.2218C3.56539 27.2218 3.67595 27.0469 3.56845 27.0469Z" fill="white"/>
<path d="M38.7116 14.1509C38.6644 14.1509 38.5948 14.2609 38.6624 14.2609C38.7095 14.2609 38.7789 14.1509 38.7116 14.1509Z" fill="white"/>
<path d="M42.9075 8.25854C42.8509 8.25854 42.767 8.39139 42.848 8.39139C42.905 8.39121 42.9889 8.25854 42.9075 8.25854Z" fill="white"/>
<path d="M19.71 4.58916C18.1252 4.9011 16.6103 5.82456 15.2852 6.67848C14.5592 7.14638 13.8895 7.6661 13.2462 8.23556C12.6381 8.77353 12.1569 9.39671 11.5884 9.96269C11.5522 9.99868 11.5758 10.0488 11.6232 10.0105C12.1661 9.57129 12.6093 8.99923 13.1316 8.53063C13.8013 7.92988 14.5168 7.38703 15.2942 6.92191C15.9754 6.51434 16.675 6.13598 17.4109 5.82804C18.1443 5.52114 18.926 5.31162 19.6296 4.943C19.7104 4.90057 19.9315 4.54551 19.71 4.58916Z" fill="#E57428"/>
<path d="M37.2201 7.84475C36.8146 7.17723 36.0526 6.74028 35.4294 6.28106C34.7176 5.7563 33.8886 5.41046 33.0607 5.09052C32.2832 4.79023 31.4219 4.50472 30.6008 4.34945C29.6749 4.17418 28.7136 4.18375 27.7766 4.10776C27.7308 4.10411 27.6498 4.2067 27.7052 4.21574C28.4625 4.33971 29.2264 4.42092 29.979 4.57097C30.8139 4.73755 31.5579 5.11921 32.3515 5.40159C33.1967 5.70257 34.0576 6.13761 34.7603 6.68307C35.1189 6.96127 35.4525 7.26521 35.8221 7.53107C36.1561 7.77137 36.3233 8.12487 36.7172 8.32326C36.9301 8.43037 37.3503 8.05897 37.2201 7.84475Z" fill="#E57428"/>
<path d="M39.1328 9.3108C39.0324 9.07241 38.7914 8.92218 38.5869 8.76952C38.3674 8.6059 38.0898 8.48731 37.8236 8.41655C37.7193 8.3889 37.4957 8.6252 37.6088 8.69249C37.8391 8.82933 38.0097 9.01538 38.2038 9.19291C38.3937 9.36644 38.543 9.59214 38.7936 9.68603C38.9554 9.74706 39.192 9.45095 39.1328 9.3108Z" fill="#E57428"/>
<g opacity="0.5">
<path d="M30.7875 15.6836C29.3072 16.5979 28.4713 17.8602 27.5132 19.2368C26.5093 20.6795 25.9382 22.3986 25.382 24.0348C25.3591 24.1021 25.4397 24.0637 25.457 24.0274C26.1464 22.5922 26.5921 20.9981 27.4858 19.6615C27.9496 18.9673 28.4263 18.2303 28.9667 17.5909C29.5107 16.9476 30.1764 16.4885 30.851 15.9878C30.9967 15.8794 31.0449 15.5247 30.7875 15.6836Z" fill="#DB6C21"/>
<path d="M39.4482 11.8487C38.7767 11.7477 38.1229 11.9676 37.4731 12.1099C36.7992 12.2573 36.1548 12.4684 35.5158 12.7205C34.2635 13.2148 33.0964 13.7142 32.0396 14.5497C31.8695 14.6839 31.8987 14.955 32.139 14.785C34.2043 13.3233 36.7042 12.8363 39.1595 12.3703C39.301 12.3434 39.7368 11.8922 39.4482 11.8487Z" fill="#DB6C21"/>
</g>
<g opacity="0.5">
<path d="M4.39608 23.5192C3.40859 24.4783 2.57766 25.6036 1.74023 26.685C1.38275 27.1464 1.0902 27.663 0.875386 28.2C0.637306 28.7957 0.706566 29.343 0.564259 29.9459C0.552896 29.993 0.621254 29.9551 0.629731 29.9306C0.808651 29.4197 0.814964 28.8856 0.997853 28.3685C1.22746 27.7192 1.63021 27.1367 2.06939 26.6043C2.88698 25.6134 3.70998 24.6224 4.54975 23.6491C4.69548 23.4801 4.55282 23.3667 4.39608 23.5192Z" fill="#DB6C21"/>
<path d="M6.89568 20.2615C6.52053 20.2387 6.30283 20.5274 6.10208 20.7967C5.76354 21.2495 5.66236 21.8304 5.30343 22.2686C5.28648 22.2893 5.30307 22.3035 5.32201 22.2846C5.55558 22.0479 5.73035 21.7376 5.88493 21.4488C6.05411 21.133 6.32177 20.6039 6.73101 20.5583C6.82805 20.5479 7.04322 20.2704 6.89568 20.2615Z" fill="#DB6C21"/>
<path d="M17.279 14.764C15.7378 15.0222 13.8643 16.2188 12.4716 16.8978C11.7772 17.2365 11.1378 17.6677 10.5231 18.1254C10.223 18.349 9.95585 18.6115 9.69703 18.8774C9.453 19.1276 9.27354 19.4689 9.02103 19.7002C8.94383 19.7708 8.88936 20.0031 9.06197 19.8954C9.54733 19.5932 9.89363 19.0681 10.3283 18.6948C10.9089 18.1958 11.6022 17.7964 12.2898 17.4511C13.7334 16.7258 15.6508 15.8204 17.1314 15.1967C17.2431 15.1496 17.5547 14.7177 17.279 14.764Z" fill="#DB6C21"/>
</g>
</g>
<defs>
<clipPath id="clip0_599_35119">
<rect width="58" height="32" fill="white"/>
</clipPath>
</defs>
</svg>
