<svg width="68" height="43" viewBox="0 0 68 43" fill="none" xmlns="http://www.w3.org/2000/svg">
<g clip-path="url(#clip0_599_35319)">
<path d="M35.1396 1.73022L6.90332 14.2565L6.92775 14.5955C7.13541 14.9507 7.28871 15.3481 7.42612 15.7393C7.5324 16.0422 7.6405 16.3575 7.60935 16.6778C7.56293 17.1561 7.21297 17.5747 7.21969 18.0555C7.22702 18.6159 7.7089 19.0513 7.85243 19.5924C8.05886 20.3717 7.5324 21.1746 7.60446 21.9788C7.67653 22.7886 8.3392 23.4485 8.4131 24.2577C8.49616 25.1683 7.82067 26.1199 8.20422 26.9471C8.32332 27.2039 8.53281 27.4073 8.65618 27.6617C9.07821 28.5343 8.35691 29.5332 8.35508 30.5059C8.35325 31.4712 9.06661 32.347 8.98049 33.3085C8.93041 33.862 8.61526 34.3907 8.70077 34.9399C8.78322 35.468 9.22235 35.8809 9.31579 36.4071C9.40863 36.9277 9.14662 37.4495 9.16372 37.9782C9.17349 38.2917 9.28037 38.5915 9.36526 38.8931C9.62239 39.8105 9.68347 41.0327 9.52101 42.1522C9.46176 42.5596 9.78424 42.916 10.1867 42.8737L63.4938 37.2231C63.9464 37.1752 64.3068 36.8151 64.3623 36.3555L67.8394 7.72159L35.1396 1.73022Z" fill="#F98AB7"/>
<mask id="mask0_599_35319" style="mask-type:luminance" maskUnits="userSpaceOnUse" x="6" y="1" width="62" height="42">
<path d="M35.1396 1.73022L6.90332 14.2565L6.92775 14.5955C7.13541 14.9507 7.28871 15.3481 7.42612 15.7393C7.5324 16.0422 7.6405 16.3575 7.60935 16.6778C7.56293 17.1561 7.21297 17.5747 7.21969 18.0555C7.22702 18.6159 7.7089 19.0513 7.85243 19.5924C8.05886 20.3717 7.5324 21.1746 7.60446 21.9788C7.67653 22.7886 8.3392 23.4485 8.4131 24.2577C8.49616 25.1683 7.82067 26.1199 8.20422 26.9471C8.32332 27.2039 8.53281 27.4073 8.65618 27.6617C9.07821 28.5343 8.35691 29.5332 8.35508 30.5059C8.35325 31.4712 9.06661 32.347 8.98049 33.3085C8.93041 33.862 8.61526 34.3907 8.70077 34.9399C8.78322 35.468 9.22235 35.8809 9.31579 36.4071C9.40863 36.9277 9.14662 37.4495 9.16372 37.9782C9.17349 38.2917 9.28037 38.5915 9.36526 38.8931C9.62239 39.8105 9.68347 41.0327 9.52101 42.1522C9.46176 42.5596 9.78424 42.916 10.1867 42.8737L63.4938 37.2231C63.9464 37.1752 64.3068 36.8151 64.3623 36.3555L67.8394 7.72159L35.1396 1.73022Z" fill="white"/>
</mask>
<g mask="url(#mask0_599_35319)">
<path opacity="0.6" d="M17.4724 24.4511C17.4229 25.4655 16.5679 26.3612 15.5638 26.452C14.5597 26.5428 13.7853 25.7927 13.8347 24.7783C13.8842 23.7638 14.7387 22.8682 15.7434 22.7774C16.748 22.6872 17.5225 23.4367 17.4724 24.4511ZM21.1448 24.2428C20.8102 24.2726 20.5249 24.5712 20.5084 24.9095C20.492 25.2478 20.7497 25.4973 21.085 25.4674C21.4197 25.4375 21.7049 25.139 21.7214 24.8007C21.7379 24.4623 21.4802 24.2129 21.1448 24.2428ZM25.8678 19.8349C25.3096 19.8853 24.835 20.3829 24.8075 20.9464C24.7801 21.5099 25.21 21.9266 25.7682 21.8762C26.3265 21.8258 26.801 21.3282 26.8285 20.7647C26.856 20.2012 26.426 19.7852 25.8678 19.8349ZM25.472 13.9368C25.0256 13.9773 24.6457 14.3753 24.6237 14.8262C24.6017 15.2772 24.9456 15.6099 25.392 15.5701C25.8385 15.5297 26.2184 15.1316 26.2404 14.6807C26.263 14.2298 25.9185 13.8964 25.472 13.9368ZM35.0383 10.8818C34.3237 10.9458 33.716 11.5827 33.6812 12.3042C33.6464 13.0257 34.1966 13.5587 34.9106 13.494C35.6252 13.4299 36.2329 12.793 36.2677 12.0716C36.3031 11.3507 35.7528 10.8177 35.0383 10.8818ZM22.2082 18.132C21.8509 18.1643 21.5473 18.4828 21.5296 18.8435C21.5119 19.2042 21.7874 19.4704 22.1447 19.4387C22.5019 19.4064 22.8055 19.0879 22.8232 18.7272C22.8409 18.3665 22.5655 18.0996 22.2082 18.132ZM33.807 20.422C33.2488 20.4724 32.7742 20.97 32.7467 21.5335C32.7192 22.097 33.1492 22.5137 33.7074 22.4633C34.2657 22.4129 34.7402 21.9154 34.7677 21.3519C34.7952 20.7878 34.3652 20.3717 33.807 20.422ZM31.5447 15.6665C31.0311 15.7125 30.5944 16.1703 30.5694 16.689C30.5437 17.2077 30.9395 17.5902 31.4531 17.5442C31.9668 17.4982 32.4035 17.0404 32.4285 16.5217C32.4542 16.0036 32.0584 15.6205 31.5447 15.6665ZM40.7989 17.3545C39.4815 17.4727 38.3614 18.6476 38.296 19.9773C38.2313 21.3077 39.2457 22.2898 40.5631 22.1716C41.8805 22.0534 43.0006 20.8786 43.066 19.5488C43.1307 18.2184 42.1157 17.2363 40.7989 17.3545ZM41.8842 14.0867C41.5715 14.1147 41.3058 14.3934 41.2905 14.7093C41.2753 15.0247 41.5159 15.2579 41.8286 15.2299C42.1413 15.2019 42.407 14.9233 42.4223 14.6073C42.4375 14.2914 42.1963 14.0587 41.8842 14.0867ZM36.7087 25.2821C35.9721 25.348 35.3455 26.0048 35.3088 26.7493C35.2722 27.4931 35.8402 28.0429 36.5767 27.9764C37.3133 27.9098 37.9399 27.2531 37.9766 26.5092C38.0132 25.7653 37.4452 25.2161 36.7087 25.2821ZM30.0728 27.6673C29.1573 27.7494 28.3792 28.5654 28.334 29.4903C28.2888 30.4145 28.9942 31.0974 29.9092 31.0147C30.8247 30.9326 31.6028 30.1166 31.648 29.1917C31.6932 28.2675 30.9877 27.5852 30.0728 27.6673ZM39.4564 24.2222C39.01 24.262 38.6301 24.6607 38.6081 25.1116C38.5861 25.5626 38.93 25.8953 39.3764 25.8555C39.8229 25.8157 40.2028 25.417 40.2248 24.9661C40.2474 24.5152 39.9029 24.1824 39.4564 24.2222ZM27.6695 24.9568C27.5358 24.9686 27.4216 25.088 27.4148 25.2236C27.4081 25.3586 27.5113 25.4587 27.6451 25.4469C27.7788 25.4351 27.8931 25.3156 27.8998 25.1801C27.9071 25.0445 27.8039 24.945 27.6695 24.9568ZM32.6862 25.2373C32.1726 25.2833 31.7359 25.7411 31.7109 26.2598C31.6858 26.7785 32.081 27.1616 32.5946 27.115C33.1083 27.069 33.545 26.6112 33.57 26.0925C33.5957 25.5744 33.1999 25.1912 32.6862 25.2373ZM22.8464 30.593C22.0207 30.667 21.3177 31.404 21.2768 32.2381C21.2359 33.0721 21.8723 33.6885 22.6986 33.6139C23.5243 33.5399 24.2273 32.8028 24.2682 31.9688C24.3092 31.1347 23.6728 30.5184 22.8464 30.593ZM27.085 27.0416C26.8169 27.0658 26.5891 27.3047 26.5763 27.5752C26.5628 27.8458 26.7693 28.0454 27.0374 28.0212C27.3055 27.9969 27.5333 27.7581 27.5462 27.4875C27.559 27.2176 27.3525 27.0173 27.085 27.0416ZM20.2373 27.1697C19.2106 27.2618 18.3366 28.1773 18.2859 29.2147C18.2352 30.2515 19.0268 31.0178 20.0534 30.9251C21.0801 30.8331 21.9541 29.9169 22.0048 28.8801C22.0555 27.8433 21.2639 27.077 20.2373 27.1697ZM13.0573 32.4483C12.6108 32.4887 12.2309 32.8868 12.2089 33.3377C12.1869 33.7886 12.5308 34.1214 12.9773 34.0816C13.4237 34.0418 13.8036 33.6431 13.8256 33.1922C13.8476 32.7413 13.5037 32.4085 13.0573 32.4483ZM18.3965 31.0744C17.7491 31.1329 17.1982 31.71 17.1664 32.3637C17.1346 33.0174 17.633 33.5007 18.2804 33.4422C18.9278 33.3837 19.4787 32.8066 19.5105 32.1529C19.5428 31.4992 19.0439 31.0159 18.3965 31.0744ZM13.6253 29.0648C13.4469 29.081 13.2948 29.2402 13.2857 29.4206C13.2771 29.601 13.4146 29.7341 13.5929 29.7179C13.7712 29.7017 13.9233 29.5425 13.9325 29.3621C13.9416 29.1818 13.8036 29.0487 13.6253 29.0648ZM18.7538 20.4749C18.5528 20.4929 18.3818 20.6721 18.372 20.8748C18.3623 21.0776 18.5168 21.2275 18.7177 21.2094C18.9187 21.1914 19.0897 21.0123 19.0994 20.8095C19.1092 20.6068 18.9547 20.4569 18.7538 20.4749ZM29.5079 9.59056C29.084 9.6285 28.7231 10.0067 28.7023 10.4352C28.6815 10.8637 29.0083 11.1797 29.4322 11.1417C29.856 11.1038 30.217 10.7256 30.2383 10.2971C30.2585 9.8692 29.9318 9.55262 29.5079 9.59056ZM29.1836 15.3916C29.0498 15.4034 28.9356 15.5228 28.9289 15.6584C28.9222 15.7934 29.0254 15.8935 29.1598 15.8817C29.2935 15.8699 29.4077 15.7505 29.4144 15.6149C29.4212 15.4793 29.3179 15.3792 29.1836 15.3916ZM36.6354 30.8978C36.0106 30.9537 35.4786 31.511 35.4475 32.1423C35.4163 32.7736 35.8982 33.2401 36.5236 33.1835C37.1484 33.1275 37.6804 32.5702 37.7115 31.9389C37.7421 31.3076 37.2602 30.8418 36.6354 30.8978ZM30.3068 34.3932C29.8377 34.4355 29.4389 34.8534 29.4157 35.3267C29.3925 35.8001 29.754 36.1496 30.2225 36.1079C30.6915 36.0656 31.0904 35.6477 31.1129 35.1744C31.1374 34.7004 30.7758 34.3509 30.3068 34.3932ZM33.6488 31.8979C33.4479 31.9159 33.2768 32.095 33.2671 32.2978C33.2573 32.5006 33.4118 32.6504 33.6128 32.6324C33.8137 32.6144 33.9847 32.4352 33.9945 32.2325C34.0043 32.0297 33.8497 31.8798 33.6488 31.8979ZM26.7076 31.465C26.0828 31.521 25.5508 32.0782 25.5197 32.7095C25.4885 33.3408 25.9704 33.8073 26.5958 33.7507C27.2206 33.6947 27.7526 33.1374 27.7837 32.5062C27.8143 31.8749 27.3324 31.409 26.7076 31.465ZM41.715 28.2463C41.1122 28.3004 40.5998 28.8378 40.5699 29.4467C40.5399 30.0556 41.0047 30.5047 41.6075 30.4506C42.2103 30.3965 42.7228 29.8591 42.7527 29.2502C42.782 28.6419 42.3178 28.1922 41.715 28.2463ZM44.5874 25.468C44.5202 25.4742 44.4634 25.5339 44.4603 25.6011C44.4573 25.6689 44.5086 25.7187 44.5758 25.7125C44.643 25.7062 44.6998 25.6465 44.7028 25.5794C44.7059 25.5122 44.6539 25.4618 44.5874 25.468ZM46.5522 19.8449C46.0831 19.8872 45.6843 20.3051 45.6611 20.7784C45.6379 21.2517 45.9994 21.6013 46.4679 21.5596C46.9369 21.5173 47.3358 21.0994 47.359 20.626C47.3822 20.1527 47.0212 19.8032 46.5522 19.8449ZM47.7303 15.5123C47.1721 15.5626 46.6975 16.0602 46.67 16.6237C46.6426 17.1872 47.0725 17.6039 47.6308 17.5535C48.189 17.5032 48.6635 17.0056 48.691 16.4421C48.7185 15.8786 48.2879 15.4619 47.7303 15.5123ZM45.9243 10.4725C45.6116 10.5005 45.3459 10.7791 45.3307 11.0951C45.3154 11.411 45.556 11.6437 45.8687 11.6157C46.1814 11.5877 46.4471 11.309 46.4624 10.9931C46.4777 10.6771 46.2364 10.4439 45.9243 10.4725ZM41.7681 9.87045C41.1879 9.92269 40.6938 10.4402 40.6651 11.0261C40.6364 11.6119 41.0835 12.0455 41.6643 11.9932C42.2445 11.941 42.7386 11.4235 42.7673 10.8376C42.796 10.2511 42.349 9.8182 41.7681 9.87045ZM51.095 11.7146C50.4701 11.7705 49.9382 12.3278 49.907 12.9597C49.8759 13.591 50.3578 14.0569 50.9832 14.0009C51.608 13.9449 52.1399 13.3876 52.1711 12.7564C52.2016 12.1244 51.7204 11.658 51.095 11.7146ZM49.6951 23.0579C49.3158 23.0921 48.9927 23.4305 48.9738 23.8136C48.9549 24.1967 49.2474 24.4797 49.6273 24.4455C50.0066 24.4113 50.3297 24.073 50.3486 23.6898C50.3669 23.3067 50.075 23.0237 49.6951 23.0579ZM51.0412 16.1087C50.4164 16.1647 49.8844 16.722 49.8533 17.3533C49.8221 17.9846 50.304 18.451 50.9294 18.3944C51.5542 18.3385 52.0862 17.7812 52.1174 17.1499C52.1479 16.5186 51.666 16.0528 51.0412 16.1087ZM46.3628 27.0155C45.8938 27.0578 45.495 27.4757 45.4718 27.949C45.4485 28.4223 45.8101 28.7719 46.2786 28.7302C46.7476 28.6879 47.1464 28.27 47.169 27.7966C47.1929 27.3227 46.8313 26.9732 46.3628 27.0155ZM45.2061 32.5659C44.5141 32.6281 43.9253 33.245 43.8911 33.9441C43.8569 34.6432 44.3901 35.1594 45.0821 35.0972C45.7741 35.0351 46.3628 34.4181 46.397 33.719C46.4312 33.0199 45.8981 32.5037 45.2061 32.5659ZM51.4974 28.1798C50.8726 28.2358 50.3407 28.793 50.3095 29.4243C50.2784 30.0556 50.7603 30.5221 51.3857 30.4655C52.0105 30.4095 52.5424 29.8522 52.5736 29.2209C52.6041 28.5897 52.1222 28.1232 51.4974 28.1798ZM45.2134 25.0053C44.544 25.0656 43.9742 25.6627 43.9412 26.3388C43.9082 27.0148 44.4243 27.5149 45.0937 27.4546C45.7637 27.3942 46.3329 26.7972 46.3665 26.1211C46.3995 25.4444 45.8834 24.945 45.2134 25.0053ZM55.7318 25.5228C55.3299 25.5588 54.9879 25.9171 54.9683 26.3232C54.9488 26.7294 55.2585 27.0285 55.6597 26.9925C56.0616 26.9564 56.4036 26.5981 56.4232 26.192C56.4433 25.7865 56.1337 25.4867 55.7318 25.5228ZM55.4912 21.3991C55.0673 21.4371 54.7063 21.8152 54.685 22.2438C54.6642 22.6723 54.9909 22.9883 55.4148 22.9503C55.8393 22.9124 56.1996 22.5342 56.221 22.1057C56.2418 21.6772 55.915 21.3606 55.4912 21.3991ZM55.6023 18.2999C55.1558 18.3403 54.776 18.7384 54.754 19.1893C54.732 19.6402 55.0758 19.973 55.5223 19.9332C55.9688 19.8928 56.3486 19.4947 56.3706 19.0438C56.3926 18.5928 56.0488 18.2595 55.6023 18.2999ZM61.0209 15.2927C60.3735 15.3512 59.8226 15.9284 59.7909 16.582C59.7591 17.2357 60.2581 17.719 60.9055 17.6605C61.5529 17.6021 62.1038 17.0249 62.1355 16.3712C62.1673 15.7175 61.6683 15.2349 61.0209 15.2927ZM58.7807 13.3808C58.3562 13.4187 57.9958 13.7969 57.9745 14.2254C57.9537 14.654 58.2805 14.9699 58.7043 14.932C59.1288 14.894 59.4891 14.5159 59.5105 14.0874C59.5313 13.6588 59.2045 13.3429 58.7807 13.3808ZM53.0091 21.1342C52.7189 21.1603 52.4722 21.419 52.4575 21.712C52.4435 22.0049 52.667 22.2214 52.9571 22.1953C53.2472 22.1691 53.494 21.9104 53.5086 21.6175C53.5227 21.3245 53.2992 21.1081 53.0091 21.1342ZM61.5052 20.2081C61.0808 20.246 60.7204 20.6242 60.699 21.0527C60.6783 21.4812 61.005 21.7972 61.4289 21.7593C61.8528 21.7213 62.2137 21.3432 62.2351 20.9146C62.2565 20.4861 61.9291 20.1695 61.5052 20.2081ZM58.7281 20.2137C58.5052 20.2336 58.3153 20.4326 58.3043 20.6584C58.2933 20.8835 58.4655 21.0502 58.6884 21.0303C58.912 21.0104 59.1013 20.8114 59.1129 20.5856C59.1233 20.3598 58.9511 20.1938 58.7281 20.2137ZM62.0561 8.94061C61.766 8.96674 61.5193 9.22547 61.5046 9.51842C61.4906 9.81136 61.7141 10.0278 62.0042 10.0017C62.2943 9.97556 62.5411 9.71682 62.5557 9.42388C62.5698 9.13093 62.3462 8.91449 62.0561 8.94061ZM56.2723 10.355C55.9822 10.3811 55.7355 10.6398 55.7208 10.9328C55.7067 11.2257 55.9303 11.4421 56.2204 11.416C56.5105 11.3899 56.7572 11.1312 56.7719 10.8382C56.7866 10.5453 56.5624 10.3288 56.2723 10.355ZM55.0551 15.5042C54.8987 15.5185 54.7662 15.6578 54.7582 15.8152C54.7503 15.9731 54.8712 16.0894 55.027 16.0758C55.1833 16.0615 55.3165 15.9221 55.3238 15.7648C55.3317 15.6068 55.2108 15.4899 55.0551 15.5042ZM63.7601 12.7707C63.492 12.7949 63.2642 13.0337 63.2514 13.3043C63.2379 13.5749 63.4444 13.7745 63.7125 13.7502C63.9806 13.726 64.2084 13.4872 64.2213 13.2166C64.2347 12.9461 64.0283 12.7464 63.7601 12.7707ZM65.6064 16.9938C65.2272 17.028 64.9041 17.3663 64.8851 17.7495C64.8662 18.1326 65.1588 18.4156 65.5386 18.3814C65.9179 18.3472 66.241 18.0088 66.2599 17.6257C66.2783 17.2432 65.9857 16.9602 65.6064 16.9938ZM64.9108 23.8036C64.286 23.8596 63.754 24.4169 63.7229 25.0482C63.6923 25.6795 64.1736 26.1453 64.799 26.0894C65.4238 26.0334 65.9558 25.4761 65.9869 24.8448C66.0175 24.2135 65.5362 23.7471 64.9108 23.8036ZM60.9122 29.04C60.2202 29.1022 59.6314 29.7191 59.5972 30.4182C59.563 31.1173 60.0962 31.6335 60.7882 31.5713C61.4802 31.5091 62.069 30.8922 62.1032 30.1931C62.1374 29.494 61.6042 28.9778 60.9122 29.04ZM62.0488 23.8982C61.4014 23.9567 60.8505 24.5338 60.8187 25.1875C60.787 25.8412 61.286 26.3245 61.9334 26.266C62.5808 26.2075 63.1317 25.6304 63.1634 24.9767C63.1952 24.323 62.6962 23.8397 62.0488 23.8982ZM57.7167 31.8475C57.2923 31.8854 56.9319 32.2636 56.9105 32.6921C56.8898 33.1206 57.2165 33.4366 57.6404 33.3987C58.0643 33.3607 58.4252 32.9826 58.4466 32.554C58.4674 32.1255 58.1406 31.8096 57.7167 31.8475ZM53.9692 31.9408C53.701 31.965 53.4732 32.2039 53.4604 32.4744C53.447 32.745 53.6534 32.9446 53.9215 32.9204C54.1896 32.8961 54.4174 32.6573 54.4303 32.3867C54.4437 32.1162 54.2373 31.9165 53.9692 31.9408ZM52.0428 34.3086C51.5292 34.3546 51.0925 34.8124 51.0675 35.3311C51.0418 35.8498 51.4376 36.233 51.9512 36.1863C52.4649 36.1397 52.9016 35.6825 52.9266 35.1638C52.9516 34.6451 52.5559 34.2626 52.0428 34.3086ZM46.6639 37.3121C46.5522 37.322 46.4575 37.4215 46.452 37.5341C46.4465 37.6467 46.5326 37.73 46.6444 37.7201C46.7562 37.7101 46.8508 37.6106 46.8563 37.498C46.8618 37.3854 46.7757 37.3021 46.6639 37.3121ZM36.4845 35.6259C36.0381 35.6663 35.6582 36.0644 35.6362 36.5153C35.6142 36.9662 35.958 37.299 36.4045 37.2592C36.851 37.2194 37.2309 36.8207 37.2528 36.3698C37.2748 35.9189 36.931 35.5861 36.4845 35.6259ZM35.9397 37.707C35.6496 37.7331 35.4029 37.9919 35.3882 38.2848C35.3742 38.5777 35.5977 38.7942 35.8878 38.7681C36.1779 38.7419 36.4247 38.4832 36.4393 38.1903C36.454 37.8973 36.2304 37.6809 35.9397 37.707ZM39.6122 34.2066C39.2103 34.2427 38.8683 34.6009 38.8487 35.0071C38.8286 35.4132 39.1382 35.7124 39.5401 35.6763C39.942 35.6402 40.284 35.282 40.3036 34.8758C40.3237 34.4703 40.0141 34.1705 39.6122 34.2066ZM40.9644 37.8246C40.7409 37.8445 40.5515 38.0435 40.5399 38.2693C40.5289 38.4944 40.7012 38.6611 40.9241 38.6412C41.1476 38.6213 41.337 38.4223 41.3479 38.1965C41.3602 37.9707 41.1879 37.804 40.9644 37.8246ZM42.1541 32.434C41.9978 32.4477 41.8653 32.5876 41.8573 32.745C41.8494 32.903 41.9697 33.0193 42.126 33.0056C42.2824 32.9913 42.4155 32.852 42.4229 32.6946C42.4308 32.536 42.3099 32.4197 42.1541 32.434ZM48.2049 32.1336C48.1377 32.1398 48.0809 32.1995 48.0778 32.2673C48.0748 32.3351 48.1261 32.3849 48.1933 32.3786C48.2604 32.3724 48.3172 32.3127 48.3203 32.2449C48.3234 32.1778 48.2721 32.1274 48.2049 32.1336ZM66.6673 13.4032C66.4218 13.4256 66.2129 13.6445 66.2007 13.8921C66.1885 14.1402 66.3778 14.3231 66.6233 14.3013C66.8689 14.2795 67.0777 14.0606 67.09 13.8124C67.1022 13.5643 66.9128 13.3814 66.6673 13.4032ZM64.5914 16.3538C64.4796 16.3637 64.3849 16.4632 64.3794 16.5758C64.3739 16.6884 64.4601 16.7717 64.5718 16.7618C64.6836 16.7518 64.7783 16.6523 64.7838 16.5398C64.7886 16.4272 64.7025 16.3438 64.5914 16.3538ZM17.4748 37.5789C17.2067 37.6031 16.9789 37.842 16.9661 38.1125C16.9526 38.3831 17.1591 38.5827 17.4272 38.5591C17.6953 38.5355 17.9231 38.296 17.936 38.0254C17.9488 37.7549 17.7423 37.5546 17.4748 37.5789ZM23.4517 34.6843C23.0278 34.7222 22.6668 35.1004 22.6455 35.5289C22.6247 35.9574 22.9515 36.2734 23.3753 36.2354C23.7992 36.1975 24.1601 35.8193 24.1815 35.3908C24.2023 34.9623 23.8755 34.6463 23.4517 34.6843ZM17.8895 34.859C17.5548 34.8889 17.2696 35.1874 17.2531 35.5258C17.2366 35.8641 17.4944 36.1135 17.8297 36.0837C18.1644 36.0538 18.4496 35.7553 18.4661 35.4169C18.482 35.0786 18.2242 34.8292 17.8895 34.859ZM21.882 39.6214C21.4356 39.6612 21.0557 40.0599 21.0337 40.5108C21.0117 40.9617 21.3556 41.2945 21.802 41.2547C22.2485 41.2142 22.6284 40.8162 22.6504 40.3653C22.6723 39.9143 22.3285 39.581 21.882 39.6214ZM26.6624 36.5091C26.3277 36.539 26.0425 36.8375 26.026 37.1758C26.0095 37.5142 26.2672 37.7636 26.6025 37.7337C26.9372 37.7039 27.2225 37.4053 27.2389 37.067C27.2548 36.7287 26.9971 36.4792 26.6624 36.5091ZM27.8112 38.5193C27.3202 38.5634 26.9024 39.0013 26.878 39.4976C26.8536 39.994 27.2322 40.3597 27.7233 40.3155C28.2143 40.2714 28.6321 39.8335 28.6565 39.3372C28.6809 38.8408 28.3023 38.4751 27.8112 38.5193ZM31.6883 39.0647C31.4428 39.0871 31.2339 39.3061 31.2217 39.5536C31.2094 39.8018 31.3988 39.9846 31.6443 39.9629C31.8898 39.9411 32.0987 39.7222 32.1109 39.474C32.1231 39.2258 31.9338 39.043 31.6883 39.0647ZM20.8737 37.192C20.6056 37.2163 20.3777 37.4551 20.3649 37.7257C20.3515 37.9962 20.5579 38.1959 20.826 38.1716C21.0942 38.1474 21.322 37.9085 21.3354 37.638C21.3482 37.368 21.1418 37.1678 20.8737 37.192ZM12.6438 36.794C12.1753 36.8363 11.7765 37.2542 11.7533 37.7275C11.7301 38.2008 12.0917 38.5504 12.5601 38.5087C13.0286 38.4664 13.4274 38.0485 13.4506 37.5751C13.4738 37.1012 13.1122 36.7517 12.6438 36.794ZM14.7197 40.4281C14.385 40.4579 14.0998 40.7571 14.0833 41.0948C14.0668 41.4332 14.3252 41.6826 14.6599 41.6527C14.9946 41.6229 15.2798 41.3243 15.2963 40.986C15.3122 40.6476 15.0544 40.3976 14.7197 40.4281ZM7.98618 35.7497C7.49513 35.7938 7.07738 36.2317 7.05295 36.728C7.02852 37.2237 7.40719 37.5901 7.89823 37.5459C8.38928 37.5018 8.80703 37.0639 8.83146 36.5676C8.85589 36.0719 8.47722 35.7055 7.98618 35.7497ZM9.05744 29.4753C8.90109 29.4896 8.76794 29.629 8.76061 29.7863C8.75267 29.9443 8.8736 30.0606 9.02935 30.0469C9.1857 30.0326 9.31884 29.8933 9.32617 29.7359C9.33411 29.578 9.21379 29.461 9.05744 29.4753ZM9.14417 32.638C8.76489 32.6722 8.4418 33.0106 8.42287 33.3937C8.40393 33.7768 8.69648 34.0598 9.07576 34.0262C9.45504 33.992 9.77813 33.6537 9.79706 33.2705C9.81661 32.8868 9.52405 32.6038 9.14417 32.638ZM10.2515 24.8156C9.8276 24.8535 9.46664 25.2317 9.44527 25.6602C9.4245 26.0887 9.75126 26.4047 10.1751 26.3668C10.599 26.3288 10.9599 25.9507 10.9807 25.5221C11.0021 25.0942 10.6753 24.7776 10.2515 24.8156ZM12.4398 20.3922C12.1271 20.4202 11.8614 20.6988 11.8461 21.0148C11.8309 21.3301 12.0715 21.5633 12.3842 21.5354C12.6969 21.5074 12.9626 21.2287 12.9779 20.9128C12.9931 20.5974 12.7519 20.3642 12.4398 20.3922ZM16.5416 18.8043C16.4524 18.8124 16.3761 18.892 16.3718 18.9822C16.3675 19.0724 16.4366 19.1389 16.5257 19.1308C16.6149 19.1228 16.6912 19.0431 16.6955 18.953C16.6998 18.8628 16.6308 18.7962 16.5416 18.8043ZM20.6098 15.4308C20.1854 15.4687 19.825 15.8469 19.8036 16.2754C19.7829 16.7039 20.1096 17.0199 20.5335 16.982C20.9573 16.944 21.3183 16.5659 21.3397 16.1373C21.3611 15.7088 21.0343 15.3922 20.6098 15.4308ZM23.4333 12.0063C23.3216 12.0162 23.2269 12.1157 23.2214 12.2283C23.2159 12.3409 23.302 12.4242 23.4138 12.4143C23.5256 12.4043 23.6202 12.3048 23.6257 12.1922C23.6312 12.0797 23.5451 11.9963 23.4333 12.0063ZM56.6595 35.3566C56.2802 35.3908 55.9572 35.7292 55.9382 36.1123C55.9193 36.4954 56.2118 36.7784 56.5917 36.7442C56.971 36.71 57.2941 36.3716 57.313 35.9885C57.3313 35.6054 57.0388 35.3224 56.6595 35.3566ZM61.8772 33.9933C61.4533 34.0312 61.0924 34.4094 61.071 34.8379C61.0502 35.2664 61.377 35.5824 61.8008 35.5444C62.2247 35.5065 62.5857 35.1283 62.6064 34.6998C62.6284 34.2713 62.3017 33.9553 61.8772 33.9933ZM64.9755 29.8945C64.6408 29.9244 64.3556 30.2229 64.3391 30.5613C64.3226 30.8996 64.5804 31.149 64.9157 31.1192C65.2504 31.0893 65.5356 30.7908 65.5521 30.4524C65.568 30.1141 65.3102 29.8641 64.9755 29.8945ZM67.1571 28.0722C66.9116 28.0939 66.7027 28.3135 66.6905 28.561C66.6783 28.8092 66.8676 28.9921 67.1132 28.9703C67.3587 28.9479 67.5676 28.729 67.5798 28.4814C67.592 28.2333 67.4027 28.0504 67.1571 28.0722ZM67.2292 20.0184C66.8945 20.0482 66.6093 20.3468 66.5928 20.6851C66.5763 21.0235 66.8341 21.2729 67.1694 21.243C67.5041 21.2132 67.7893 20.9146 67.8058 20.5763C67.8216 20.2379 67.5639 19.9885 67.2292 20.0184ZM64.8772 21.2051C64.6537 21.225 64.4643 21.424 64.4533 21.6498C64.4423 21.8756 64.6146 22.0416 64.8375 22.0217C65.061 22.0018 65.2504 21.8028 65.262 21.577C65.2724 21.3519 65.1001 21.1852 64.8772 21.2051ZM67.4613 9.51157C67.1486 9.53956 66.8829 9.8182 66.8676 10.1342C66.8524 10.4495 67.093 10.6827 67.4057 10.6547C67.7184 10.6268 67.9841 10.3481 67.9994 10.0322C68.0146 9.7162 67.7734 9.48359 67.4613 9.51157ZM65.7677 9.58248C65.2766 9.62664 64.8589 10.0645 64.8344 10.5608C64.81 11.0565 65.1887 11.4229 65.6797 11.3793C66.1708 11.3352 66.5885 10.8973 66.613 10.401C66.6368 9.90465 66.2587 9.53832 65.7677 9.58248ZM21.2591 12.0392C20.7008 12.0896 20.2263 12.5872 20.1988 13.1507C20.1713 13.7142 20.6013 14.1309 21.1595 14.0805C21.7177 14.0301 22.1923 13.5326 22.2198 12.9691C22.2473 12.4056 21.8167 11.9895 21.2591 12.0392ZM15.1271 13.16C14.4125 13.2241 13.8048 13.861 13.77 14.5824C13.7352 15.3039 14.2855 15.8369 14.9995 15.7722C15.714 15.7082 16.3217 15.0713 16.3565 14.3498C16.392 13.6283 15.8417 13.0953 15.1271 13.16ZM9.70789 15.3543C8.90414 15.4264 8.22071 16.1429 8.18101 16.9546C8.14131 17.7663 8.76061 18.3658 9.56436 18.2937C10.3681 18.2215 11.0515 17.505 11.0912 16.6934C11.1309 15.8811 10.5116 15.2815 9.70789 15.3543ZM5.08449 23.492C4.43709 23.5505 3.8862 24.1277 3.85444 24.7814C3.82268 25.4351 4.32166 25.9183 4.96845 25.8599C5.61585 25.8014 6.16675 25.2242 6.19851 24.5705C6.23088 23.9168 5.73189 23.4336 5.08449 23.492ZM8.60732 20.5738C8.13826 20.6161 7.73944 21.0341 7.71684 21.5074C7.69363 21.9807 8.05519 22.3308 8.52364 22.2885C8.9927 22.2463 9.39152 21.8283 9.41473 21.355C9.43733 20.8817 9.07637 20.5321 8.60732 20.5738ZM5.09182 29.1003C4.55619 29.1482 4.10057 29.6265 4.0737 30.1669C4.04743 30.7081 4.4603 31.1074 4.99593 31.0595C5.53156 31.0116 5.9878 30.5333 6.01406 29.9928C6.04032 29.4517 5.62745 29.0518 5.09182 29.1003ZM1.52869 32.8345C0.724938 32.9067 0.0415057 33.6232 0.00180681 34.4349C-0.0378921 35.2465 0.581411 35.8461 1.38516 35.7739C2.18891 35.7018 2.87235 34.9853 2.91204 34.1736C2.95174 33.362 2.33244 32.7624 1.52869 32.8345ZM6.11728 33.6412C5.96092 33.6555 5.82778 33.7949 5.82045 33.9522C5.81251 34.1102 5.93344 34.2265 6.08918 34.2128C6.24553 34.1985 6.37868 34.0592 6.38601 33.9018C6.39395 33.7439 6.27363 33.6276 6.11728 33.6412ZM4.88783 39.0355C4.19585 39.0977 3.60708 39.7147 3.57288 40.4138C3.53868 41.1129 4.07186 41.6291 4.76385 41.5669C5.45583 41.5047 6.0446 40.8877 6.0788 40.1886C6.113 39.4895 5.57981 38.9733 4.88783 39.0355ZM9.28586 39.6158C8.8168 39.6581 8.41798 40.0761 8.39538 40.5494C8.37218 41.0227 8.73374 41.3722 9.20219 41.3306C9.67125 41.2883 10.0701 40.8703 10.0933 40.397C10.1159 39.9231 9.75492 39.5735 9.28586 39.6158Z" fill="#F98AB7"/>
</g>
<path d="M66.8389 15.9526L7.94824 22.9964C8.1504 23.4044 8.37149 23.808 8.41241 24.2571C8.49548 25.1676 7.81998 26.1192 8.20354 26.9464C8.32263 27.2033 8.53212 27.4067 8.65549 27.6611C9.07752 28.5337 8.35623 29.5326 8.35439 30.5053C8.35317 30.9531 8.50708 31.3817 8.66282 31.8083L65.7255 25.1216L66.8389 15.9526Z" fill="#F9E9BB"/>
<path d="M9.56657 41.07L9.50916 42.4763C9.489 42.7282 9.69849 42.9365 9.94523 42.9104L63.4918 37.2226C63.9456 37.1747 64.3071 36.8133 64.3627 36.3525L64.5594 34.7354L9.56657 41.07Z" fill="url(#paint0_radial_599_35319)"/>
<path opacity="0.4" d="M15.162 41.748C14.947 41.761 14.9177 41.6304 15.0338 41.5689C15.0619 41.5539 15.0991 41.5427 15.1443 41.539C15.4021 41.5185 15.3923 41.7337 15.162 41.748ZM18.0112 41.8904C18.1156 41.7834 18.0833 41.6646 17.9733 41.6068C17.9446 41.5919 17.908 41.5794 17.8622 41.5863C17.795 41.5962 17.7376 41.641 17.6936 41.6814C17.3998 41.9501 17.7455 42.1634 18.0112 41.8904ZM11.1647 42.6896C11.3851 42.6212 11.5073 42.5117 11.4896 42.4359C11.4847 42.416 11.47 42.3973 11.4248 42.3923C11.3577 42.3849 11.2544 42.4104 11.1677 42.4352C10.5893 42.5982 10.6046 42.8632 11.1647 42.6896ZM15.1449 42.2742C15.1468 42.2835 15.1468 42.2934 15.1657 42.3021C15.1718 42.3053 15.1791 42.3071 15.1871 42.3084C15.2549 42.3233 15.3465 42.3165 15.4033 42.2922C15.4857 42.2574 15.4918 42.189 15.3495 42.1883C15.2976 42.1883 15.2286 42.2039 15.1834 42.225C15.1712 42.2306 15.1688 42.2375 15.1602 42.2437C15.2042 42.1572 15.1266 42.0888 14.82 42.1591C14.6343 42.2014 14.3186 42.3581 14.5189 42.4247L15.0106 42.3724C15.068 42.3426 15.1168 42.309 15.1449 42.2742ZM22.7329 40.0146C22.8074 40.0108 22.8612 39.9735 22.8441 39.9424C22.8264 39.9331 22.8093 39.9238 22.7916 39.9151C22.7519 39.8939 22.6755 39.9225 22.6407 39.9542C22.6059 39.9853 22.612 40.0202 22.7329 40.0146ZM17.9489 40.6782C17.9355 40.6676 17.9214 40.6577 17.908 40.6471C17.8768 40.6235 17.7913 40.6465 17.7455 40.6757C17.7003 40.7043 17.693 40.7392 17.8133 40.7423C17.8866 40.7435 17.9538 40.7099 17.9489 40.6782ZM19.3933 39.9617C19.4104 39.9542 19.4202 39.9449 19.4349 39.9362C19.4226 39.9648 19.4367 39.9947 19.4923 40.022C19.4648 40.0594 19.4532 40.1048 19.4636 40.1607C19.4709 40.1999 19.5033 40.2428 19.5479 40.2857C19.3127 40.2609 18.7734 40.2913 18.9713 40.4419C19.011 40.4723 19.0855 40.491 19.1661 40.5009C19.3567 40.524 19.6254 40.4798 19.7421 40.4238C19.9564 40.5426 20.2575 40.6403 20.5257 40.6446C20.5874 40.6459 20.6472 40.6396 20.7052 40.6316C20.6881 40.6428 20.6704 40.6539 20.6533 40.6658C20.4695 40.7858 20.4945 40.9058 20.6551 40.9618C20.7755 41.0041 20.9721 41.0097 21.2128 40.9531C21.341 40.9226 21.454 40.8474 21.523 40.7628C21.5242 40.7628 21.5249 40.7634 21.5255 40.764C21.6543 40.792 21.8339 40.7821 22.0275 40.7205C22.0892 40.7659 22.1594 40.8069 22.2382 40.8443C21.9957 40.9699 22.1155 41.1764 22.5589 41.1552C22.565 41.1546 22.5735 41.154 22.5796 41.1534C22.5888 41.1596 22.5863 41.1664 22.601 41.172C22.7128 41.2137 22.9088 41.1652 22.9791 41.108C23.1403 41.0806 23.2905 41.0439 23.3608 40.9979C23.4274 40.955 23.4157 40.9052 23.285 40.8505C23.3193 40.8312 23.3535 40.8113 23.3754 40.7895C23.4915 40.672 23.4359 40.5352 23.2826 40.4313C23.2087 40.3809 23.0988 40.3324 22.9742 40.2901C23.1061 40.2397 23.1226 40.175 22.8282 40.139C22.6902 40.1222 22.4159 40.1284 22.2767 40.1719C22.2028 40.1732 22.1332 40.1794 22.0721 40.1949C22.011 40.1794 21.9414 40.1688 21.8522 40.1719C21.6922 40.1775 21.5988 40.2528 21.5371 40.3175C21.5004 40.3566 21.4632 40.3952 21.4265 40.4344C21.3789 40.4195 21.3209 40.4095 21.2494 40.4058C21.2183 40.4039 21.1896 40.407 21.1608 40.4108C21.2176 40.2907 21.1132 40.1657 20.9257 40.078C20.9153 40.073 20.9007 40.0687 20.8897 40.0637C20.8958 40.0581 20.9037 40.0569 20.9092 40.05C20.9538 39.994 20.93 39.9263 20.8249 39.8914C20.6936 39.8479 20.4988 39.8821 20.4884 39.9455C20.3718 39.9219 20.2502 39.9051 20.1311 39.8964C20.133 39.8833 20.1287 39.8697 20.1183 39.8572L18.9927 39.9866C19.0989 40.0258 19.2816 40.0108 19.3933 39.9617ZM60.8085 35.6496C60.8744 35.7118 61.0564 35.738 61.2152 35.7237C61.2568 35.7199 61.3001 35.7131 61.3252 35.6981C61.3618 35.6764 61.3441 35.6465 61.3233 35.6216C61.181 35.4574 60.6405 35.4923 60.8085 35.6496ZM60.1189 35.5576C60.111 35.5595 60.1037 35.5619 60.097 35.5644C60.0389 35.5881 60.02 35.6272 60.0518 35.6571C60.0982 35.7006 60.246 35.723 60.2997 35.6658C60.3193 35.6447 60.3107 35.6123 60.2808 35.5874C60.2484 35.5607 60.1916 35.5433 60.1189 35.5576ZM24.2476 40.0258C24.2378 40.0146 24.2274 40.0034 24.2177 39.9922C24.1951 39.9667 24.1035 39.9841 24.0485 40.0102C24.018 40.0251 24.0021 40.0419 24.0131 40.0562C23.9343 40.0382 23.8421 40.0376 23.7486 40.0674C23.5257 40.139 23.6967 40.3231 23.9294 40.3479C23.9172 40.3523 23.9056 40.3567 23.8934 40.3647C23.853 40.3927 23.8879 40.4319 23.9569 40.4437C23.985 40.4431 24.0131 40.4419 24.0412 40.4412C24.1053 40.4394 24.101 40.3971 24.0638 40.3672C24.0546 40.3598 24.0436 40.3535 24.0314 40.3486C24.0638 40.3448 24.0961 40.3405 24.1279 40.3293C24.1822 40.31 24.2128 40.2845 24.2256 40.2565C24.2525 40.1949 24.1896 40.1234 24.087 40.0805C24.09 40.0811 24.0906 40.0817 24.0937 40.0817C24.1651 40.0867 24.2421 40.0575 24.2476 40.0258ZM61.2391 35.9668C61.3014 35.9836 61.3954 35.9668 61.426 35.9376C61.4253 35.9252 61.4253 35.9133 61.4247 35.9015C61.4241 35.8742 61.3252 35.8767 61.2537 35.8941C61.1829 35.9102 61.1383 35.9401 61.2391 35.9668ZM60.3156 35.3548C60.1018 35.32 59.8557 35.5122 60.1006 35.5458C60.1434 35.552 60.1873 35.5495 60.2283 35.542C60.3956 35.5103 60.5147 35.3865 60.3156 35.3548ZM62.6487 37.2599C62.6505 37.2313 62.642 37.2027 62.6175 37.1741C62.5424 37.0864 62.2889 37.1007 62.1521 37.1616C62.0611 37.2021 62.0117 37.2562 61.964 37.3084C61.9384 37.3364 61.9139 37.3644 61.8889 37.393L62.6224 37.3153C62.6316 37.2966 62.6475 37.2786 62.6487 37.2599ZM62.2438 36.8382C62.2902 36.878 62.3867 36.9004 62.4911 36.9072C62.441 37.0347 62.9687 37.1629 63.1251 37.0291C63.1538 37.041 63.1922 37.0484 63.2326 37.0453C63.2564 37.0385 63.2802 37.0316 63.3046 37.0248C63.359 37.0092 63.3052 36.9744 63.2374 36.957C63.2063 36.9489 63.1733 36.9458 63.1452 36.9489C63.1434 36.9458 63.144 36.9427 63.1416 36.9396C63.1184 36.9104 63.0701 36.8836 63.0115 36.8618C63.1422 36.8227 63.2619 36.7238 63.2967 36.6784C63.3694 36.5838 63.4152 36.4793 63.4341 36.3811C63.4537 36.2797 63.5599 36.1659 63.5257 36.0632C63.516 36.0353 63.4958 36.0079 63.4604 35.9818C63.3504 35.9015 63.1049 35.9345 62.9938 36.0048C62.9199 36.0514 62.8924 36.108 62.8667 36.1621C62.7757 36.3537 62.6847 36.5484 62.7165 36.7412C62.7195 36.7592 62.7342 36.776 62.744 36.7934C62.5754 36.6442 62.0672 36.6871 62.2438 36.8382ZM62.1644 36.5882C62.1625 36.5764 62.1613 36.5639 62.1595 36.5521C62.1558 36.5247 62.0575 36.5297 61.9872 36.5478C61.9188 36.5658 61.8773 36.5963 61.9805 36.6211C62.044 36.6367 62.1369 36.6187 62.1644 36.5882ZM60.8861 36.2337C60.803 36.3238 60.7437 36.4321 60.8005 36.4986C60.8476 36.554 60.9728 36.5801 61.2268 36.5434C61.52 36.5005 61.779 36.3873 61.7973 36.2548C61.8181 36.1055 61.498 36.0029 61.2275 36.0452C61.0681 35.9992 60.8531 35.9917 60.7608 36.0782C60.7016 36.1348 60.7731 36.1932 60.8861 36.2337ZM38.7505 38.9902C38.4751 38.9037 37.9504 39.1432 38.2705 39.2346C38.3267 39.2508 38.3914 39.2545 38.4568 39.2502C38.7261 39.2321 39.0077 39.0711 38.7505 38.9902ZM39.7632 39.6619C39.7363 39.6302 39.6746 39.6091 39.5958 39.6501C39.5476 39.6756 39.5702 39.7173 39.6337 39.7322C39.6618 39.7328 39.6899 39.7341 39.718 39.7347C39.7815 39.7366 39.79 39.6936 39.7632 39.6619ZM38.6699 39.4648C38.6962 39.4685 38.7224 39.4728 38.7487 39.4766C38.8086 39.4853 38.8428 39.4449 38.836 39.4106C38.8293 39.3771 38.7841 39.3491 38.684 39.3802C38.6223 39.3988 38.6186 39.4424 38.6699 39.4648ZM58.1596 35.8866C58.0888 35.8729 58.0088 35.876 58.0149 35.9283C58.0192 35.96 58.1028 35.9824 58.1755 35.9743C58.1981 35.9662 58.2201 35.9588 58.2427 35.9507C58.2928 35.9333 58.2311 35.9009 58.1596 35.8866ZM44.1875 38.3129C43.9181 38.3067 43.5675 38.441 43.7783 38.543C43.8418 38.5741 43.937 38.5797 44.0354 38.571C44.0659 38.576 44.1007 38.5772 44.1416 38.5648C44.152 38.5617 44.16 38.5554 44.1691 38.5505C44.3658 38.5069 44.5179 38.4143 44.3609 38.3446C44.3139 38.3247 44.2528 38.3147 44.1875 38.3129ZM43.5016 38.3154C43.4539 38.3384 43.4338 38.3682 43.4869 38.3919C43.493 38.3944 43.5004 38.3962 43.5083 38.3981C43.5773 38.4124 43.6683 38.4049 43.7239 38.3807C43.8051 38.3452 43.8076 38.2768 43.6659 38.2774C43.614 38.2774 43.5462 38.2936 43.5016 38.3154ZM44.1435 39.0872C44.1655 39.1115 44.2217 39.1227 44.3334 39.1053C44.4623 39.0854 44.5747 39.0337 44.5802 38.9753C44.5881 38.8882 44.3365 38.8384 44.2235 38.9236C44.1685 38.9647 44.105 39.0456 44.1435 39.0872ZM53.8642 38.1792C54.2081 38.0747 54.0267 37.8576 53.7024 37.9708C53.5747 38.0156 53.5503 38.0989 53.6126 38.1617C53.6291 38.1779 53.6523 38.1947 53.6914 38.2009C53.7488 38.2103 53.8129 38.1947 53.8642 38.1792ZM36.3674 40.0712C36.3869 40.0824 36.4199 40.0867 36.4456 40.0954L38.5001 39.8771C38.4836 39.8305 38.3224 39.8019 38.1697 39.7882C38.1245 39.7229 38.0488 39.67 37.9285 39.6451C37.7996 39.6184 37.6243 39.6234 37.3947 39.6781C37.2627 39.7092 37.1326 39.767 37.0197 39.8361C36.8529 39.8448 36.6807 39.8529 36.5353 39.8846C36.4901 39.8945 36.451 39.9095 36.412 39.9244C36.3912 39.8815 36.3405 39.8429 36.2312 39.8174C36.0925 39.7857 35.9221 39.8298 35.7914 39.8721C35.7206 39.8952 35.6504 39.9182 35.5795 39.9406C35.4732 39.8889 35.3352 39.8678 35.2057 39.9462C35.1575 39.9754 35.1465 40.0133 35.1563 40.0494C35.163 40.0724 35.1856 40.0954 35.2137 40.1178C35.1825 40.1564 35.1868 40.1925 35.2088 40.226L36.3203 40.1079C36.3362 40.096 36.3558 40.0842 36.3674 40.0712ZM21.5389 41.2274C21.545 41.2299 21.553 41.2317 21.5609 41.2336C21.6305 41.2467 21.7215 41.238 21.7753 41.2131C21.8534 41.1764 21.8516 41.108 21.7093 41.1105C21.6574 41.1117 21.5902 41.1285 21.5475 41.1509C21.5016 41.1745 21.4833 41.2044 21.5389 41.2274ZM18.8717 40.9923C18.8528 40.9749 18.8198 40.9631 18.7795 40.9562C18.6146 40.9276 18.3306 40.9817 18.4112 41.0663C18.4974 41.1571 18.9799 41.0924 18.8717 40.9923ZM23.3223 39.9343C23.2087 40.0233 23.6112 40.1433 23.7291 40.0413C23.7498 40.0233 23.7517 40.0046 23.7401 39.986C23.6943 39.9119 23.4286 39.8516 23.3223 39.9343ZM19.4074 41.7592C19.3658 41.7368 19.3078 41.7243 19.2431 41.72C18.9774 41.7026 18.6 41.822 18.7856 41.9327C18.8088 41.9464 18.8388 41.9557 18.8724 41.9626L19.3365 41.9134C19.4483 41.8705 19.5057 41.812 19.4074 41.7592ZM22.8062 41.4588C22.8649 41.4507 22.8887 41.4221 22.882 41.3966C23.1867 41.4382 23.5727 41.182 23.2295 41.1192C23.1672 41.108 23.1018 41.1086 23.0383 41.1179C22.8184 41.1503 22.6346 41.2828 22.7574 41.3586C22.7262 41.368 22.6981 41.3872 22.6865 41.4084C22.667 41.442 22.6896 41.4749 22.8062 41.4588ZM18.6152 41.3524C18.2201 41.4103 18.2451 41.6441 18.6281 41.5745C18.7783 41.5471 18.8577 41.4693 18.8412 41.4003C18.8369 41.3823 18.8253 41.3636 18.793 41.3524C18.7453 41.3369 18.6745 41.3437 18.6152 41.3524ZM18.0906 40.5619C18.3453 40.6589 18.9169 40.4406 18.6189 40.3367C18.567 40.3187 18.5035 40.3119 18.4375 40.3137C18.1669 40.3212 17.853 40.4711 18.0906 40.5619ZM18.7746 40.0954C18.8485 40.0905 18.8992 40.0525 18.8791 40.022C18.8656 40.0152 18.8522 40.009 18.8382 40.0021L18.7111 40.0164C18.6989 40.0233 18.6842 40.0283 18.6763 40.0363C18.6452 40.0687 18.6543 40.1029 18.7746 40.0954ZM25.8948 40.371C25.9711 40.3641 26.0359 40.3343 26.0463 40.3007C26.0621 40.2522 25.9681 40.1987 25.8527 40.2366C25.8105 40.2503 25.7775 40.2808 25.772 40.3094C25.7659 40.3399 25.791 40.3678 25.8685 40.3722C25.8771 40.3722 25.8862 40.3722 25.8948 40.371ZM34.0954 40.0363C34.2029 39.9829 34.1919 39.8995 34.1039 39.8429C34.0807 39.828 34.0508 39.8143 34.0099 39.8112C33.9494 39.8062 33.8926 39.8267 33.848 39.846C33.5506 39.9741 33.8218 40.1719 34.0954 40.0363ZM33.2128 40.0164C33.2898 40.0115 33.3582 39.9835 33.3741 39.9505C33.3967 39.902 33.3112 39.846 33.1902 39.8808C33.1463 39.8933 33.109 39.9225 33.0992 39.9511C33.0889 39.9816 33.1096 40.0102 33.1866 40.0164C33.1951 40.0177 33.2043 40.0171 33.2128 40.0164ZM38.3132 38.6195C38.5759 38.5959 38.7908 38.5163 38.8483 38.4429C38.8629 38.4236 38.8684 38.4037 38.833 38.3906C38.8067 38.3813 38.7646 38.3776 38.7169 38.3776C38.9228 38.3396 39.0938 38.2476 38.9429 38.1736C38.8989 38.1518 38.8391 38.1406 38.7737 38.1375C38.5062 38.1257 38.141 38.2519 38.3383 38.3589C38.3761 38.3794 38.4305 38.3881 38.4885 38.3919C37.8759 38.4522 37.6726 38.6767 38.3132 38.6195ZM54.704 37.569C54.7626 37.5572 54.7223 37.5193 54.6619 37.4975C54.602 37.4763 54.5232 37.4714 54.4994 37.5224C54.4847 37.5541 54.5525 37.5846 54.6264 37.5846C54.6521 37.5796 54.6777 37.574 54.704 37.569ZM34.7025 39.3795C34.8087 39.3428 34.8747 39.28 34.8374 39.2259C34.904 39.2353 34.9779 39.2408 35.0475 39.2433C35.1721 39.2477 35.2961 39.252 35.4207 39.2564C35.6137 39.3789 36.1365 39.4461 35.9875 39.2234C35.9795 39.2116 35.9667 39.1979 35.9502 39.1842C35.9979 39.1625 36.0363 39.1382 36.051 39.1109C36.0846 39.0493 36.0223 38.9784 35.8427 38.9168C36.1072 38.8546 36.3637 38.7862 36.5879 38.6997C36.6404 38.6792 36.6929 38.6574 36.7234 38.6301C36.903 38.469 36.3179 38.51 36.1451 38.538C35.9276 38.5722 35.7078 38.622 35.5135 38.6774C35.3132 38.7346 35.0408 38.7688 34.8692 38.8459C34.8222 38.867 34.7825 38.8913 34.7538 38.9199C34.7281 38.9454 34.7318 38.9678 34.747 38.9883C34.6499 39.0337 34.5992 39.0903 34.6499 39.1575C34.6512 39.1594 34.6548 39.16 34.6567 39.1619C34.5681 39.1575 34.4783 39.1768 34.4557 39.2278C34.4356 39.2732 34.438 39.3578 34.507 39.3907C34.5473 39.4094 34.6096 39.4113 34.7025 39.3795ZM25.5002 40.4574C25.2584 40.5134 25.1167 40.7043 25.4251 40.741C25.6297 40.7653 25.8252 40.6608 25.8575 40.5687C25.8618 40.5718 25.863 40.5743 25.8685 40.5774C26.0114 40.6533 26.439 40.5345 26.2686 40.4524C26.2386 40.4381 26.199 40.4307 26.1556 40.4288C26.0371 40.4238 25.8924 40.4599 25.8465 40.5059C25.8246 40.4767 25.7775 40.4537 25.6902 40.445C25.6242 40.4381 25.5589 40.4437 25.5002 40.4574ZM34.1803 38.8745C34.2169 38.9019 34.3165 38.9056 34.3745 38.8845C34.3867 38.8733 34.3995 38.8621 34.4117 38.8509C34.4398 38.8254 34.3507 38.8092 34.2707 38.8105C34.1919 38.8117 34.1216 38.8304 34.1803 38.8745ZM34.4209 38.4877C34.3531 38.4932 34.2975 38.5094 34.2554 38.5318C34.0813 38.6239 34.1253 38.8204 34.4472 38.8005C34.7929 38.7794 34.8075 38.4566 34.4209 38.4877ZM26.8708 40.9674C26.9215 40.9009 26.8341 40.8275 26.6998 40.792C26.665 40.7827 26.6234 40.7752 26.5819 40.7796C26.5208 40.7858 26.4866 40.8138 26.4628 40.8387C26.3046 41.0047 26.7413 41.1366 26.8708 40.9674ZM10.9417 41.914C10.9381 41.9626 10.9875 42.0136 11.1048 42.0639C10.9808 42.0366 10.8147 42.0409 10.7787 42.1069C10.7261 42.2051 11.1952 42.2704 11.2428 42.1591C11.2514 42.1398 11.2404 42.1218 11.2184 42.1062C11.219 42.1062 11.219 42.1069 11.2196 42.1069C11.4755 42.1871 11.9818 42.2082 12.3788 42.1653C12.3434 42.1852 12.311 42.2057 12.2866 42.2281C12.2573 42.2543 12.2384 42.2829 12.2329 42.3133C12.217 42.4085 12.4576 42.4396 12.6384 42.4066C12.7587 42.3849 12.854 42.3438 12.9462 42.3034C13.1362 42.2207 13.3243 42.1361 13.4959 42.0459C13.5374 42.0428 13.5777 42.0391 13.6107 42.0316C13.6529 42.0229 13.6907 42.0098 13.6889 41.9893C13.6883 41.9794 13.6687 41.9688 13.6529 41.9588C13.7127 41.9227 13.7707 41.8854 13.8214 41.8469C13.8562 41.8201 13.8892 41.7921 13.8972 41.7629C13.9454 41.5875 13.4171 41.7094 13.2724 41.7592C13.2235 41.776 13.1783 41.7959 13.1307 41.8152C13.0592 41.8077 12.9969 41.8071 12.9407 41.8089C12.9218 41.7803 12.8943 41.7536 12.8558 41.7293C12.7105 41.6398 12.4582 41.5944 12.1999 41.5869C12.2255 41.58 12.2506 41.5713 12.261 41.5595C12.2597 41.5533 12.2585 41.5471 12.2573 41.5409C12.413 41.4886 12.5059 41.4053 12.3562 41.3481C12.3062 41.3288 12.2439 41.3207 12.1779 41.3213C12.1242 41.3213 12.0692 41.3288 12.0154 41.3387C12.027 41.3294 12.0429 41.3207 12.0417 41.3107C12.0289 41.3002 12.016 41.2896 12.0032 41.279C11.9739 41.2548 11.8872 41.2765 11.8389 41.3051C11.7943 41.3319 11.787 41.3636 11.8884 41.3704C11.7412 41.4214 11.6606 41.5011 11.8041 41.562C11.8634 41.5869 11.944 41.5931 12.027 41.5875C11.5623 41.6068 10.9546 41.748 10.9417 41.914ZM9.7019 41.5396C9.91811 41.3991 10.1319 41.2554 10.2797 41.1005C10.3633 41.113 10.4507 41.1098 10.5026 41.0843C10.6278 41.1273 10.7713 41.1422 10.8971 41.1235C10.9704 41.1565 11.0859 41.1608 11.2013 41.1011C11.3064 41.0464 11.2917 40.9637 11.2007 40.9077C11.1976 40.9058 11.1934 40.9046 11.1903 40.9027C11.1903 40.8971 11.186 40.8903 11.1842 40.8841L9.63594 41.0626C9.61335 41.0763 9.5883 41.0893 9.56632 41.103L9.54494 41.6267C9.60235 41.6 9.65488 41.5707 9.7019 41.5396ZM13.0122 41.0831C13.171 41.07 13.2864 41.0004 13.3041 40.9307C13.3084 40.9127 13.3066 40.8934 13.2809 40.8791C13.243 40.8586 13.171 40.8592 13.1087 40.8623C12.6976 40.8841 12.6079 41.1167 13.0122 41.0831ZM25.9174 39.461C25.8924 39.4361 25.802 39.4554 25.7494 39.4822C25.6987 39.5083 25.6847 39.5419 25.7965 39.5506C25.7916 39.5742 25.8191 39.5929 25.9113 39.5854C25.9852 39.5792 26.0322 39.5406 26.0096 39.5102C25.9907 39.5015 25.9711 39.4927 25.9522 39.4847C25.9485 39.4828 25.9437 39.4834 25.9394 39.4828C25.9321 39.4759 25.9247 39.4685 25.9174 39.461ZM16.7366 40.4176C16.896 40.4238 17.0505 40.3703 17.1128 40.3056C17.1287 40.2889 17.1397 40.2696 17.1244 40.2528C17.1024 40.2291 17.0377 40.2211 16.9784 40.2161L16.6327 40.2559C16.4837 40.3131 16.4733 40.407 16.7366 40.4176ZM57.726 36.3039C57.0719 36.2393 56.6334 36.4333 57.293 36.4856C57.3712 36.4918 57.4487 36.4912 57.5239 36.4874C57.4945 36.5098 57.4628 36.5316 57.4365 36.5546C57.406 36.582 57.3773 36.6106 57.3736 36.6404C57.3528 36.8133 57.8451 36.6846 57.9911 36.6286C58.0528 36.6541 58.1352 36.6715 58.2219 36.6759C58.2635 36.6777 58.3087 36.6771 58.3429 36.6659C58.3936 36.6498 58.3985 36.6187 58.3966 36.5919C58.393 36.5459 58.3545 36.5098 58.3007 36.4837C58.3129 36.4775 58.3233 36.4706 58.3355 36.4644C58.3368 36.4644 58.3368 36.4657 58.3386 36.4657C58.4033 36.4762 58.5121 36.4557 58.6043 36.4358C59.124 36.3214 59.237 36.1161 58.8968 36.1441C58.9017 36.1397 58.909 36.136 58.9133 36.1317C58.9261 36.118 58.9274 36.1018 58.9341 36.0869C58.9677 36.0894 58.9933 36.0937 59.0349 36.095C59.2492 36.1018 59.4526 36.0676 59.5778 36.0209C59.5687 36.0315 59.5601 36.0421 59.5564 36.0539C59.4844 36.0726 59.4441 36.1099 59.4886 36.1677C59.5045 36.1883 59.5357 36.2044 59.5717 36.2187C59.5735 36.2274 59.568 36.238 59.5729 36.2461C59.6084 36.3027 59.7268 36.3338 59.9864 36.3071C60.2863 36.276 60.5672 36.1721 60.613 36.0415C60.6814 35.8462 60.1483 35.7069 59.8459 35.8866C59.8197 35.9022 59.7916 35.9233 59.7641 35.9438C59.7494 35.9457 59.736 35.9444 59.7207 35.9476C59.7067 35.9507 59.6969 35.9556 59.6847 35.9594C59.689 35.9507 59.6871 35.942 59.6749 35.9339C59.6371 35.909 59.5228 35.9003 59.4221 35.8953C59.1362 35.881 58.9084 35.9127 58.7857 35.9538C58.7203 35.9463 58.647 35.9482 58.5774 35.9594C58.5695 35.9575 58.5615 35.9556 58.553 35.9544C58.4803 35.9451 58.4052 35.9525 58.4204 35.9998C58.3563 36.0228 58.2971 36.0489 58.2421 36.0757C58.087 36.1528 57.9312 36.2312 57.7889 36.3126C57.7669 36.3095 57.7468 36.3064 57.726 36.3039ZM23.3131 39.6003C23.2716 39.6669 23.3748 39.7104 23.5061 39.7241C23.5697 39.7608 23.6368 39.7956 23.7107 39.8236C23.6527 39.8597 23.6375 39.9032 23.7278 39.9325C23.8158 39.9605 23.9428 39.9381 24.0277 39.9008C24.0332 39.9014 24.0381 39.9032 24.0436 39.9032C24.3258 39.9294 24.6348 39.8442 24.7515 39.7266C24.8498 39.6271 24.8205 39.5151 24.7179 39.4194C24.8254 39.3789 24.9255 39.336 25.0208 39.29L23.2435 39.4946C23.2649 39.527 23.2875 39.5599 23.3223 39.5923C23.3205 39.5954 23.315 39.5972 23.3131 39.6003ZM26.8818 39.1787C26.9374 39.2035 27.0204 39.2141 27.1053 39.2153C27.4089 39.2191 27.8095 39.0567 27.5927 38.9939L26.8164 39.0835C26.7914 39.1115 26.8024 39.1432 26.8818 39.1787ZM51.161 37.1044C50.9467 37.0708 50.7042 37.263 50.9497 37.2966C50.9925 37.3022 51.0364 37.3003 51.0774 37.2922C51.2441 37.2599 51.3607 37.1355 51.161 37.1044ZM48.9849 36.7623C48.9312 36.7449 48.867 36.7393 48.8017 36.7418C48.5317 36.753 48.2294 36.9072 48.4743 36.9943C48.5549 37.0229 48.6618 37.0192 48.7638 37.0005C48.7534 37.0347 48.795 37.0721 48.8982 37.1119C48.9061 37.1324 48.9159 37.1542 48.9397 37.1809C49.0326 37.2866 49.2463 37.3594 49.4216 37.3669C49.4674 37.3687 49.5144 37.3663 49.5383 37.3482C49.5737 37.3215 49.545 37.273 49.5138 37.2319C49.5041 37.2195 49.4906 37.2095 49.479 37.1983C49.5944 37.1958 49.708 37.1846 49.807 37.1567C50.1936 37.0453 50.1087 36.776 49.6048 36.7996C49.454 36.8065 49.2335 36.8339 49.0533 36.8737C49.0857 36.8332 49.0771 36.7922 48.9849 36.7623ZM49.9444 38.056C49.9285 38.0946 49.9481 38.135 49.9945 38.1661C49.9951 38.1816 50.0043 38.1978 50.0189 38.2127C50.1808 38.3732 50.7176 38.3266 50.5301 38.1729C50.502 38.1499 50.4544 38.1338 50.4013 38.1226C50.397 38.1126 50.3878 38.102 50.3725 38.0915C50.3164 38.0535 50.182 37.9944 50.0769 37.9907C50.0159 37.9888 49.9652 38.0056 49.9444 38.056ZM50.3701 37.2698C50.3426 37.2388 50.2809 37.2176 50.2028 37.2587C50.1551 37.2842 50.1783 37.3258 50.2425 37.3408C50.2706 37.3414 50.2986 37.342 50.3267 37.3426C50.3903 37.3445 50.3982 37.3022 50.3701 37.2698ZM42.3008 38.145C42.0181 38.2215 41.9203 38.3365 42.0058 38.418C42.07 38.4789 42.2373 38.5212 42.5079 38.5138C42.7247 38.5076 43.0105 38.4031 43.1583 38.2868C43.1724 38.2924 43.1834 38.2986 43.2017 38.3029C43.4973 38.3763 43.9645 38.1157 43.6231 38.0398C43.5633 38.0268 43.4979 38.0255 43.4332 38.0324C43.3581 38.0411 43.286 38.0616 43.2255 38.0871C43.1999 38.0597 43.1596 38.0342 43.0893 38.0143C42.958 37.977 42.7797 38.015 42.6416 38.0523C42.5286 38.0834 42.4151 38.1139 42.3008 38.145ZM52.2121 37.3955C52.2335 37.4123 52.2683 37.4235 52.3099 37.4291C52.3764 37.4384 52.4595 37.434 52.531 37.421C52.6329 37.4975 52.7862 37.5584 53.0073 37.5926C54.0584 37.7575 54.9092 37.2941 55.0949 36.8345C55.1077 36.8438 55.1205 36.8525 55.1334 36.8618C55.1657 36.8849 55.25 36.8612 55.2946 36.8314C55.3007 36.827 55.3038 36.8233 55.308 36.8189C55.3612 36.8488 55.4186 36.8768 55.4778 36.9041C55.4931 36.9135 55.512 36.9209 55.531 36.929C55.5493 36.9371 55.5646 36.9458 55.5835 36.9533C55.633 36.9738 55.6855 36.9931 55.7502 37.003C56.1289 37.0609 56.0122 36.814 55.942 36.743C55.8541 36.6535 55.7307 36.5652 55.5951 36.488C55.5304 36.4513 55.476 36.4072 55.418 36.3643C55.4791 36.3581 55.5352 36.3437 55.5725 36.3133C55.6049 36.2865 55.6091 36.2585 55.5939 36.2312C55.5835 36.2119 55.5609 36.1939 55.534 36.1771C55.5591 36.1708 55.5872 36.1659 55.6073 36.1584C55.6427 36.1453 55.6714 36.1285 55.6574 36.1093C55.6366 36.0807 55.5334 36.0589 55.4406 36.0427C54.9367 35.9532 54.5202 36.0452 54.7223 36.1348C54.7095 36.1404 54.701 36.1516 54.69 36.159C54.1323 35.9165 53.4312 36.0974 52.9469 36.4078C52.7698 36.4339 52.5786 36.4557 52.4338 36.5042C52.3801 36.5223 52.3331 36.544 52.2952 36.5708C52.1785 36.6535 52.3532 36.73 52.545 36.7368C52.5511 36.7368 52.5566 36.7362 52.5627 36.7362C52.4039 36.9234 52.3386 37.1162 52.4137 37.2754C52.2708 37.291 52.1401 37.3395 52.2121 37.3955ZM51.6918 37.6685C51.6826 37.6648 51.6759 37.6586 51.6661 37.6555C51.6307 37.643 51.5886 37.6349 51.547 37.6449C51.4847 37.6598 51.4493 37.709 51.4249 37.7519C51.2612 38.038 51.7028 38.2152 51.8371 37.9273C51.8536 37.8918 51.853 37.8576 51.8451 37.8246C51.8701 37.8103 51.8903 37.7942 51.8988 37.7767C51.9294 37.7139 51.8127 37.6611 51.6918 37.6685ZM51.2765 37.3594C51.1 37.4913 51.6942 37.6772 51.8781 37.5255C51.9104 37.4987 51.9147 37.4707 51.8988 37.4434C51.8353 37.3308 51.4414 37.2363 51.2765 37.3594ZM44.1502 37.6946C44.2235 37.6884 44.2711 37.6499 44.2485 37.62C44.2705 37.62 44.2937 37.62 44.3188 37.615C44.3609 37.607 44.3914 37.5926 44.4116 37.5759C44.4928 37.505 44.3933 37.3818 44.1893 37.416C44.0415 37.4409 44.0439 37.5423 44.1343 37.5926C44.1001 37.5995 44.0653 37.6181 44.047 37.6387C44.0183 37.6698 44.0305 37.704 44.1502 37.6946ZM47.7817 37.6934C47.7298 37.6803 47.6681 37.6866 47.6003 37.7289C47.5222 37.778 47.502 37.847 47.5796 37.8931C47.6455 37.9322 47.7616 37.9397 47.8465 37.9217C47.8172 37.9696 47.8672 38.0193 48.067 38.0653C48.3326 38.1263 48.6942 38.1244 48.9275 38.0349C49.275 37.9011 49.0997 37.6418 48.6063 37.6965C48.4096 37.7183 48.1036 37.7811 47.9436 37.8557C47.9442 37.8501 47.9466 37.8458 47.9454 37.8396C47.9332 37.7954 47.8721 37.7158 47.7817 37.6934ZM43.308 37.5174C43.3074 37.505 43.3074 37.4931 43.3067 37.4807C43.3061 37.4533 43.2072 37.4564 43.1357 37.4732C43.0655 37.49 43.0209 37.5199 43.1211 37.5466C43.1828 37.5634 43.2774 37.5472 43.308 37.5174ZM43.766 38.2302C43.8564 38.3116 44.1587 38.2998 44.3371 38.2457C44.356 38.2538 44.3725 38.2625 44.4012 38.2675C44.4629 38.2793 44.5289 38.2787 44.5924 38.2693C44.8526 38.2326 45.0706 38.0548 44.7854 37.9938C44.6425 37.9633 44.4751 38.0075 44.3701 38.0684C44.3481 38.0616 44.3243 38.0554 44.298 38.0517C44.0458 38.0156 43.6286 38.1064 43.766 38.2302ZM45.1689 37.6915C45.1915 37.699 45.2184 37.7009 45.2441 37.704C45.2722 37.7444 45.3387 37.7817 45.459 37.8066C45.6478 37.8458 45.9953 37.8819 46.2261 37.8588C46.2469 37.8987 46.308 37.9304 46.4253 37.9378C46.7667 37.9596 46.9939 37.648 46.6066 37.6312C46.5389 37.6281 46.4753 37.6374 46.4204 37.6536C46.4143 37.6555 46.41 37.658 46.4045 37.6598C46.3257 37.5721 46.1608 37.4975 45.9599 37.4651C45.9745 37.4564 45.9861 37.4465 45.9873 37.4359C45.991 37.4092 45.9379 37.3893 45.8878 37.3737C45.6362 37.2978 45.3351 37.3694 45.3558 37.4471C45.1292 37.4931 44.9491 37.6219 45.1689 37.6915ZM45.9843 39.0822C46.049 39.0331 46.0649 38.9765 46.0802 38.9212C46.1119 38.8036 46.1406 38.6854 46.1455 38.5679C46.242 38.6226 46.344 38.6755 46.4607 38.7228C46.5101 38.7427 46.5639 38.7619 46.6286 38.7719C46.727 38.7862 46.7905 38.7806 46.8314 38.7626C46.8424 38.7787 46.8607 38.7943 46.8949 38.8086C46.9688 38.8397 47.0739 38.8403 47.1777 38.8254C47.1765 38.8758 47.2162 38.9212 47.2986 38.9429L47.6205 38.9087C47.7854 38.8241 47.7823 38.6568 47.5142 38.645C47.5057 38.6263 47.4861 38.6089 47.4458 38.5934C47.4318 38.5878 47.4153 38.5853 47.3994 38.5816C47.4544 38.4864 47.3707 38.372 47.1209 38.3888C46.8839 38.4043 46.8106 38.5592 46.9096 38.6456C46.9029 38.6494 46.8955 38.6525 46.8888 38.6562C46.8815 38.6002 46.8448 38.5399 46.8149 38.51C46.7251 38.4211 46.5999 38.3328 46.4625 38.2569C46.3208 38.1785 46.228 38.066 46.0429 38.0019C45.9922 37.9845 45.9342 37.9702 45.8658 37.9621C45.6563 37.936 45.5171 38.0299 45.5397 38.1126C45.5543 38.1673 45.6203 38.2159 45.6844 38.2625C45.6911 38.2675 45.6978 38.2725 45.7046 38.2768C45.6264 38.3259 45.5665 38.39 45.5476 38.4236C45.5256 38.4628 45.5116 38.5044 45.4994 38.5455C45.3094 38.5579 45.139 38.6127 45.1946 38.6997C45.2263 38.7489 45.3369 38.7725 45.4609 38.7781C45.4426 38.8658 45.3949 38.9597 45.4407 39.0437C45.456 39.0717 45.4816 39.0978 45.5226 39.1227C45.5287 39.1264 45.5372 39.1277 45.5445 39.1295L45.9843 39.0822ZM45.5598 37.9584C45.6343 37.9546 45.6875 37.9167 45.6691 37.8862C45.6514 37.8769 45.6337 37.8682 45.616 37.8588C45.5757 37.8383 45.5 37.8669 45.4658 37.8987C45.4328 37.9298 45.4395 37.9646 45.5598 37.9584ZM34.8454 40.254C34.8918 40.1987 34.9028 40.1421 34.8875 40.0917C34.8967 40.0873 34.904 40.0855 34.9132 40.0805C35.0836 39.9897 35.1318 39.8709 35.0665 39.8006C35.0494 39.7826 35.0225 39.7658 34.9755 39.767C34.9052 39.7683 34.8209 39.8043 34.7525 39.8379C34.6768 39.8746 34.6249 39.9119 34.5828 39.948C34.3549 39.9256 34.0612 39.971 34.1039 40.083C34.1277 40.1446 34.2725 40.1738 34.427 40.1769C34.4105 40.2285 34.4172 40.2733 34.4392 40.3088L34.8319 40.2671C34.8362 40.2621 34.8411 40.2596 34.8454 40.254ZM9.62373 42.156C9.60235 42.1236 9.56876 42.0925 9.52662 42.0639L9.51562 42.3364C9.63228 42.3121 9.69152 42.2586 9.62373 42.156ZM17.8548 40.1222C17.839 40.1533 17.8506 40.1844 17.9287 40.2018C18.0869 40.2366 18.2952 40.1359 18.2708 40.0674L17.1519 40.1962C17.3815 40.2403 17.6716 40.2043 17.8548 40.1222ZM13.7359 41.1441C13.6883 41.1671 13.6669 41.1969 13.7207 41.2206C13.7268 41.223 13.7341 41.2249 13.742 41.2268C13.8104 41.2411 13.9021 41.2342 13.9576 41.21C14.0389 41.1745 14.0431 41.1061 13.9008 41.1061C13.8489 41.1067 13.7811 41.1223 13.7359 41.1441ZM15.57 40.7298C15.6909 40.7684 15.8809 40.7709 16.1069 40.7149C16.0195 40.7808 15.9401 40.8505 15.8815 40.9201C15.8449 40.9631 15.7911 41.006 15.7398 41.0495C15.7105 41.0383 15.6769 41.0302 15.6445 41.0215C15.6677 41.0072 15.6793 40.9898 15.6696 40.9736C15.6519 40.9643 15.6335 40.9556 15.6158 40.9463C15.5755 40.9257 15.4998 40.9544 15.4662 40.9867C15.4656 40.9873 15.4656 40.9873 15.4656 40.9879C15.4143 40.9823 15.3636 40.9755 15.3092 40.9761C14.853 40.9799 14.5788 41.2311 15.0179 41.3306C15.1688 41.3649 15.4283 41.4003 15.6451 41.4015C15.6335 41.4339 15.6299 41.4693 15.6427 41.5116C15.6732 41.6136 15.8516 41.7337 16.08 41.8257C15.9658 41.8842 15.9328 41.9663 16.0751 42.0453C16.1728 42.0994 16.3561 42.1697 16.5387 42.2101L17.0267 42.1585C17.0413 42.1386 17.0523 42.1156 17.0584 42.0876C17.0682 42.0378 17.0468 41.9874 17.0102 41.9402C17.1903 41.8991 17.332 41.8201 17.3705 41.7337C17.4255 41.6093 17.3015 41.4818 17.0975 41.3959C17.0658 41.3829 17.0285 41.3704 16.9906 41.358C17.0126 41.307 17.0138 41.2554 16.9986 41.2069C17.0596 41.2168 17.1238 41.223 17.1879 41.2255C17.1641 41.2373 17.1451 41.2523 17.1323 41.2672C16.9876 41.4364 17.4346 41.5608 17.5507 41.3897C17.5953 41.3244 17.5073 41.2554 17.376 41.2206C17.536 41.2025 17.6142 41.149 17.412 41.0564C17.2649 40.9892 16.8019 40.9046 16.739 41.0396C16.695 41.0327 16.6511 41.0259 16.5949 41.0265C16.5423 41.0271 16.4978 41.0371 16.4562 41.0501C16.5814 40.9376 16.6895 40.8219 16.7592 40.7025C16.7738 40.7037 16.7866 40.7062 16.8019 40.7068C16.9766 40.7137 17.1922 40.6645 17.3046 40.6092C17.3308 40.6222 17.3711 40.626 17.4304 40.6042C17.4884 40.583 17.4847 40.5401 17.4291 40.5196C17.4035 40.5165 17.3778 40.514 17.3522 40.5109C17.3174 40.4898 17.2471 40.473 17.1128 40.4667C17.0077 40.4618 16.8379 40.4748 16.7048 40.5016C16.6156 40.4835 16.4898 40.5159 16.3805 40.5582C16.4648 40.4674 16.4941 40.3598 16.4342 40.2789L15.6244 40.3722C15.5951 40.3927 15.5664 40.4139 15.537 40.4344C15.366 40.5575 15.4033 40.677 15.57 40.7298ZM13.9027 41.9955C13.5814 42.2586 13.9033 42.4788 14.197 42.2113C14.3125 42.1062 14.2929 41.9868 14.1891 41.9271C14.1622 41.9116 14.1268 41.8985 14.0804 41.9041C14.0132 41.9122 13.9509 41.9563 13.9027 41.9955ZM64.4791 34.8119C64.4913 34.815 64.4999 34.815 64.5109 34.8175C64.2232 34.9008 64.1859 35.014 64.5267 34.9997L64.5591 34.7354L64.368 34.7571C64.3997 34.7776 64.4321 34.7988 64.4791 34.8119ZM60.8054 35.208C60.7492 35.3231 61.0039 35.483 61.2727 35.4002C61.3924 35.3635 61.4003 35.2939 61.3496 35.2317C61.4205 35.2416 61.4992 35.2335 61.5139 35.1913C61.5218 35.1689 61.4956 35.1384 61.4528 35.1179C61.4345 35.1092 61.4119 35.1042 61.3893 35.1004L61.2598 35.1154C61.2446 35.1253 61.2409 35.1378 61.2372 35.1502C61.2104 35.139 61.1774 35.1353 61.1462 35.1284L60.8537 35.162C60.8305 35.1763 60.8134 35.1913 60.8054 35.208ZM58.6037 35.5613C58.7838 35.6154 59.1686 35.6036 59.4496 35.5433C59.4453 35.5501 59.4343 35.5557 59.4343 35.5632C59.4343 35.6123 59.5448 35.659 59.6481 35.6148C59.6859 35.5986 59.7091 35.5669 59.7055 35.5389C59.7024 35.5159 59.6743 35.4991 59.6291 35.4904C59.7458 35.4431 59.8117 35.3834 59.7586 35.31C59.7531 35.3026 59.7403 35.2976 59.7317 35.292L58.3783 35.4481C58.4156 35.4867 58.4864 35.5259 58.6037 35.5613ZM62.8789 34.9941C62.9217 34.9997 62.9705 35.0003 63.0188 34.9966C62.9993 35.0127 62.984 35.0302 62.9742 35.0488C62.805 35.0053 62.5815 35.0034 62.5027 35.0942C62.4435 35.162 62.5662 35.2286 62.722 35.2622C62.6957 35.2839 62.6768 35.3094 62.6701 35.3393C62.6487 35.4431 62.6982 35.6316 62.8716 35.6994C62.9718 35.7386 63.1135 35.7373 63.3065 35.6565C63.53 35.5626 63.6485 35.4127 63.5282 35.2939C63.5141 35.2796 63.4927 35.269 63.4732 35.2572C63.5019 35.2634 63.5343 35.2678 63.566 35.264C63.588 35.2559 63.6106 35.2485 63.6326 35.2404C63.6833 35.2223 63.621 35.1906 63.5489 35.1763C63.4781 35.1626 63.3975 35.1664 63.4048 35.218C63.4054 35.2223 63.4164 35.2242 63.4194 35.2279C63.3993 35.2199 63.3779 35.2124 63.3553 35.2062C63.3657 35.2024 63.3779 35.2 63.3871 35.1956C63.5789 35.1098 63.5746 34.912 63.2509 34.9201C63.2472 34.9201 63.2442 34.9213 63.2405 34.9213C63.246 34.9114 63.2381 34.8996 63.2319 34.889L62.7678 34.9425C62.7708 34.9487 62.7708 34.9549 62.7794 34.9617C62.802 34.9779 62.8374 34.9885 62.8789 34.9941ZM31.2798 40.4344C31.2114 40.4375 31.1528 40.4518 31.1063 40.4723C31.0178 40.5115 30.9738 40.575 30.9805 40.6309C30.8694 40.6284 30.7741 40.6602 30.7094 40.7043L31.5198 40.6179C31.5699 40.5283 31.5052 40.4251 31.2798 40.4344ZM37.2505 38.6668C37.0691 38.7196 36.903 38.826 36.7937 38.9417C36.5756 39.0256 36.5121 39.1301 36.6062 39.2017C36.6221 39.2135 36.6447 39.2241 36.6691 39.234C36.6758 39.2639 36.6899 39.2919 36.7143 39.3161C36.7479 39.3497 36.8047 39.3758 36.87 39.3976C36.8621 39.405 36.856 39.4138 36.8541 39.4237C36.837 39.5214 37.3024 39.5543 37.3305 39.4505C37.3702 39.4486 37.4099 39.4492 37.4478 39.4442C37.7306 39.4088 37.9504 39.3012 38.0537 39.1824C38.2204 38.9896 38.1532 38.6711 37.777 38.612C37.6426 38.5915 37.468 38.604 37.2505 38.6668ZM38.9674 39.6395C38.6717 39.6576 38.4873 39.7745 38.5203 39.8752L39.5952 39.7608C39.4431 39.6793 39.2117 39.6246 38.9674 39.6395ZM21.8577 41.4022C21.8247 41.3835 21.7734 41.3655 21.6751 41.3505C21.6006 41.3387 21.4839 41.3338 21.3697 41.3375C21.3716 41.1608 21.1309 40.94 20.7162 41.0078C20.5648 41.0327 20.5232 41.1154 20.5061 41.1845C20.4994 41.2106 20.4933 41.2373 20.4866 41.2635C20.2527 41.1839 19.9626 41.1297 19.728 41.1447C19.8196 41.0016 19.8948 40.8573 19.9003 40.7112C19.9015 40.6813 19.899 40.6502 19.8728 40.6235C19.8276 40.5774 19.7671 40.5644 19.703 40.5687C19.6853 40.5607 19.6663 40.5526 19.6437 40.5463C19.4178 40.4866 18.9689 40.537 19.0397 40.672C19.0666 40.7236 19.179 40.7497 19.3072 40.7566C19.2187 40.8474 19.1527 40.9481 19.1148 41.0445C19.0751 41.1453 18.9463 41.2554 18.9603 41.3593C18.964 41.3879 18.9786 41.4159 19.0092 41.4432C19.0751 41.5029 19.2187 41.5067 19.3414 41.4818C19.3787 41.5664 19.4721 41.6578 19.5992 41.7374C19.5332 41.7685 19.5057 41.8096 19.5533 41.8556C19.5662 41.868 19.5876 41.8761 19.6083 41.8848L22.3023 41.5987C22.2645 41.4849 22.1283 41.3922 21.8577 41.4022ZM24.2623 40.3915C24.1206 40.4077 23.9892 40.4605 23.8897 40.5644C23.7107 40.7504 23.905 41.1161 24.2971 41.2143C24.5444 41.2765 24.895 41.2342 25.0868 41.136C25.2785 41.0377 25.3225 40.8984 25.2517 40.7777C25.1362 40.583 24.6574 40.3455 24.2623 40.3915ZM26.8842 41.1111L26.9013 41.1092C26.8989 41.1092 26.8964 41.1086 26.894 41.1092C26.8909 41.1098 26.8879 41.1105 26.8842 41.1111ZM20.8628 39.7726C20.8677 39.772 20.8683 39.7689 20.8732 39.7683L20.8066 39.7757C20.8225 39.7757 20.8396 39.7757 20.8628 39.7726ZM48.514 36.7928C48.6698 36.7748 48.7296 36.6933 48.7626 36.6255C48.7748 36.6006 48.7864 36.5757 48.798 36.5509L47.9998 36.6429C48.0834 36.7468 48.2514 36.8239 48.514 36.7928ZM30.5347 38.655C30.5396 38.7259 30.7155 38.7663 30.8816 38.752C31.0086 38.7414 31.121 38.7091 31.2297 38.678C31.2926 38.6599 31.3555 38.6413 31.4184 38.6226C31.4697 38.6612 31.562 38.6892 31.6487 38.6861C31.6603 38.691 31.6682 38.6966 31.6835 38.701C31.8783 38.7576 32.1727 38.6581 32.2344 38.5623C32.3022 38.627 32.4702 38.6531 32.6027 38.5642C32.6699 38.5194 32.6638 38.4622 32.6112 38.4155L32.2216 38.4603C32.2179 38.4665 32.2124 38.4733 32.2106 38.4796C32.2051 38.4765 32.1965 38.4733 32.1898 38.4702C32.1935 38.4677 32.1941 38.4653 32.1972 38.4628L30.5347 38.655ZM33.7381 38.2861C33.6898 38.2955 33.6422 38.3222 33.622 38.3496C33.6007 38.3788 33.6098 38.4093 33.6825 38.4205C33.6904 38.4217 33.6996 38.4223 33.7088 38.4223C33.7863 38.423 33.8639 38.4 33.8914 38.3682C33.9323 38.3216 33.8694 38.26 33.7381 38.2861ZM30.498 39.0636C30.5603 39.0798 30.6544 39.063 30.6843 39.0331C30.6837 39.0207 30.6831 39.0089 30.6819 38.997C30.68 38.9697 30.5817 38.9728 30.5103 38.9902C30.4406 39.007 30.3967 39.0368 30.498 39.0636ZM33.1237 38.6195C33.0333 38.6599 32.9435 38.701 32.8531 38.7414C32.7945 38.719 32.7175 38.7078 32.6192 38.7221C32.3065 38.7657 32.3908 39.0418 32.7065 39.0288C32.7114 39.0319 32.7126 39.0362 32.7181 39.0387C32.8171 39.0903 33.0058 39.1121 33.2654 39.0748C33.6532 39.0194 34.0887 38.6114 33.539 38.5343C33.3887 38.5132 33.2367 38.5685 33.1237 38.6195ZM28.6609 39.3553C28.6181 39.3715 28.5839 39.3901 28.5577 39.4106C28.54 39.3845 28.5064 39.3553 28.4367 39.3229C28.2352 39.2278 27.8962 39.178 27.6116 39.2315C27.3869 39.2732 27.2763 39.369 27.2922 39.4529C27.2623 39.443 27.2275 39.4361 27.189 39.4361C27.1377 39.4361 27.0833 39.4436 27.0345 39.456C27.0155 39.4461 26.9929 39.438 26.9606 39.4399C26.8909 39.4436 26.814 39.4828 26.7523 39.5189C26.6246 39.5935 26.5654 39.6669 26.5477 39.7266C26.4152 39.7527 26.2814 39.7795 26.1696 39.8168C26.1574 39.7907 26.1012 39.7627 25.9718 39.7366C25.7696 39.6955 25.2291 39.6893 25.325 39.8386C25.3219 39.8386 25.3182 39.8392 25.3152 39.8392C25.3189 39.7664 25.1741 39.6831 25.0092 39.7297C24.8785 39.767 24.9292 39.8628 25.0404 39.9039C24.9219 39.9567 24.87 40.0283 25.0062 40.0817C25.2053 40.1595 25.6016 40.0407 25.6151 39.9356C25.7366 39.943 25.8722 39.9331 25.9827 39.9119C25.8948 39.9978 26.0847 40.0643 26.2759 40.0618C26.4042 40.06 26.5269 40.0363 26.6448 40.0127C26.7419 39.9934 26.839 39.9741 26.9355 39.9542C27.0149 40.0034 27.1413 40.0295 27.2855 39.9934C27.4015 39.9642 27.4333 39.9039 27.4107 39.8448C27.5579 39.8068 27.7014 39.767 27.8333 39.7191C27.8877 39.6992 27.9414 39.6781 27.9744 39.6513C27.9903 39.6383 27.9933 39.6283 27.9994 39.6178C28.0129 39.619 28.0275 39.6184 28.0416 39.619C28.0318 39.6283 28.0306 39.6377 28.0422 39.6464C27.9988 39.6507 27.9689 39.6656 27.9897 39.6992C28.0086 39.7297 28.1021 39.744 28.1699 39.7297C28.1882 39.7204 28.2065 39.7104 28.2248 39.7011C28.2505 39.688 28.2297 39.6737 28.1943 39.6625C28.2334 39.6551 28.2663 39.642 28.2767 39.624C28.2743 39.619 28.2718 39.614 28.2694 39.6084C28.3903 39.5916 28.4954 39.5618 28.5558 39.5294C28.5693 39.5381 28.5815 39.5462 28.6023 39.5537C28.6157 39.5587 28.6328 39.5593 28.6475 39.5624C28.6737 39.5786 28.7091 39.5929 28.7537 39.6053C28.6762 39.6153 28.6126 39.6408 28.5662 39.6719C28.4129 39.7745 28.4954 39.9741 28.6963 39.9667C28.6768 40.0227 28.7043 40.073 28.7788 40.1079C28.8594 40.1458 28.9919 40.1638 29.1642 40.1514C29.1648 40.1688 29.1721 40.1844 29.1855 40.1993C29.0964 40.2236 29.0273 40.2578 28.987 40.2963C28.9205 40.2721 28.8307 40.2491 28.7378 40.2347C28.736 40.2248 28.7379 40.2142 28.7348 40.2043C28.6652 40.0046 28.2444 39.7471 27.8419 39.7764C27.6977 39.7869 27.556 39.8342 27.4333 39.9337C27.258 40.0761 27.2965 40.3411 27.5041 40.5016C27.4314 40.5022 27.3582 40.5016 27.2873 40.5047C27.0516 40.5134 26.7804 40.4873 26.5471 40.519C26.483 40.5277 26.4213 40.5414 26.3645 40.5607C26.1892 40.6216 26.2863 40.7211 26.4579 40.7566C26.5715 40.7802 26.7034 40.7827 26.8317 40.7846C27.2806 40.7908 27.7362 40.797 28.1778 40.751C28.1955 40.7491 28.2108 40.7441 28.2285 40.7423C28.4337 40.8051 28.8325 40.7945 28.8331 40.6707C28.8331 40.6415 28.8063 40.616 28.7623 40.5955C28.7024 40.5675 28.6108 40.5495 28.5149 40.542C28.5638 40.519 28.6053 40.4935 28.6383 40.4661C28.7818 40.491 28.9461 40.4947 29.0524 40.4748C29.0793 40.4873 29.1055 40.4997 29.144 40.5103C29.2075 40.5277 29.2955 40.5445 29.3895 40.5607C29.3663 40.5588 29.3388 40.56 29.3077 40.5669C29.2607 40.5774 29.2155 40.6048 29.1977 40.6322C29.1788 40.662 29.191 40.6919 29.2655 40.7018C29.2741 40.7031 29.2826 40.7031 29.2918 40.7031C29.3694 40.7018 29.4445 40.6776 29.4695 40.6459C29.4958 40.6117 29.4653 40.5706 29.3969 40.5619C29.4934 40.5781 29.5935 40.5899 29.6937 40.5967C29.7358 40.6577 29.8018 40.723 29.8861 40.7746C29.8299 40.7734 29.7749 40.7752 29.723 40.7771C29.486 40.7137 29.1544 40.7454 29.0713 40.8716C29.0383 40.8785 29.0054 40.8853 28.9724 40.8922L30.7112 40.7074C30.6721 40.6931 30.6245 40.6869 30.5725 40.6857C30.6025 40.6515 30.608 40.6179 30.5823 40.5899C30.5994 40.5165 30.5695 40.4431 30.4663 40.3865C30.459 40.3821 30.4492 40.3803 30.4412 40.3766C30.5054 40.3566 30.5438 40.328 30.5115 40.2932C30.495 40.2752 30.4632 40.2627 30.4241 40.2546C30.2971 40.2291 30.0919 40.2534 30.0449 40.3075C30.0345 40.3081 30.0247 40.3094 30.0143 40.31C29.9306 40.2528 29.8103 40.208 29.6674 40.1844C29.7664 40.116 29.7896 40.0208 29.676 39.9773C29.734 39.9318 29.7767 39.8833 29.7999 39.8342C29.8335 39.828 29.8671 39.8218 29.8995 39.8155C30.0076 39.7932 30.1157 39.7708 30.2226 39.7471C30.2794 39.7527 30.3374 39.7484 30.3832 39.7235C30.3918 39.7191 30.3887 39.7129 30.3948 39.7079C30.5341 39.6756 30.6709 39.642 30.8016 39.6041C30.8028 39.6283 30.8132 39.6507 30.8303 39.6737C30.6636 39.716 30.5652 39.7994 30.6636 39.8995C30.7558 39.9934 31.0037 40.147 31.234 40.1707C31.3287 40.1806 31.4191 40.1669 31.4954 40.1203C31.5528 40.1427 31.6377 40.1489 31.7238 40.1203C31.8093 40.0917 31.9406 40.0264 31.9443 39.981C31.9461 39.9549 31.9058 39.935 31.7892 39.9319C31.7348 39.9306 31.6792 39.9362 31.6273 39.9449C31.631 39.92 31.6243 39.8958 31.6163 39.8715C31.7971 39.8665 31.9614 39.8361 32.0475 39.7944C32.0518 39.7925 32.053 39.79 32.0567 39.7882C32.2668 39.7272 32.4708 39.629 32.5917 39.5276C32.6485 39.5469 32.7261 39.5605 32.8195 39.5692C32.8213 39.5848 32.8232 39.5997 32.8336 39.6165C32.7969 39.609 32.7584 39.6035 32.7163 39.6035C32.4463 39.6022 32.1086 39.7428 32.3297 39.8404C32.3505 39.8497 32.3767 39.8541 32.403 39.8585C32.4506 39.8933 32.5428 39.9194 32.6461 39.9244C32.7731 39.9306 32.9014 39.9138 33.0253 39.8976C33.1096 39.8864 33.1939 39.8753 33.2782 39.8641C33.462 39.9113 33.6678 39.9207 33.8334 39.8454C33.8822 39.823 33.8975 39.795 33.8975 39.7652C34.0325 39.7397 34.165 39.7117 34.2908 39.6775C34.3507 39.6613 34.4105 39.6433 34.4521 39.6184C34.5229 39.5755 34.5174 39.5462 34.4765 39.5245C34.5046 39.4268 34.394 39.3167 34.1601 39.346C34.0935 39.354 34.0416 39.3727 34.0044 39.397C33.9665 39.4212 33.9439 39.4511 33.9354 39.4822C33.9323 39.4822 33.928 39.4822 33.925 39.4828C33.8547 39.4884 33.7833 39.4971 33.7118 39.5052C33.7082 39.5008 33.7045 39.4971 33.7008 39.4927C33.6752 39.4641 33.6416 39.4405 33.6056 39.4187C33.7967 39.3242 33.8853 39.2073 33.6764 39.1227C33.5622 39.0767 33.3729 39.1015 33.2238 39.1289C33.1005 39.1513 32.9771 39.1737 32.8543 39.1961C32.7609 39.2129 32.6888 39.2359 32.6271 39.2608C32.5514 39.216 32.4152 39.183 32.1898 39.1731C31.9748 39.1637 31.6884 39.201 31.4307 39.2626C31.4148 39.2589 31.4032 39.252 31.3849 39.2508C31.2596 39.2408 31.0954 39.2769 31.0526 39.3254C30.9091 39.3192 30.7265 39.3335 30.641 39.3466C30.4492 39.3752 30.2574 39.4169 30.0791 39.4623C30.0778 39.4623 30.0778 39.4616 30.0766 39.461C30.076 39.461 30.0742 39.4604 30.0736 39.4604C30.0949 39.4536 30.1182 39.4467 30.1273 39.4361C30.1249 39.4243 30.1224 39.4125 30.1206 39.4007C30.2 39.4144 30.2959 39.4019 30.3741 39.346C30.4577 39.285 30.4113 39.2048 30.3002 39.1563C30.2708 39.1438 30.2348 39.1326 30.1933 39.1326C30.1316 39.1326 30.0833 39.1569 30.0473 39.1793C29.9209 39.2576 29.9612 39.3416 30.0571 39.3814C30.0235 39.382 29.9826 39.3883 29.9484 39.3976C29.9215 39.405 29.9019 39.415 29.8916 39.4249C29.8311 39.4169 29.767 39.4119 29.7041 39.4106C29.6888 39.4007 29.6747 39.3901 29.6576 39.3808C29.8549 39.285 29.9087 39.1463 29.8458 39.025C29.8177 38.9709 29.7609 38.9137 29.6876 38.8596C29.7804 38.9025 29.9123 38.9205 30.0443 38.8776C30.164 38.8391 30.167 38.7675 30.1102 38.706L28.4422 38.8981C28.3916 39.0437 28.474 39.2334 28.6609 39.3553ZM27.2281 40.2882C27.2299 40.2758 27.2311 40.264 27.2323 40.2515C27.236 40.2242 27.1371 40.2242 27.0632 40.2391C26.9905 40.2534 26.9416 40.282 27.0375 40.3125C27.0968 40.3305 27.1933 40.3168 27.2281 40.2882ZM55.5267 35.7759L55.5163 35.7771C55.5188 35.7765 55.5212 35.7778 55.5236 35.7771C55.5249 35.7771 55.5249 35.7765 55.5267 35.7759ZM13.3896 40.741C13.5655 40.8567 13.833 40.8897 14.0218 40.8461C14.1635 40.8138 14.2618 40.7379 14.2447 40.6222C14.241 40.5955 14.2141 40.5675 14.1781 40.5395L13.2455 40.6471C13.2937 40.6782 13.3414 40.7093 13.3896 40.741ZM12.2029 40.7665L11.5879 40.8374C11.7546 40.8965 12.107 40.8499 12.2029 40.7665ZM39.6025 39.5699C39.63 39.5829 39.6654 39.5947 39.707 39.5954C39.7687 39.5966 39.8187 39.573 39.8566 39.5512C40.1095 39.4063 39.7742 39.2284 39.547 39.3789C39.4578 39.438 39.4963 39.5195 39.6025 39.5699ZM46.788 37.1902C46.7923 37.2201 46.7996 37.2506 46.8314 37.2767C46.9676 37.3905 47.1661 37.296 47.2834 37.2089C47.2986 37.2425 47.3444 37.2717 47.4403 37.2848C47.6309 37.3115 47.8227 37.222 47.8776 37.1349C47.924 37.1996 48.0077 37.2531 48.1054 37.2767C48.1451 37.286 48.1897 37.2916 48.2276 37.2792C48.2838 37.2599 48.3021 37.2101 48.3113 37.166C48.3723 36.8749 47.8727 36.73 47.8391 37.0192C47.8135 37.0074 47.7793 36.9981 47.7341 36.9925C47.6687 36.985 47.6034 36.9893 47.5429 37.0018C47.5002 37.0105 47.4611 37.0248 47.4257 37.041C47.4666 36.9719 47.499 36.9016 47.5142 36.8326C47.524 36.7872 47.5509 36.7393 47.5753 36.6914L46.8748 36.7723C46.8137 36.9116 46.7685 37.0509 46.788 37.1902ZM49.1156 36.6827C49.1462 36.697 49.1846 36.7082 49.2292 36.7008C49.2952 36.6896 49.3465 36.6435 49.3856 36.6019C49.4137 36.572 49.4308 36.544 49.4448 36.516C49.4515 36.5179 49.4601 36.5198 49.468 36.521C49.4589 36.5807 49.5841 36.6323 49.7313 36.6417C49.8571 36.6498 49.9872 36.6354 50.1124 36.6211C50.5521 36.5714 50.998 36.5204 51.395 36.4215C51.456 36.4059 51.5177 36.3891 51.5605 36.3649C51.6789 36.2983 51.6118 36.261 51.4902 36.2399L48.9977 36.5272C49.0026 36.5919 49.0435 36.6491 49.1156 36.6827ZM36.5115 38.0995C36.4871 38.2065 36.514 38.3091 36.6172 38.3763C36.7076 38.4348 36.8621 38.4646 37.027 38.4721C37.0258 38.4932 37.0532 38.5094 37.1388 38.5038C37.1821 38.5007 37.2114 38.4864 37.2291 38.4684C37.2462 38.4671 37.2627 38.464 37.2798 38.4622C37.4698 38.487 37.678 38.5007 37.8167 38.4765C37.9169 38.459 37.9767 38.4205 37.9639 38.3552C37.9926 38.3483 38.0207 38.3402 38.0445 38.3259C38.086 38.3017 38.1007 38.2737 38.0958 38.2457C38.0928 38.2295 38.0824 38.2134 38.0677 38.1978C38.094 38.1916 38.1233 38.1866 38.1453 38.1779C38.2619 38.13 38.309 38.0461 38.2173 37.9385C38.199 37.9173 38.1654 37.8962 38.1221 37.8763C38.1569 37.8651 38.1911 37.8526 38.2241 37.8383C38.2803 37.8924 38.4177 37.9148 38.5661 37.847C38.5759 37.8427 38.5801 37.8365 38.5881 37.8321C38.5899 37.8819 38.6418 37.9229 38.7542 37.9385C38.7359 37.9708 38.7682 38.0063 38.8324 38.023C38.9277 38.0479 39.0834 38.0311 39.0565 37.9714C39.0486 37.954 39.0132 37.9366 38.971 37.9229C39.117 37.8794 39.1958 37.778 39.15 37.7071C39.302 37.6816 39.4462 37.648 39.5891 37.6138L36.3527 37.9864C36.3888 38.0293 36.4449 38.0684 36.5115 38.0995ZM56.9442 37.8116C57.0902 37.7799 57.1568 37.6996 57.1287 37.6318C57.1214 37.6144 57.1067 37.5958 57.0731 37.5858C57.023 37.5709 56.9534 37.5802 56.8954 37.5908C56.5094 37.6604 56.5729 37.8918 56.9442 37.8116ZM41.0806 37.5031C41.108 37.6163 41.2699 37.7108 41.4342 37.7376C41.4769 37.7444 41.5233 37.7469 41.5569 37.732C41.6064 37.7096 41.607 37.6592 41.6009 37.6157C41.5991 37.6032 41.5918 37.5933 41.5887 37.5821C41.767 37.5827 41.9374 37.5466 41.9264 37.4651C41.9222 37.4359 41.8922 37.411 41.8452 37.3918C41.8177 37.3799 41.7829 37.3712 41.7457 37.3638L41.0769 37.4409C41.0751 37.4589 41.0751 37.4788 41.0806 37.5031ZM44.659 37.1542C44.6577 37.1567 44.6547 37.1579 44.6541 37.161C44.6461 37.1933 44.72 37.2207 44.7945 37.2176C44.8098 37.2139 44.8257 37.2101 44.841 37.2058C44.9515 37.2238 45.0651 37.2226 45.1604 37.2021C45.3039 37.171 45.4065 37.0963 45.3961 36.98C45.3949 36.9688 45.3815 36.957 45.3748 36.9452L44.4757 37.0484C44.4953 37.0621 44.5154 37.0758 44.535 37.0895C44.5716 37.1162 44.6144 37.1361 44.659 37.1542ZM36.1738 38.0056L35.5911 38.0728C35.8177 38.1879 36.451 38.2146 36.1738 38.0056ZM63.8568 34.8734C63.632 34.8535 63.4543 35.0575 63.7096 35.0749C63.7541 35.0781 63.7969 35.0731 63.8354 35.0625C63.9911 35.0215 64.0662 34.8921 63.8568 34.8734ZM63.9282 35.5184C63.9154 35.5078 63.9026 35.4973 63.8897 35.4867C63.8604 35.4624 63.7737 35.4842 63.7254 35.5128C63.6784 35.5408 63.6686 35.5756 63.7883 35.58C63.8622 35.5831 63.9313 35.5507 63.9282 35.5184ZM12.3019 42.6604L12.5498 42.6343C12.4576 42.6187 12.3575 42.6318 12.3019 42.6604ZM61.8291 35.7734C61.7802 35.7523 61.7136 35.7429 61.6525 35.7659C61.6458 35.7684 61.6403 35.7715 61.6361 35.7753C61.5957 35.8045 61.6037 35.8443 61.655 35.8686C61.7295 35.904 61.8877 35.9065 61.9005 35.8456C61.9054 35.8225 61.8749 35.7933 61.8291 35.7734ZM61.098 37.2667C60.9606 37.319 61.0039 37.4123 61.1163 37.4751L61.6061 37.4229C61.6104 37.309 61.3374 37.1766 61.098 37.2667ZM63.3633 36.865C63.362 36.8973 63.4421 36.9222 63.5153 36.916C63.5386 36.9091 63.5624 36.9016 63.5856 36.8948C63.6387 36.8786 63.5831 36.8444 63.5141 36.8283C63.4463 36.8115 63.3657 36.8127 63.3633 36.865ZM57.6234 37.3352C57.6228 37.3358 57.6222 37.3376 57.6216 37.3383C57.5397 37.3464 57.4744 37.3781 57.4762 37.4403C57.4768 37.4651 57.5 37.4875 57.5312 37.5081C57.5104 37.5852 57.5153 37.6623 57.5813 37.7096C57.6509 37.76 57.7859 37.7755 58.0222 37.7201C58.1108 37.699 58.1877 37.6698 58.2568 37.6368C58.3807 37.6573 58.5127 37.6511 58.5866 37.5933C58.6202 37.5671 58.6263 37.5385 58.6128 37.5112C58.5939 37.4732 58.5371 37.4384 58.465 37.4117C58.4644 37.4061 58.4693 37.4005 58.4681 37.3942C58.4125 37.2002 57.8066 37.1293 57.6234 37.3352ZM60.7334 37.2761C60.7535 37.2674 60.7731 37.258 60.7932 37.2493C60.8384 37.2288 60.7676 37.2008 60.6918 37.1909C60.6173 37.1809 60.5379 37.189 60.5599 37.24C60.5733 37.2711 60.6631 37.2879 60.7334 37.2761ZM60.086 37.2879C60.1244 37.2866 60.1635 37.2835 60.191 37.2717C60.2142 37.2618 60.2234 37.2487 60.2258 37.2344C60.2753 37.1884 60.2558 37.128 60.227 37.0764C60.1965 37.0217 60.1654 36.967 60.1348 36.9122C60.0585 36.776 59.8349 36.707 59.6255 36.7225C59.4685 36.7337 59.3201 36.7928 59.248 36.906C59.146 37.0665 59.6426 37.3905 60.086 37.2879ZM60.6851 36.9321C60.9606 36.985 61.3221 36.9732 61.5414 36.8768C61.8681 36.7337 61.6519 36.4806 61.167 36.549C60.9355 36.582 60.5428 36.6765 60.4518 36.7735C60.3993 36.8301 60.4475 36.8867 60.6851 36.9321ZM58.6715 37.6884C58.5951 37.6835 58.5114 37.7015 58.4736 37.7313C58.4632 37.7394 58.4601 37.7481 58.4565 37.7568L58.7509 37.7257C58.7472 37.7121 58.7313 37.6996 58.6959 37.6915C58.6892 37.6903 58.6806 37.6891 58.6715 37.6884ZM41.3786 39.5444C41.3322 39.5537 41.3016 39.5674 41.2784 39.5823L41.7365 39.5338C41.6834 39.5307 41.6308 39.522 41.5777 39.5232C41.5111 39.5251 41.4446 39.5313 41.3786 39.5444ZM46.4692 39.0312L47.1172 38.9622C47.0788 38.9417 47.0281 38.928 46.9682 38.923C46.7825 38.9069 46.5376 38.9591 46.4692 39.0312ZM58.3026 37.7587C58.2415 37.7531 58.1829 37.76 58.1761 37.7873L58.3612 37.7674C58.3429 37.7637 58.3227 37.7606 58.3026 37.7587ZM48.6227 38.6618C48.6069 38.655 48.5928 38.6537 48.5775 38.6487C48.5818 38.6444 48.5843 38.64 48.5879 38.6357C48.6319 38.6413 48.6795 38.6425 48.7351 38.6332C48.7999 38.6226 48.8481 38.6021 48.8805 38.5766C48.9318 38.5368 48.944 38.4839 48.922 38.4373C48.9397 38.4454 48.9574 38.4541 48.9831 38.4559C49.0106 38.4528 49.0381 38.4497 49.0655 38.4466C49.1284 38.4398 49.1052 38.3987 49.0558 38.3726C49.0069 38.3471 48.9318 38.3353 48.886 38.3844C48.8835 38.3869 48.889 38.39 48.8878 38.3931C48.8322 38.3415 48.726 38.3085 48.5757 38.3303C48.4181 38.3533 48.3656 38.4354 48.3894 38.51C48.3882 38.51 48.3864 38.51 48.3852 38.5107C48.2343 38.5331 48.1464 38.5809 48.1152 38.6282C48.0083 38.6245 47.8917 38.6407 47.8068 38.6724C47.7744 38.6842 47.7439 38.6997 47.739 38.7178C47.7323 38.7445 47.7823 38.7657 47.83 38.7818C47.9643 38.8279 48.1183 38.8266 48.2282 38.8036C48.2209 38.8204 48.219 38.8322 48.216 38.8459L48.7644 38.7874C48.751 38.7706 48.7418 38.7532 48.726 38.7371C48.7009 38.7097 48.6716 38.6817 48.6227 38.6618ZM48.5769 37.3849C48.6392 37.4011 48.7333 37.3843 48.7632 37.3544C48.7626 37.342 48.762 37.3302 48.7614 37.3177C48.7608 37.309 48.7492 37.3047 48.7345 37.3016C48.7437 37.2922 48.7534 37.2829 48.7626 37.2736C48.7864 37.2499 48.7113 37.2363 48.6368 37.2363C48.6411 37.207 48.6105 37.1822 48.5079 37.1996C48.4377 37.212 48.409 37.2537 48.4456 37.281C48.4682 37.2879 48.4914 37.2941 48.514 37.3009C48.5226 37.3034 48.5305 37.3028 48.5391 37.3028C48.5494 37.309 48.5678 37.3103 48.5837 37.3134C48.5171 37.3302 48.4792 37.3588 48.5769 37.3849ZM43.1217 38.4733C43.1486 38.4771 43.1748 38.4802 43.2017 38.4839C43.2622 38.492 43.2927 38.451 43.2835 38.4167C43.2744 38.3832 43.2261 38.3564 43.1284 38.3888C43.0686 38.4087 43.0686 38.4522 43.1217 38.4733ZM43.5553 39.3404L44.4837 39.2415C44.3719 39.1973 44.232 39.1687 44.0775 39.1668C43.8088 39.1637 43.5987 39.2483 43.5553 39.3404ZM41.6657 38.8758C41.6253 38.8677 41.5844 38.8596 41.5435 38.8521C41.535 38.775 41.433 38.7122 41.2961 38.6817C41.301 38.673 41.3126 38.6649 41.3078 38.6562C41.29 38.6469 41.2729 38.6375 41.2552 38.6288C41.2174 38.6089 41.1471 38.6338 41.1105 38.6637C41.1074 38.6637 41.1044 38.6637 41.1013 38.6637C41.0635 38.6407 41.0036 38.6183 40.9028 38.5977C40.631 38.5424 40.2689 38.5498 40.0441 38.6438C39.7717 38.757 39.8578 38.9442 40.1601 38.9778C39.881 39.0729 39.9971 39.2608 40.3251 39.1724C40.3751 39.1587 40.4093 39.1388 40.4362 39.1165C40.4631 39.1308 40.4918 39.1451 40.5333 39.1575C40.6133 39.1811 40.7306 39.206 40.8546 39.2265C40.8668 39.2359 40.8759 39.2464 40.89 39.2545C40.6335 39.2639 40.4838 39.369 40.6005 39.4243C40.2548 39.5195 40.2371 39.6594 40.7507 39.5997C41.0097 39.5692 41.2143 39.4847 41.2619 39.41C41.2736 39.392 41.2729 39.3746 41.2442 39.3621C41.2583 39.3634 41.2729 39.3665 41.2864 39.3671C41.3322 39.369 41.3792 39.3665 41.4024 39.3478C41.4323 39.3248 41.4122 39.2856 41.3859 39.2489C41.4574 39.2353 41.5056 39.2091 41.5215 39.1675C41.5716 39.1787 41.6217 39.1905 41.6724 39.2004C41.8599 39.2353 42.0425 39.2981 42.2446 39.3254C42.2489 39.3341 42.2532 39.3435 42.2575 39.3497C42.285 39.3889 42.3216 39.4281 42.3601 39.4666L43.3672 39.3596C43.41 39.3298 43.4185 39.2968 43.3519 39.2707C43.3196 39.2583 43.2793 39.2527 43.2359 39.2527C43.3849 39.1718 43.4283 39.0406 43.1852 39.0169C43.1192 39.0107 43.0539 39.0163 42.9953 39.03C42.8566 39.0623 42.754 39.1382 42.7473 39.2048C42.732 39.1961 42.7174 39.1867 42.7015 39.178C42.6911 39.165 42.6819 39.1513 42.6636 39.1401C42.5909 39.0959 42.4798 39.0667 42.3711 39.0393C42.2947 39.0201 42.2184 39.0008 42.1414 38.9821C42.2104 38.9274 42.2159 38.8677 42.0852 38.8328C42.0278 38.8179 41.9631 38.8148 41.8977 38.8198C41.8153 38.8266 41.7334 38.8484 41.6657 38.8758ZM40.9511 37.8601C40.4637 37.8035 40.0869 37.8955 40.209 37.9714C40.0032 38.0305 39.9794 38.1568 40.2872 38.153C40.4344 38.1512 40.5602 38.0995 40.6145 38.0392C40.835 38.0461 41.047 38.0156 41.1514 37.9658C41.1832 37.9509 41.207 37.9329 41.1874 37.9148C41.1575 37.8875 41.0488 37.8713 40.9511 37.8601ZM41.4745 37.9683C41.2094 37.9497 40.8295 38.0672 41.0122 38.1792C41.2082 38.2992 41.8733 38.1387 41.6382 38.0081C41.5973 37.9851 41.5392 37.9727 41.4745 37.9683ZM40.65 38.3589C40.6249 38.3427 40.5877 38.3334 40.5449 38.3297C40.3709 38.3129 40.1082 38.3856 40.2194 38.4628C40.3391 38.5461 40.7947 38.4497 40.65 38.3589ZM47.9668 38.4367C48.0431 38.4124 48.0999 38.3738 48.1323 38.3322C48.2166 38.3427 48.3125 38.3427 48.3974 38.3284C48.4371 38.3222 48.478 38.3123 48.4969 38.2961C48.5256 38.2718 48.4969 38.2438 48.467 38.2208C48.3632 38.1425 48.1738 38.1244 48.0456 38.1443C47.8233 38.1194 47.6162 38.1829 47.6339 38.2476C47.5338 38.3353 47.5472 38.4528 47.7817 38.4609C47.8495 38.4634 47.9124 38.4541 47.9668 38.4367ZM55.826 37.5354C55.7374 37.579 55.6324 37.6486 55.5585 37.7189C55.5505 37.7195 55.5456 37.7189 55.5371 37.7195C55.3001 37.7351 55.101 37.7967 55.013 37.8613C54.9605 37.8713 54.9141 37.8881 54.8823 37.9173C54.7975 37.9944 54.9605 38.0778 55.1456 38.1101L55.4937 38.0734C55.5004 38.0684 55.5102 38.0666 55.5157 38.061C55.5426 38.0336 55.5414 38.005 55.5206 37.9783C55.5078 37.9621 55.4864 37.9472 55.4613 37.9329C55.4791 37.9304 55.4962 37.9285 55.5133 37.926C55.5389 37.9409 55.581 37.9509 55.6342 37.9577C55.6183 37.9689 55.6 37.9783 55.5878 37.9919C55.5682 38.0137 55.5499 38.0411 55.5334 38.0697L56.3714 37.9808C56.3329 37.9497 56.2834 37.9229 56.2199 37.9049C56.3775 37.862 56.5057 37.8016 56.5509 37.7245C56.6633 37.5305 56.1674 37.3687 55.826 37.5354ZM56.6401 37.0889C56.7146 37.0889 56.7769 37.054 56.7671 37.0223C56.7519 37.0124 56.7372 37.0024 56.7219 36.9925C56.6877 36.9694 56.6053 36.9943 56.5631 37.0248C56.5216 37.054 56.5192 37.0889 56.6401 37.0889ZM57.2881 36.8289C57.3199 36.8021 57.3235 36.7741 57.3083 36.7468C57.2435 36.6348 56.8477 36.5415 56.6847 36.6647C56.5094 36.7972 57.1061 36.9813 57.2881 36.8289ZM55.8418 37.2188C55.8296 37.23 55.8168 37.2412 55.8046 37.2524C55.7765 37.2779 55.8657 37.2941 55.9457 37.2929C56.0245 37.2916 56.0947 37.273 56.0354 37.2288C55.9994 37.2014 55.8999 37.1977 55.8418 37.2188ZM40.0924 37.6797C40.322 37.773 40.8356 37.5982 40.6756 37.4869L40.038 37.5603C39.9977 37.6001 40.0044 37.6436 40.0924 37.6797ZM53.1594 38.2071C53.0489 38.2103 52.8974 38.2239 52.7527 38.2445C52.7386 38.2165 52.6861 38.1916 52.5719 38.181C52.4161 38.1667 52.2488 38.2127 52.1706 38.2749C52.1675 38.2774 52.1657 38.2805 52.1627 38.283C52.1224 38.2818 52.0827 38.2843 52.0607 38.2998C52.024 38.3259 52.0497 38.3751 52.0784 38.4167C52.0833 38.4236 52.0924 38.4267 52.0973 38.4329L53.5271 38.2812C53.4617 38.2339 53.3408 38.2015 53.1594 38.2071ZM51.9794 37.5323C51.9355 37.5566 51.919 37.5871 51.9764 37.6094C51.9831 37.6119 51.991 37.6138 51.999 37.615C52.0698 37.6275 52.1602 37.6175 52.2121 37.5914C52.2879 37.5535 52.2805 37.4857 52.1382 37.49C52.0869 37.4919 52.021 37.5099 51.9794 37.5323Z" fill="#9C441C"/>
<path d="M53.0084 21.1342C53.2986 21.1081 53.5221 21.3246 53.508 21.6175C53.494 21.9104 53.2466 22.1692 52.9565 22.1953C52.6664 22.2214 52.4429 22.005 52.4569 21.712C52.4716 21.4191 52.7183 21.1604 53.0084 21.1342ZM47.3596 20.6261C47.3828 20.1528 47.0212 19.8032 46.5528 19.8449C46.0837 19.8872 45.6849 20.3052 45.6617 20.7785C45.6385 21.2518 46.0001 21.6013 46.4685 21.5597C46.9376 21.5174 47.3364 21.0994 47.3596 20.6261ZM48.9744 23.8137C48.9555 24.1968 49.248 24.4798 49.6279 24.4462C50.0072 24.412 50.3303 24.0736 50.3492 23.6905C50.3682 23.3074 50.0756 23.0244 49.6957 23.058C49.3158 23.0922 48.9927 23.4305 48.9744 23.8137ZM55.5223 19.9326C55.9688 19.8922 56.3487 19.4941 56.3706 19.0432C56.3926 18.5923 56.0488 18.2595 55.6023 18.2993C55.1559 18.3398 54.776 18.7378 54.754 19.1887C54.732 19.6403 55.0758 19.973 55.5223 19.9326ZM34.7677 21.3519C34.7952 20.7884 34.3652 20.3717 33.807 20.4221C33.2488 20.4725 32.7742 20.97 32.7467 21.5335C32.7192 22.097 33.1492 22.5138 33.7074 22.4634C34.2657 22.413 34.7402 21.9154 34.7677 21.3519ZM45.2134 25.0053C44.544 25.0657 43.9742 25.6627 43.9412 26.3388C43.9082 27.0149 44.4243 27.5149 45.0937 27.4546C45.7637 27.3943 46.3329 26.7972 46.3665 26.1211C46.3995 25.4444 45.8834 24.945 45.2134 25.0053ZM36.7087 25.2821C35.9721 25.3487 35.3455 26.0054 35.3088 26.7493C35.2722 27.4932 35.8402 28.043 36.5768 27.9764C37.3133 27.9099 37.94 27.2531 37.9766 26.5092C38.0132 25.7654 37.4452 25.2162 36.7087 25.2821ZM25.7683 21.8762C26.3265 21.8259 26.801 21.3283 26.8285 20.7648C26.8291 20.7555 26.8267 20.7474 26.8273 20.738L24.8094 20.9794C24.8002 21.5261 25.221 21.9254 25.7683 21.8762ZM55.4148 22.9504C55.8393 22.9124 56.1996 22.5343 56.221 22.1057C56.2418 21.6772 55.915 21.3613 55.4912 21.3992C55.0673 21.4371 54.7063 21.8153 54.685 22.2438C54.6642 22.6717 54.991 22.9883 55.4148 22.9504ZM30.0728 27.6673C29.1573 27.7494 28.3792 28.5654 28.334 29.4903C28.334 29.4947 28.3346 29.499 28.3346 29.5034L31.6443 29.1153C31.6461 28.2315 30.9615 27.5871 30.0728 27.6673ZM64.9108 23.8037C64.286 23.8597 63.754 24.417 63.7229 25.0482C63.7174 25.1558 63.7321 25.256 63.7546 25.3524L65.7255 25.1216L65.8324 24.2397C65.6461 23.9443 65.3084 23.7676 64.9108 23.8037ZM32.6863 25.2373C32.1726 25.2833 31.7359 25.7411 31.7109 26.2598C31.6858 26.7785 32.081 27.1617 32.5946 27.115C33.1083 27.069 33.545 26.6112 33.57 26.0925C33.5957 25.5744 33.1999 25.1913 32.6863 25.2373ZM58.3037 20.6584C58.2927 20.8836 58.4649 21.0503 58.6878 21.0304C58.9114 21.0105 59.1007 20.8114 59.1123 20.5857C59.1233 20.3605 58.9511 20.1938 58.7281 20.2137C58.5046 20.2336 58.3147 20.4327 58.3037 20.6584ZM50.9294 18.3951C51.3472 18.3578 51.7198 18.0935 51.9323 17.7358L50.0103 17.966C50.1978 18.257 50.5343 18.4306 50.9294 18.3951ZM38.296 19.978C38.2313 21.3084 39.2457 22.2905 40.5631 22.1723C41.8805 22.0541 43.0007 20.8792 43.066 19.5495C43.0788 19.2845 43.0385 19.0388 42.9719 18.8081L38.4157 19.3529C38.3534 19.5551 38.3064 19.7628 38.296 19.978ZM39.4564 24.2223C39.01 24.2621 38.6301 24.6608 38.6081 25.1117C38.5861 25.5626 38.93 25.8954 39.3764 25.8556C39.8229 25.8157 40.2028 25.4171 40.2248 24.9661C40.2474 24.5152 39.9029 24.1825 39.4564 24.2223ZM46.3628 27.0155C46.0624 27.0423 45.7924 27.2245 45.6293 27.4764L47.0328 27.3122C46.8893 27.1094 46.6462 26.99 46.3628 27.0155ZM62.0488 23.8982C61.4014 23.9567 60.8505 24.5339 60.8188 25.1876C60.8096 25.3704 60.8456 25.5377 60.9116 25.6858L63.0523 25.4351C63.1158 25.2914 63.1555 25.1366 63.1628 24.9773C63.1952 24.323 62.6962 23.8398 62.0488 23.8982ZM64.5914 16.3538C64.4796 16.3638 64.3849 16.4633 64.3794 16.5759C64.374 16.6884 64.4601 16.7718 64.5718 16.7618C64.6836 16.7519 64.7783 16.6524 64.7838 16.5398C64.7887 16.4272 64.7025 16.3439 64.5914 16.3538ZM56.4238 26.192C56.4433 25.7859 56.1337 25.4867 55.7324 25.5228C55.3305 25.5589 54.9885 25.9171 54.969 26.3233C54.9677 26.3432 54.9714 26.3618 54.972 26.3817L56.4195 26.2119C56.4195 26.2051 56.4232 26.1989 56.4238 26.192ZM61.4295 21.7593C61.8534 21.7214 62.2143 21.3432 62.2357 20.9147C62.2565 20.4862 61.9297 20.1702 61.5059 20.2081C61.0814 20.2461 60.721 20.6242 60.6997 21.0528C60.6783 21.4807 61.005 21.7972 61.4295 21.7593ZM60.9055 17.6606C61.5034 17.6065 62.014 17.1089 62.1142 16.518L59.8025 16.7948C59.8751 17.3365 60.3308 17.7122 60.9055 17.6606ZM65.6064 16.9938C65.2272 17.028 64.9041 17.3664 64.8852 17.7495C64.8662 18.1326 65.1588 18.4156 65.5387 18.3814C65.9179 18.3472 66.241 18.0089 66.26 17.6257C66.2783 17.2432 65.9857 16.9602 65.6064 16.9938ZM64.8369 22.0218C65.0604 22.0019 65.2498 21.8028 65.2614 21.5771C65.2724 21.3519 65.1001 21.1852 64.8772 21.2051C64.6537 21.225 64.4643 21.4241 64.4533 21.6498C64.4417 21.8756 64.614 22.0417 64.8369 22.0218ZM15.5638 26.452C16.5685 26.3618 17.4229 25.4662 17.4724 24.4512C17.5219 23.4367 16.7481 22.6873 15.7434 22.7775C14.7387 22.8676 13.8842 23.7633 13.8348 24.7783C13.7853 25.7927 14.5591 26.5422 15.5638 26.452ZM20.5091 24.9095C20.4926 25.2479 20.7503 25.4973 21.0856 25.4674C21.4203 25.4376 21.7055 25.1391 21.722 24.8007C21.7385 24.4624 21.4808 24.213 21.1455 24.2428C20.8102 24.2733 20.5256 24.5718 20.5091 24.9095ZM27.9004 25.1801C27.9071 25.0451 27.8039 24.945 27.6695 24.9568C27.5358 24.9686 27.4216 25.0881 27.4148 25.2236C27.4081 25.3586 27.5113 25.4587 27.6451 25.4469C27.7795 25.4345 27.8937 25.3151 27.9004 25.1801ZM27.085 27.0416C26.8169 27.0659 26.5891 27.3047 26.5763 27.5753C26.5628 27.8458 26.7693 28.0455 27.0374 28.0212C27.3049 27.997 27.5333 27.7581 27.5462 27.4876C27.559 27.2177 27.3526 27.0174 27.085 27.0416ZM22.0048 28.8802C22.0555 27.8433 21.264 27.0771 20.2373 27.1698C19.2106 27.2618 18.3366 28.178 18.2859 29.2148C18.2572 29.805 18.507 30.3007 18.9119 30.6073L21.3183 30.3256C21.7122 29.9474 21.9779 29.4337 22.0048 28.8802ZM8.76062 29.7864C8.75268 29.9443 8.87361 30.0606 9.02936 30.047C9.18571 30.0327 9.31885 29.8933 9.32618 29.736C9.33412 29.578 9.2138 29.4617 9.05745 29.476C8.9011 29.4891 8.76856 29.629 8.76062 29.7864ZM13.2857 29.4206C13.2771 29.601 13.4146 29.7341 13.5929 29.7179C13.7712 29.7018 13.9233 29.5425 13.9325 29.3622C13.941 29.1818 13.8036 29.0487 13.6253 29.0649C13.4463 29.0804 13.2949 29.2403 13.2857 29.4206ZM10.1751 26.3674C10.599 26.3295 10.9599 25.9513 10.9813 25.5228C11.0021 25.0943 10.6753 24.7783 10.2515 24.8163C9.82761 24.8542 9.46665 25.2323 9.44528 25.6609C9.42451 26.0888 9.75126 26.4054 10.1751 26.3674Z" fill="#E5CD91"/>
<path opacity="0.3" d="M35.1396 1.73022L6.90332 14.2565L6.92775 14.5955C7.13541 14.9507 7.28871 15.3481 7.42612 15.7393C7.5324 16.0422 7.6405 16.3575 7.60935 16.6778C7.56293 17.1561 7.21297 17.5747 7.21969 18.0555C7.22702 18.6159 7.7089 19.0513 7.85243 19.5924C8.05886 20.3717 7.5324 21.1746 7.60446 21.9788C7.67653 22.7886 8.3392 23.4485 8.4131 24.2577C8.49616 25.1683 7.82067 26.1199 8.20422 26.9471C8.32332 27.2039 8.53281 27.4073 8.65618 27.6617C9.07821 28.5343 8.35691 29.5332 8.35447 30.5059C8.35264 31.4712 9.06661 32.347 8.97988 33.3085C8.9298 33.862 8.61465 34.3907 8.70015 34.9399C8.78261 35.468 9.22174 35.8809 9.31518 36.4071C9.40802 36.9277 9.146 37.4495 9.16311 37.9782C9.17288 38.2917 9.27976 38.5915 9.36465 38.8931C9.62178 39.8105 9.68286 41.0327 9.5204 42.1522C9.46115 42.5596 9.78363 42.916 10.1861 42.873L63.4932 37.2225C63.9458 37.1746 64.3061 36.8145 64.3617 36.3549L67.8387 7.72097L35.1396 1.73022Z" fill="url(#paint1_radial_599_35319)"/>
<path d="M67.594 5.73764C65.4099 3.39471 46.9011 -0.0130238 36.7583 3.74338e-05C35.6327 0.00128136 34.5229 0.192846 33.4645 0.58406C28.0856 2.57123 11.2917 9.39478 7.24733 12.5307C6.34281 13.2317 6.39411 14.4022 7.59485 14.7312C9.02096 15.1206 10.4978 14.2523 11.8671 13.9538C13.5845 13.5793 15.4595 13.6695 17.1696 14.0116C19.1081 14.3991 20.9557 13.4935 22.8838 13.4861C23.9233 13.4823 25.0722 13.4158 25.5467 14.5453C26.0756 15.8047 25.3226 16.9286 25.6554 18.2036C25.7702 18.6446 26.1239 19.1136 26.5642 19.0315C26.9655 18.9568 27.1499 18.4817 27.2134 18.0712C27.4003 16.8683 27.1396 15.7873 27.2232 14.6062C27.2519 14.1976 27.3032 13.774 27.52 13.4295C27.8395 12.9219 28.515 12.6613 29.075 12.8691C29.7652 13.1247 29.6241 13.6683 29.8818 14.2461C30.0467 14.6155 30.4559 14.7573 30.8175 14.5869C31.6695 14.1851 31.1375 13.0152 31.6591 12.3802C32.3719 11.5132 34.0844 12.2011 35.0519 12.03C36.2312 11.8217 37.3807 11.2924 38.5728 11.4C39.5934 11.492 40.5352 12.0462 41.557 12.1171C42.9251 12.2116 44.1838 11.4417 45.4511 10.908C47.2119 10.1673 49.2622 10.8365 51.1244 10.4048C53.0062 9.96823 54.6619 9.01663 56.6707 9.08504C57.1098 9.09997 57.5495 9.14911 57.9758 9.25795C58.6135 9.42028 59.2175 9.71509 59.8661 9.81958C60.7688 9.96512 61.1041 9.61744 61.7118 9.10806C62.3354 8.58561 63.1776 8.45686 63.9686 8.38596C65.3519 8.26157 66.4397 8.60613 66.4873 10.1051C66.5246 11.2644 66.4787 12.4275 66.4268 13.5856C66.2821 16.8204 64.9317 31.8196 64.3607 36.4296C64.7045 35.6329 65.6414 28.7919 66.6406 21.0622C67.5714 13.8866 68.4997 6.70915 67.594 5.73764Z" fill="url(#paint2_linear_599_35319)"/>
<mask id="mask1_599_35319" style="mask-type:luminance" maskUnits="userSpaceOnUse" x="6" y="0" width="62" height="37">
<path d="M67.594 5.73764C65.4099 3.39471 46.9011 -0.0130238 36.7583 3.74338e-05C35.6327 0.00128136 34.5229 0.192846 33.4645 0.58406C28.0856 2.57123 11.2917 9.39478 7.24733 12.5307C6.34281 13.2317 6.39411 14.4022 7.59485 14.7312C9.02096 15.1206 10.4978 14.2523 11.8671 13.9538C13.5845 13.5793 15.4595 13.6695 17.1696 14.0116C19.1081 14.3991 20.9557 13.4935 22.8838 13.4861C23.9233 13.4823 25.0722 13.4158 25.5467 14.5453C26.0756 15.8047 25.3226 16.9286 25.6554 18.2036C25.7702 18.6446 26.1239 19.1136 26.5642 19.0315C26.9655 18.9568 27.1499 18.4817 27.2134 18.0712C27.4003 16.8683 27.1396 15.7873 27.2232 14.6062C27.2519 14.1976 27.3032 13.774 27.52 13.4295C27.8395 12.9219 28.515 12.6613 29.075 12.8691C29.7652 13.1247 29.6241 13.6683 29.8818 14.2461C30.0467 14.6155 30.4559 14.7573 30.8175 14.5869C31.6695 14.1851 31.1375 13.0152 31.6591 12.3802C32.3719 11.5132 34.0844 12.2011 35.0519 12.03C36.2312 11.8217 37.3807 11.2924 38.5728 11.4C39.5934 11.492 40.5352 12.0462 41.557 12.1171C42.9251 12.2116 44.1838 11.4417 45.4511 10.908C47.2119 10.1673 49.2622 10.8365 51.1244 10.4048C53.0062 9.96823 54.6619 9.01663 56.6707 9.08504C57.1098 9.09997 57.5495 9.14911 57.9758 9.25795C58.6135 9.42028 59.2175 9.71509 59.8661 9.81958C60.7688 9.96512 61.1041 9.61744 61.7118 9.10806C62.3354 8.58561 63.1776 8.45686 63.9686 8.38596C65.3519 8.26157 66.4397 8.60613 66.4873 10.1051C66.5246 11.2644 66.4787 12.4275 66.4268 13.5856C66.2821 16.8204 64.9317 31.8196 64.3607 36.4296C64.7045 35.6329 65.6414 28.7919 66.6406 21.0622C67.5714 13.8866 68.4997 6.70915 67.594 5.73764Z" fill="white"/>
</mask>
<g mask="url(#mask1_599_35319)">
<path opacity="0.2" d="M6.9043 14.2665L8.98513 42.9999L64.2668 37.1404L67.8391 7.72033L67.5191 7.66187L6.9043 14.2665Z" fill="url(#paint3_linear_599_35319)"/>
<g opacity="0.3">
<path d="M34.7033 3.11353L7.08016 14.1857C7.05268 14.1969 7.06245 14.2392 7.09238 14.2355L66.5938 7.67375C66.6237 7.67064 66.6243 7.62711 66.595 7.62213L36.8061 2.87656C36.097 2.76398 35.3715 2.84546 34.7033 3.11353Z" fill="#FF8AA9"/>
</g>
</g>
<path d="M57.306 2.84864C56.159 2.61416 46.994 0.697892 38.3726 0.235152C36.1678 0.116979 34.2543 0.506949 32.1845 1.29C25.6061 3.77847 11.0775 9.75802 7.40013 12.6085C7.36959 12.6321 7.34883 12.6601 7.32073 12.685C7.12224 13.195 7.8246 13.6341 12.3008 12.8355C20.3011 11.4087 58.9849 6.55616 61.3467 5.91927C65.4913 4.8016 58.0596 3.00288 57.306 2.84864Z" fill="url(#paint4_linear_599_35319)"/>
<path d="M26.3298 18.6179C26.5295 18.6179 26.6914 17.9037 26.6914 17.0226C26.6914 16.1415 26.5295 15.4272 26.3298 15.4272C26.1301 15.4272 25.9683 16.1415 25.9683 17.0226C25.9683 17.9037 26.1301 18.6179 26.3298 18.6179Z" fill="url(#paint5_linear_599_35319)"/>
<path d="M30.3404 14.2771C30.5114 14.2771 30.6501 13.8611 30.6501 13.3479C30.6501 12.8347 30.5114 12.4187 30.3404 12.4187C30.1694 12.4187 30.0308 12.8347 30.0308 13.3479C30.0308 13.8611 30.1694 14.2771 30.3404 14.2771Z" fill="url(#paint6_linear_599_35319)"/>
<path d="M41.7198 11.6831C42.5657 11.6831 43.2515 11.5105 43.2515 11.2975C43.2515 11.0845 42.5657 10.9119 41.7198 10.9119C40.8738 10.9119 40.188 11.0845 40.188 11.2975C40.188 11.5105 40.8738 11.6831 41.7198 11.6831Z" fill="url(#paint7_linear_599_35319)"/>
<path d="M60.0695 9.5086C60.5543 9.5086 60.9472 9.36742 60.9472 9.19326C60.9472 9.01911 60.5543 8.87793 60.0695 8.87793C59.5848 8.87793 59.1919 9.01911 59.1919 9.19326C59.1919 9.36742 59.5848 9.5086 60.0695 9.5086Z" fill="url(#paint8_linear_599_35319)"/>
<path opacity="0.4" d="M7.23569 18.1931C7.22897 18.1477 7.22042 18.1023 7.21981 18.0557C7.2137 17.5749 7.56366 17.1569 7.60947 16.678C7.64062 16.3577 7.53251 16.0424 7.42624 15.7395C7.28882 15.3476 7.13552 14.9508 6.92787 14.5957L6.91016 14.35C7.06956 14.5154 7.29615 14.6498 7.59481 14.7313C9.02153 15.1206 10.4977 14.2524 11.867 13.9538C13.5845 13.5794 15.4595 13.6696 17.1696 14.0117C19.1081 14.3991 20.9556 13.4936 22.8838 13.4861C23.9233 13.4824 25.0721 13.4158 25.5467 14.5453C25.7885 15.1206 25.7598 15.6673 25.6926 16.2134C17.5067 16.7999 9.48814 17.7422 7.23569 18.1931ZM66.4903 10.1057C66.4427 8.6068 65.3549 8.26223 63.9716 8.38662C63.18 8.45815 62.3378 8.5869 61.7148 9.10872C61.1065 9.61811 60.7718 9.96579 59.8691 9.82025C59.2199 9.71576 58.6159 9.42095 57.9789 9.25862C57.5526 9.14977 57.1128 9.10064 56.6737 9.08571C54.6649 9.01729 53.0092 9.9689 51.1274 10.4055C49.2653 10.8372 47.215 10.1679 45.4542 10.9087C44.1862 11.4417 42.9281 12.2123 41.56 12.1178C40.5376 12.0469 39.5964 11.4927 38.5759 11.4007C37.3837 11.2931 36.2342 11.8223 35.0549 12.0307C34.0874 12.2017 32.3749 11.5139 31.6621 12.3809C31.1399 13.0159 31.6725 14.1858 30.8205 14.5876C30.459 14.758 30.0491 14.6162 29.8848 14.2468C29.6271 13.669 29.7682 13.1254 29.078 12.8697C28.518 12.662 27.8425 12.9226 27.5231 13.4301C27.3062 13.7747 27.2549 14.1989 27.2262 14.6069C27.1853 15.189 27.2275 15.7469 27.2586 16.3073C27.9555 16.3409 40.6915 13.728 51.635 13.9246C62.3231 13.8468 60.7272 27.1226 58.964 37.7041L63.4958 37.2239C63.9484 37.176 64.3087 36.8159 64.3643 36.3563L64.5567 34.7709C65.1931 28.9574 66.3016 16.502 66.4317 13.5881C66.4818 12.4288 66.527 11.2651 66.4903 10.1057Z" fill="#A50062"/>
</g>
<defs>
<radialGradient id="paint0_radial_599_35319" cx="0" cy="0" r="1" gradientUnits="userSpaceOnUse" gradientTransform="translate(4.00554 44.5874) scale(56.3577 57.3921)">
<stop stop-color="#BD7A59"/>
<stop offset="1" stop-color="#963A11"/>
</radialGradient>
<radialGradient id="paint1_radial_599_35319" cx="0" cy="0" r="1" gradientUnits="userSpaceOnUse" gradientTransform="translate(20.7133 9.49182) scale(58.372 59.4433)">
<stop stop-color="#EDCF87"/>
<stop offset="0.2821" stop-color="#BC9E6B"/>
<stop offset="0.6122" stop-color="#896B4E"/>
<stop offset="0.8619" stop-color="#6A4B3C"/>
<stop offset="1" stop-color="#5E3F35"/>
</radialGradient>
<linearGradient id="paint2_linear_599_35319" x1="35.5894" y1="-1.81062" x2="37.5546" y2="11.7996" gradientUnits="userSpaceOnUse">
<stop stop-color="#FF6EA6"/>
<stop offset="1" stop-color="#FF082B"/>
</linearGradient>
<linearGradient id="paint3_linear_599_35319" x1="6.90448" y1="25.3309" x2="67.8392" y2="25.3309" gradientUnits="userSpaceOnUse">
<stop stop-color="#FFB959"/>
<stop offset="1" stop-color="#EE9E34"/>
</linearGradient>
<linearGradient id="paint4_linear_599_35319" x1="7.29087" y1="6.74424" x2="62.5962" y2="6.74424" gradientUnits="userSpaceOnUse">
<stop stop-color="#FFB959"/>
<stop offset="1" stop-color="#FF1A41"/>
</linearGradient>
<linearGradient id="paint5_linear_599_35319" x1="26.33" y1="15.4272" x2="26.33" y2="18.6177" gradientUnits="userSpaceOnUse">
<stop stop-color="#FF794F"/>
<stop offset="1" stop-color="#FF5449"/>
</linearGradient>
<linearGradient id="paint6_linear_599_35319" x1="30.3406" y1="12.4189" x2="30.3406" y2="14.2771" gradientUnits="userSpaceOnUse">
<stop stop-color="#FF794F"/>
<stop offset="1" stop-color="#FF5449"/>
</linearGradient>
<linearGradient id="paint7_linear_599_35319" x1="41.7195" y1="10.9116" x2="41.7195" y2="11.6828" gradientUnits="userSpaceOnUse">
<stop stop-color="#FF794F"/>
<stop offset="1" stop-color="#FF5449"/>
</linearGradient>
<linearGradient id="paint8_linear_599_35319" x1="60.0694" y1="8.87793" x2="60.0694" y2="9.50904" gradientUnits="userSpaceOnUse">
<stop stop-color="#FF794F"/>
<stop offset="1" stop-color="#FF5449"/>
</linearGradient>
<clipPath id="clip0_599_35319">
<rect width="68" height="43" fill="white"/>
</clipPath>
</defs>
</svg>
