<svg width="45" height="53" viewBox="0 0 45 53" fill="none" xmlns="http://www.w3.org/2000/svg">
<g clip-path="url(#clip0_599_35241)">
<path d="M1.16797 8.84863L3.27119 8.90417C3.27119 8.90417 7.414 16.8869 9.16497 21.9997C11.0399 27.4748 12.6493 34.9432 12.6493 34.9432L11.6617 36.2297L10.8532 34.3676L1.16797 8.84863Z" fill="#F9C41C"/>
<path d="M0 11.1555C0.101069 11.3883 5.05526 20.0929 6.8602 25.4996C8.66514 30.9063 9.62181 35.4002 9.62181 35.4002L11.6617 36.2297C11.6617 36.2297 9.55385 27.3315 8.33137 23.891C7.10889 20.4505 1.16796 8.84863 1.16796 8.84863L0 11.1555Z" fill="#FBD544"/>
<path d="M17.626 0L19.5584 0.857C19.5584 0.857 20.5224 9.85388 20.302 15.2708C20.066 21.0713 18.8639 28.6207 18.8639 28.6207L17.4825 29.4367L17.4043 27.3984L17.626 0Z" fill="#F9C41C"/>
<path d="M15.709 1.69419C15.7187 1.94899 17.1754 11.9267 16.899 17.637C16.6227 23.3473 15.8884 27.8854 15.8884 27.8854L17.4826 29.4366C17.4826 29.4366 18.7382 20.3691 18.8454 16.7072C18.9526 13.0452 17.6261 0 17.6261 0L15.709 1.69419Z" fill="#FBD544"/>
<path d="M36.7868 3.67139L38.2905 5.18691C38.2905 5.18691 36.0477 13.9387 33.9503 18.9114C31.7042 24.2362 27.9459 30.8348 27.9459 30.8348L26.3721 31.0844L27.0109 29.1536L36.7868 3.67139Z" fill="#F9C41C"/>
<path d="M34.4062 4.54189C34.3263 4.78324 32.2007 14.6328 29.9485 19.8584C27.6963 25.0841 25.4263 29.0464 25.4263 29.0464L26.3719 31.0844C26.3719 31.0844 30.7104 23.0891 32.0893 19.712C33.4683 16.3349 36.7866 3.67139 36.7866 3.67139L34.4062 4.54189Z" fill="#FBD544"/>
<path d="M24.7119 1.94995L26.6443 2.80695C26.6443 2.80695 27.6083 11.8038 27.3879 17.2207C27.1519 23.0212 25.9498 30.5706 25.9498 30.5706L24.5685 31.3866L24.4902 29.3484L24.7119 1.94995Z" fill="#F9C41C"/>
<path d="M22.7949 3.64414C22.8047 3.89894 24.2613 13.8767 23.9849 19.5869C23.7086 25.2972 22.9744 29.8353 22.9744 29.8353L24.5685 31.3865C24.5685 31.3865 25.8241 22.319 25.9313 18.6571C26.0385 14.9952 24.7119 1.94995 24.7119 1.94995L22.7949 3.64414Z" fill="#FBD544"/>
<path d="M11.6541 5.83618L9.7946 6.84991C9.7946 6.84991 9.53394 15.8974 10.1752 21.2787C10.8619 27.0411 12.6477 34.4669 12.6477 34.4669L14.0881 35.1663L14.0074 33.1281L11.6541 5.83618Z" fill="#F9C41C"/>
<path d="M13.6967 7.36666C13.7068 7.6214 13.0314 17.6873 13.7513 23.3565C14.4711 29.0256 15.5562 33.4884 15.5562 33.4884L14.0879 35.1663C14.0879 35.1663 12.1307 26.2316 11.7388 22.5903C11.3469 18.9489 11.654 5.83618 11.654 5.83618L13.6967 7.36666Z" fill="#FBD544"/>
<path d="M45 8.8584L44.7069 11.4882C44.7069 11.4882 38.8702 16.8934 36.8892 21.0312C34.6268 25.7568 34.7009 30.5622 35.0301 33.3477C35.2074 34.8482 34.7191 35.7608 34.7191 35.7608L33.0175 35.757L31.8584 35.0589L34.751 20.4138L41.5271 10.1223L45 8.8584Z" fill="#F9C41C"/>
<path d="M41.7555 8.1543C41.7555 8.1543 37.1305 13.013 33.9997 20.3279C30.869 27.6428 31.8583 35.0589 31.8583 35.0589L33.9546 34.8108C33.9546 34.8108 32.9988 25.7205 35.8005 20.1308C39.1487 13.4503 45 8.85831 45 8.85831L41.7555 8.1543Z" fill="#FBD544"/>
<path d="M4.14111 2.61544L6.48901 0.0771484L9.19084 1.41322L7.98527 4.16439L6.12061 5.40139L4.14111 2.61544Z" fill="#FFEB31"/>
<path d="M6.73985 3.63492L9.19082 1.41333C9.19082 1.41333 11.002 13.9437 11.4381 20.3066C11.8742 26.6696 12.6917 38.1965 12.6917 38.1965L10.9376 39.7084L9.40028 26.7893L5.95898 5.70062L6.73985 3.63492Z" fill="#F9C41C"/>
<path d="M4.14111 2.61548C4.14111 2.61548 7.59677 17.6251 7.79511 25.1704C7.9934 32.7157 8.38619 37.9542 8.38619 37.9542L10.9376 39.7084C10.9376 39.7084 9.01943 15.2412 8.39486 11.1406C7.77029 7.03991 6.73987 3.63485 6.73987 3.63485L4.14111 2.61548Z" fill="#FBD544"/>
<path d="M41.0447 16.1787L40.4554 12.7258L37.4874 12.2964L37.0112 15.2747L37.8983 17.3685L41.0447 16.1787Z" fill="#FFEB31"/>
<path d="M38.333 15.5446L37.4876 12.2966C37.4876 12.2966 29.2397 21.6948 25.4541 26.7432C21.6684 31.7917 14.7876 40.9215 14.7876 40.9215L15.4347 43.181L23.6636 33.3028L37.872 17.7098L38.333 15.5446Z" fill="#F9C41C"/>
<path d="M41.0448 16.1787C41.0448 16.1787 30.0943 26.7026 25.8706 32.8709C21.647 39.0393 18.5022 43.1762 18.5022 43.1762L15.4346 43.1808C15.4346 43.1808 30.1922 23.9061 32.9179 20.8487C35.6436 17.7913 38.3329 15.5444 38.3329 15.5444L41.0448 16.1787Z" fill="#FBD544"/>
<path d="M11.9702 10.6926L14.3181 8.1543L17.0199 9.49037L15.8144 12.2415L13.9497 13.4785L11.9702 10.6926Z" fill="#FFEB31"/>
<path d="M14.5689 11.7118L17.0199 9.49023C17.0199 9.49023 18.8312 22.0206 19.2672 28.3835C19.7033 34.7465 20.5208 46.2734 20.5208 46.2734L18.7667 47.7853L17.2294 34.8662L13.7881 13.7775L14.5689 11.7118Z" fill="#F9C41C"/>
<path d="M11.9702 10.6926C11.9702 10.6926 15.4259 25.7023 15.6242 33.2476C15.8225 40.7928 16.2153 46.0313 16.2153 46.0313L18.7667 47.7855C18.7667 47.7855 16.8485 23.3184 16.224 19.2178C15.5994 15.1171 14.569 11.7121 14.569 11.7121L11.9702 10.6926Z" fill="#FBD544"/>
<path d="M19.3691 6.45638L22.1303 4.40625L24.5474 6.23144L22.871 8.70727L20.8172 9.5698L19.3691 6.45638Z" fill="#FFEB31"/>
<path d="M21.7413 7.95075L24.5473 6.23145C24.5473 6.23145 24.0895 18.8911 23.3817 25.2281C22.6738 31.5651 21.4185 43.0502 21.4185 43.0502L19.4243 44.204L20.2208 31.2141L20.6049 9.8332L21.7413 7.95075Z" fill="#F9C41C"/>
<path d="M19.3692 6.4563C19.3692 6.4563 20.085 21.8646 18.9323 29.3186C17.7795 36.7727 17.23 41.9962 17.23 41.9962L19.4245 44.2039C19.4245 44.2039 21.9092 19.7909 22.0277 15.6418C22.1462 11.4928 21.7415 7.95066 21.7415 7.95066L19.3692 6.4563Z" fill="#FBD544"/>
<path d="M26.1616 6.45638L28.9228 4.40625L31.3399 6.23144L29.6635 8.70727L27.6097 9.5698L26.1616 6.45638Z" fill="#FFEB31"/>
<path d="M28.5343 7.95075L31.3402 6.23145C31.3402 6.23145 30.8825 18.8911 30.1747 25.2281C29.4668 31.5651 28.2115 43.0502 28.2115 43.0502L26.2173 44.204L27.0138 31.2141L27.3979 9.8332L28.5343 7.95075Z" fill="#F9C41C"/>
<path d="M26.1617 6.4563C26.1617 6.4563 26.8775 21.8646 25.7248 29.3186C24.572 36.7727 24.0225 41.9962 24.0225 41.9962L26.217 44.2039C26.217 44.2039 28.7017 19.7909 28.8201 15.6418C28.9387 11.4928 28.534 7.95066 28.534 7.95066L26.1617 6.4563Z" fill="#FBD544"/>
<path d="M9.36963 19.5424L11.421 17.1433L14.2297 17.7774L13.3288 20.1638L11.6177 21.448L9.36963 19.5424Z" fill="#FFEB31"/>
<path d="M12.0434 19.9403L14.2299 17.7773C14.2299 17.7773 17.3376 27.4805 18.4381 32.4851C19.5386 37.4896 21.5593 46.5513 21.5593 46.5513L19.9863 48.037L17.1082 37.9801L11.4897 21.7122L12.0434 19.9403Z" fill="#F9C41C"/>
<path d="M9.36963 19.5425C9.36963 19.5425 14.3623 30.9602 15.3524 36.9455C16.3426 42.9309 17.282 47.0456 17.282 47.0456L19.9862 48.0371C19.9862 48.0371 15.5162 28.832 14.4678 25.6616C13.4193 22.4912 12.0433 19.9404 12.0433 19.9404L9.36963 19.5425Z" fill="#FBD544"/>
<path d="M16.3794 15.7076C16.3987 15.6053 19.1618 14.0486 19.1618 14.0486L21.1527 15.7076L19.3507 18.3782L17.485 17.6971L16.3794 15.7076Z" fill="#FFEB31"/>
<path d="M19.0921 17.1174L21.1524 15.7075C21.1524 15.7075 19.7495 21.4046 20.4923 28.2041C21.235 35.0036 24.7009 44.3529 24.7009 44.3529L24.0384 45.8297L20.1419 38.6584L17.3564 23.5295L19.0921 17.1174Z" fill="#F9C41C"/>
<path d="M21.8477 46.1003C22.4837 46.5574 23.3499 46.1971 24.0385 45.8297C22.5192 43.3406 18.9925 35.1303 18.5706 25.5704C18.4349 22.4962 18.5318 20.0208 19.0924 17.1174C18.0844 16.9191 17.1331 16.4247 16.3793 15.7075C16.2253 17.2858 16.2207 21.6918 16.2835 22.9753C17.1748 41.1906 21.5893 45.9145 21.8477 46.1003Z" fill="#FBD544"/>
<path d="M5.16107 15.5143C5.10319 15.4288 1.96462 15.1592 1.96462 15.1592L0.797363 17.507L3.49573 19.1961L4.93324 17.7946L5.16107 15.5143Z" fill="#FFEB31"/>
<path d="M3.23566 17.9359L0.797363 17.5071C0.797363 17.5071 4.32179 22.1296 6.31862 28.6556C8.31546 35.1815 8.82623 45.1753 8.82623 45.1753L10.0131 46.2488L10.753 38.0663L7.34574 23.0731L3.23566 17.9359Z" fill="#F9C41C"/>
<path d="M12.1224 45.5813C11.7209 46.2646 10.7872 46.297 10.0132 46.2485C10.4226 43.3388 10.4157 34.3609 7.0393 25.4453C5.95355 22.5783 4.89078 20.3558 3.23584 17.9356C4.07919 17.3335 4.75437 16.4844 5.16125 15.5142C5.92309 16.8928 7.66122 20.9187 8.1089 22.1182C14.4622 39.1423 12.2856 45.3036 12.1224 45.5813Z" fill="#FBD544"/>
<path d="M23.1748 15.3879L26.1386 13.6638L28.3456 15.7524L26.4143 18.0227L24.2808 18.6468L23.1748 15.3879Z" fill="#FFEB31"/>
<path d="M25.3729 17.1426L28.3457 15.7524C28.3457 15.7524 26.5355 28.2829 25.1536 34.5009C23.7717 40.7189 21.2945 51.9914 21.2945 51.9914L19.189 52.9116L21.3711 40.0914L24.0418 18.8845L25.3729 17.1426Z" fill="#F9C41C"/>
<path d="M23.1749 15.3879C23.1749 15.3879 22.2369 30.7835 20.2932 38.0612C18.3496 45.3389 17.2441 50.4682 17.2441 50.4682L19.189 52.9116C19.189 52.9116 24.272 28.9296 24.8339 24.8194C25.3958 20.7092 25.3729 17.1426 25.3729 17.1426L23.1749 15.3879Z" fill="#FBD544"/>
<path d="M30.3886 16.4146L32.4397 17.3242C32.4397 17.3242 33.4629 26.8737 33.2289 32.6233C32.9784 38.7802 31.7025 46.7932 31.7025 46.7932L30.2363 47.6593L30.1533 45.4959L30.3886 16.4146Z" fill="#F9C41C"/>
<path d="M28.354 18.213C28.3644 18.4835 29.9105 29.0741 29.6171 35.1352C29.3238 41.1962 28.5444 46.0131 28.5444 46.0131L30.2366 47.6596C30.2366 47.6596 31.5693 38.0351 31.6831 34.1482C31.7969 30.2614 30.3888 16.4148 30.3888 16.4148L28.354 18.213Z" fill="#FBD544"/>
<path d="M14.1155 17.8906L12.0435 19.9404L13.548 23.1878L12.612 19.9414L14.1155 17.8906Z" fill="#F7AB14"/>
<path d="M19.0921 17.1173C19.0921 17.1173 18.551 20.1138 18.536 22.0384C18.5211 23.9631 18.5703 25.5703 18.5703 25.5703C18.5703 25.5703 18.76 20.0275 19.0921 18.821C19.4241 17.6144 20.3345 16.2671 20.3345 16.2671L19.0921 17.1173Z" fill="#F7AB14"/>
<path d="M9.92871 6.77676L10.7528 16.6683L11.2607 6.05054L9.92871 6.77676Z" fill="#F7AB14"/>
<path d="M20.7617 30.6228C20.7969 30.804 21.3056 32.907 21.3056 32.907L22.4387 24.2367C22.4387 24.2367 23.0524 17.1783 23.0549 17.1432C23.0575 17.1081 22.4569 24.7166 21.9083 26.0935C21.3598 27.4704 20.7617 30.6228 20.7617 30.6228Z" fill="#F7AB14"/>
<path d="M23.7676 34.1498C23.9231 33.9661 28.346 15.7524 28.346 15.7524L25.3733 34.3321L23.7676 34.1498Z" fill="#F7AB14"/>
<path d="M28.8415 22.4655L28.7505 33.5396L30.4232 32.9072L28.8592 22.2935L28.8415 22.4655Z" fill="#F7AB14"/>
<path d="M12.0435 26.1404L12.6477 34.4668L14.0277 34.7335C14.0277 34.7335 13.3828 30.6045 13.0356 29.2391C12.6883 27.8736 12.0435 26.1404 12.0435 26.1404Z" fill="#F7AB14"/>
<path d="M32.5156 18.0681L33.264 28.5429L33.8415 16.6685L32.5156 18.0681Z" fill="#F7AB14"/>
<path d="M31.0101 26.7625C31.0101 26.7625 30.4177 30.4235 28.1796 31.9151C25.9416 33.4066 20.2147 33.1584 20.2147 33.1584C20.2147 33.1584 14.4879 33.4066 12.2498 31.9151C10.0117 30.4235 9.41928 26.7625 9.41928 26.7625H6.52295L9.74839 53.0001H20.2147H30.681L33.9064 26.7625H31.0101Z" fill="#FF5B40"/>
<path d="M9.74847 53.0001L7.04961 48.8644L3.10645 21.1619L6.52302 26.7625L9.74847 53.0001Z" fill="#EA412A"/>
<path d="M30.6816 53L33.3805 48.8643L36.9511 20.9041L33.9071 26.7624L30.6816 53Z" fill="#EA412A"/>
<path d="M9.36963 19.5424L12.0433 19.9404L14.1153 17.8906C14.1153 17.8906 13.5272 18.3384 12.1462 18.9155C10.7651 19.4925 9.36963 19.5424 9.36963 19.5424Z" fill="#FFFF3E"/>
<path d="M16.3789 15.7076C16.3789 15.7076 16.7497 16.3843 17.4914 16.7794C18.2331 17.1745 19.0239 17.3687 19.0239 17.3687L21.1522 15.7075C21.1522 15.7075 21.3723 15.9892 19.1889 16.0155C17.0055 16.0419 16.3789 15.7076 16.3789 15.7076Z" fill="#FFFF3E"/>
<path d="M25.0623 15.2095C25.2292 14.5705 25.6595 14.0092 26.2244 13.6938C26.0826 13.5875 25.8861 13.6805 25.7362 13.7743C24.8712 14.3153 24.0062 14.8564 23.1411 15.3975C23.7608 16.1698 24.6693 16.6367 25.3814 17.3082C25.2887 16.9807 25.1056 16.6961 25.0357 16.3566C24.9511 15.946 25.0623 15.6074 25.0623 15.2095Z" fill="#FFFF3E"/>
</g>
<defs>
<clipPath id="clip0_599_35241">
<rect width="45" height="53" fill="white"/>
</clipPath>
</defs>
</svg>
