<svg width="24" height="24" viewBox="0 0 24 24" fill="currentColor" xmlns="http://www.w3.org/2000/svg">
<path d="M22.6538 22.6601L22.6591 22.6592V14.9375C22.6591 11.1599 21.8459 8.25002 17.4297 8.25002C15.3067 8.25002 13.882 9.41504 13.3004 10.5195H13.239V8.60269H9.05176V22.6592H13.4118V15.6989C13.4118 13.8663 13.7592 12.0942 16.0287 12.0942C18.2648 12.0942 18.2982 14.1856 18.2982 15.8165V22.6601H22.6538Z" fill="currentColor"/>
<path d="M2.34668 8.60355H6.71198V22.66H2.34668V8.60355Z" fill="currentColor"/>
<path d="M4.52829 2.00006C3.13256 2.00006 2 3.13262 2 4.52835C2 5.92409 3.13256 7.08033 4.52829 7.08033C5.92403 7.08033 7.05658 5.92409 7.05658 4.52835C7.05571 3.13262 5.92315 2.00006 4.52829 2.00006Z" fill="currentColor"/>
</svg>
