<svg width="24" height="24" viewBox="0 0 24 24" fill="currentColor" xmlns="http://www.w3.org/2000/svg">
<g clip-path="url(#clip0_8_8088)">
<path d="M12.3264 6.10352e-05C5.74865 6.10352e-05 2.25049 4.21525 2.25049 8.81146C2.25049 10.9431 3.44154 13.6012 5.34813 14.4442C5.63764 14.5747 5.79515 14.5192 5.85965 14.2507C5.91665 14.0467 6.16716 13.0641 6.28867 12.6006C6.32617 12.4521 6.30667 12.3231 6.18667 12.1836C5.55364 11.4516 5.05111 10.118 5.05111 8.86696C5.05111 5.66131 7.59973 2.54868 11.9364 2.54868C15.6866 2.54868 18.3102 4.98478 18.3102 8.46944C18.3102 12.4071 16.2266 15.1312 13.519 15.1312C12.0204 15.1312 10.9044 13.9552 11.2584 12.5001C11.6859 10.7675 12.5245 8.90446 12.5245 7.6549C12.5245 6.53435 11.8914 5.60731 10.5984 5.60731C9.0728 5.60731 7.83524 7.11788 7.83524 9.14597C7.83524 10.4345 8.29126 11.3046 8.29126 11.3046C8.29126 11.3046 6.78219 17.4008 6.50168 18.5394C6.02766 20.467 6.56618 23.5886 6.61268 23.8571C6.64119 24.0056 6.80769 24.0521 6.9007 23.9306C7.0492 23.7356 8.87329 21.133 9.38481 19.2519C9.57082 18.5664 10.3344 15.7868 10.3344 15.7868C10.8369 16.6943 12.2874 17.4548 13.8325 17.4548C18.4287 17.4548 21.7499 13.4152 21.7499 8.40194C21.7334 3.59572 17.6202 6.10352e-05 12.3264 6.10352e-05Z" fill="currentColor"/>
</g>
<defs>
<clipPath id="clip0_8_8088">
<rect width="24" height="24" fill="currentColor"/>
</clipPath>
</defs>
</svg>
